<?xml version="1.0" encoding="UTF-8"?>
<svg id="Layer_1" data-name="Layer 1" xmlns="http://www.w3.org/2000/svg" xmlns:xlink="http://www.w3.org/1999/xlink" viewBox="0 0 32 32">
  <defs>
    <style>
      .cls-1 {
        fill: #fff;
      }

      .cls-2 {
        filter: url(#luminosity-noclip);
      }

      .cls-3 {
        mask: url(#mask);
      }
    </style>
    <filter id="luminosity-noclip" x="7.32" y="6.25" width="17.35" height="19.5" color-interpolation-filters="sRGB" filterUnits="userSpaceOnUse">
      <feFlood flood-color="#fff" result="bg"/>
      <feBlend in="SourceGraphic" in2="bg"/>
    </filter>
    <mask id="mask" x="7.32" y="6.25" width="17.35" height="19.5" maskUnits="userSpaceOnUse">
      <g class="cls-2">
        <g>
          <path d="m23.87,9.49h-.24v7.59c0,2.11-.85,4.02-2.24,5.4-1.38,1.38-3.29,2.24-5.4,2.24-2.11,0-4.02-.85-5.4-2.24-1.38-1.38-2.24-3.29-2.24-5.4v-7.59h-.24v.24c.74,0,1.41-.3,1.89-.78.48-.48.78-1.15.78-1.89h-.24v.24h10.88v-.24h-.24c0,.74.3,1.41.78,1.89.48.48,1.15.78,1.89.78v-.24h-.24.24v-.24c-.61,0-1.15-.25-1.55-.64-.4-.4-.64-.95-.64-1.55v-.24h-11.36v.24c0,.61-.25,1.15-.64,1.55-.4.4-.95.64-1.55.64h-.24v7.83c0,2.24.91,4.27,2.38,5.74,1.47,1.47,3.5,2.38,5.74,2.38,2.24,0,4.27-.91,5.74-2.38,1.47-1.47,2.38-3.5,2.38-5.74v-7.83h-.24v.24Z"/>
          <g>
            <polygon points="15.76 17.07 15.76 24.95 16.24 24.95 16.24 17.07 16 17.31 15.76 17.07"/>
            <polygon points="16.24 14.35 16.24 7.05 15.76 7.05 15.76 14.35 16 14.11 16.24 14.35"/>
            <polygon points="17.36 15.95 23.87 15.95 23.87 15.47 17.36 15.47 17.6 15.71 17.36 15.95"/>
            <polygon points="14.64 15.47 8.13 15.47 8.13 15.95 14.64 15.95 14.4 15.71 14.64 15.47"/>
          </g>
          <polygon points="16 17.31 16.17 17.14 14.74 15.71 16 14.45 17.26 15.71 15.83 17.14 16 17.31 16.17 17.14 16 17.31 16.17 17.48 17.94 15.71 16 13.77 14.06 15.71 16 17.65 16.17 17.48 16 17.31"/>
          <path d="m10.51,9.87h.53v.91h.24l-.1-.22c-.41.19-.75.49-.99.86-.24.37-.38.82-.38,1.29,0,.66.27,1.25.7,1.68.43.43,1.02.7,1.68.7.65,0,1.25-.27,1.68-.7.43-.43.7-1.02.7-1.68,0-.48-.14-.92-.38-1.29-.24-.37-.59-.67-.99-.86l-.1.22h.24v-.91h.53v-.48h-1.01s0,1.54,0,1.54l.14.06c.32.15.6.39.79.69.19.3.3.65.3,1.03,0,.52-.21,1-.55,1.34-.34.34-.82.55-1.34.55-.52,0-1-.21-1.34-.55-.34-.34-.55-.82-.55-1.34,0-.38.11-.73.3-1.03.19-.3.47-.54.79-.69l.14-.06v-1.54h-1.01v.48h0Z"/>
          <path d="m9.88,12.88c.16.16.34.28.51.36.18.08.36.11.53.11.26,0,.5-.07.73-.17.34-.14.66-.35.96-.5.15-.08.29-.15.43-.2.13-.05.26-.07.37-.07.12,0,.23.03.34.09.12.06.24.17.38.35l.38-.29c-.16-.22-.34-.38-.53-.48-.19-.1-.39-.15-.58-.15-.25,0-.48.07-.7.17-.33.14-.64.34-.94.5-.15.08-.3.15-.44.2-.14.05-.27.07-.4.07-.11,0-.22-.02-.34-.07-.11-.05-.24-.13-.36-.26l-.34.34h0Z"/>
          <path d="m11.86,11.93c0,.13-.11.24-.24.24s-.24-.11-.24-.24.11-.24.24-.24.24.11.24.24Z"/>
          <path d="m12.69,11.2c0,.12-.09.21-.21.21s-.21-.09-.21-.21.09-.21.21-.21.21.09.21.21Z"/>
          <path d="m12.56,9.86s-.03.08-.08.08-.08-.03-.08-.08.03-.08.08-.08.08.03.08.08Z"/>
          <path d="m12.1,10.49c0,.09-.07.17-.17.17s-.17-.07-.17-.17.07-.17.17-.17.17.07.17.17Z"/>
          <path d="m20.71,12.01h-.24c0,.16-.06.3-.17.41-.11.11-.25.17-.41.17-.16,0-.3-.06-.41-.17-.11-.11-.17-.25-.17-.41,0-.16.06-.3.17-.41.11-.11.25-.17.41-.17.16,0,.3.06.41.17.11.11.17.25.17.41h.48c0-.29-.12-.56-.31-.75-.19-.19-.46-.31-.75-.31-.29,0-.56.12-.75.31-.19.19-.31.46-.31.75,0,.29.12.56.31.75.19.19.46.31.75.31.29,0,.56-.12.75-.31.19-.19.31-.46.31-.75h-.24Z"/>
          <path d="m21.48,13.36l-.77-.77-.34.34.74.74c.09-.14.22-.24.37-.31Z"/>
          <path d="m22.61,14.12h-.24c0,.16-.06.3-.17.41-.11.11-.25.17-.41.17-.16,0-.3-.06-.41-.17-.11-.11-.17-.25-.17-.41,0-.16.06-.3.17-.41.11-.11.25-.17.41-.17.16,0,.3.06.41.17.11.11.17.25.17.41h.48c0-.29-.12-.56-.31-.75-.19-.19-.46-.31-.75-.31-.29,0-.56.12-.75.31-.19.19-.31.46-.31.75,0,.29.12.56.31.75.19.19.46.31.75.31.29,0,.56-.12.75-.31.19-.19.31-.46.31-.75h-.24Z"/>
          <path d="m19.89,10.09c-.08,0-.16-.01-.24-.04v1.13h.48v-1.13c-.08.02-.16.04-.24.04Z"/>
          <path d="m20.71,9.27h-.24c0,.16-.06.3-.17.41-.11.11-.25.17-.41.17-.16,0-.3-.06-.41-.17-.11-.11-.17-.25-.17-.41,0-.16.06-.3.17-.41.11-.11.25-.17.41-.17.16,0,.3.06.41.17.11.11.17.25.17.41h.48c0-.29-.12-.56-.31-.75-.19-.19-.46-.31-.75-.31-.29,0-.56.12-.75.31-.19.19-.31.46-.31.75,0,.29.12.56.31.75.19.19.46.31.75.31.29,0,.56-.12.75-.31.19-.19.31-.46.31-.75h-.24Z"/>
          <path d="m18.75,13.16l.61-.52-.31-.37-.61.52c.14.09.25.22.31.37Z"/>
          <path d="m18.81,13.48h-.24c0,.16-.06.3-.17.41-.11.11-.25.17-.41.17-.16,0-.3-.06-.41-.17-.11-.11-.17-.25-.17-.41,0-.16.06-.3.17-.41.11-.11.25-.17.41-.17.16,0,.3.06.41.17.11.11.17.25.17.41h.48c0-.29-.12-.56-.31-.75-.19-.19-.46-.31-.75-.31-.29,0-.56.12-.75.31-.19.19-.31.46-.31.75,0,.29.12.56.31.75.19.19.46.31.75.31.29,0,.56-.12.75-.31.19-.19.31-.46.31-.75h-.24Z"/>
          <g>
            <path d="m16.58,21.43c0-.49.14-.92.5-1.26.33-.31.71-.42,1.16-.33.42.08.48.49.33.76-.09.17-.24.27-.4.36-.31.17-.65.28-.99.37-.08.02-.11.04-.09.13.03.19.07.36.22.5.1.09.22.12.36.11.18-.02.34-.08.49-.18.03-.02.06-.03.08-.05.07-.03.13-.02.17.04.04.06.01.12-.04.16-.08.06-.16.11-.24.16-.28.17-.58.25-.91.19-.35-.06-.56-.29-.62-.64-.02-.11-.02-.22-.02-.33Zm1.19-1.34c-.09.01-.19.03-.28.11-.26.23-.36.53-.39.86,0,.06.02.07.07.06.23-.08.47-.16.68-.28.1-.06.18-.13.23-.24.11-.24-.04-.5-.31-.5Z"/>
            <path d="m20.9,18.09c.41.02.85,0,1.29,0,.11,0,.22-.01.33-.02.06,0,.11-.03.15-.07.03-.03.06-.06.11-.06.07,0,.11.03.1.1-.01.1-.02.2-.03.31,0,.07-.05.1-.1.08-.11-.02-.22,0-.33-.02-.09-.02-.12.02-.14.09-.08.28-.14.56-.2.85-.02.08-.03.16-.04.25,0,.04-.01.09.03.12.05.03.08-.01.11-.03.05-.03.09-.08.13-.13.02-.03.05-.05.08-.02.03.02.05.06.03.1-.08.17-.37.36-.55.36-.13,0-.21-.08-.22-.22-.01-.18.03-.35.07-.52.06-.25.12-.5.18-.75.02-.07,0-.1-.07-.1-.1,0-.2,0-.3,0-.07,0-.1.03-.12.09-.12.45-.3.87-.5,1.29-.06.12-.13.18-.26.19-.08,0-.17.02-.25.02-.03,0-.07,0-.08-.04-.01-.03,0-.06.03-.09.03-.02.05-.05.08-.07.25-.15.4-.38.51-.64.09-.22.16-.45.23-.67.02-.07,0-.1-.07-.09-.13.02-.27.01-.4.02-.11,0-.14.05-.12.16.01.06.03.12.06.17.02.04,0,.08-.03.1-.05.03-.07,0-.09-.04-.08-.13-.14-.27-.16-.43-.02-.19.07-.3.27-.3.08,0,.15,0,.27,0Z"/>
            <path d="m19.83,18.38c-.02.19-.1.41-.15.64-.05.2-.1.39-.14.59,0,.04-.02.08.02.1.04.03.07,0,.11-.02.06-.04.11-.1.16-.15.02-.02.05-.03.08,0,.02.02.05.04.03.08-.05.15-.38.37-.55.37-.16,0-.24-.1-.2-.25.09-.36.18-.72.27-1.08.02-.06.03-.13.03-.19,0-.07-.04-.09-.09-.06-.07.03-.11.09-.17.14-.03.03-.06.08-.11.03-.05-.04-.03-.08,0-.12.1-.12.21-.23.35-.3.08-.04.16-.04.23-.03.11.02.15.08.15.25Z"/>
            <path d="m19.47,17.33c0-.15.14-.28.3-.28s.25.09.25.23c0,.14-.16.3-.3.3-.15,0-.25-.11-.25-.25Z"/>
          </g>
          <path d="m15.34,20.87s-.05-.03-.08-.03c-.03,0-.05.01-.07.03-.02.02-.03.05-.03.07,0,.03.01.05.03.08,0,0,.01.01.02.02-.07,0-.14,0-.2,0,0,0-.02,0-.03,0,0,0-.01,0-.02,0h0s-.03,0-.04,0c-.03,0-.05,0-.08-.02-.02-.01-.04-.04-.06-.07-.06-.12-.17-.17-.3-.17-.05,0-.1,0-.14.03,0,0-.01,0-.02,0,0,0-.01,0-.02,0h0s0,0,0,0h0c-.1-.1-.19-.2-.29-.3,0,0,0-.01-.02-.02.01-.02.03-.05.04-.07.11-.18.22-.35.33-.53,0-.01.01-.02.02-.02,0,0,0,0,.02,0,0,0,0,0,.01,0,.02,0,.05,0,.07,0,.15,0,.28-.09.33-.23,0-.02.01-.02.02-.03,0,0,.01,0,.03,0h0s0,0,0,0c.07,0,.14,0,.21,0h.08s.03,0,.05,0c0,0-.01.02-.02.02-.02.02-.03.05-.03.07,0,.02,0,.05.03.07.02.02.05.03.08.03.02,0,.05,0,.07-.03.06-.06.12-.12.18-.18.02-.03.03-.06.03-.09,0-.04-.02-.08-.05-.11-.05-.05-.1-.11-.15-.16-.02-.02-.05-.03-.08-.03-.03,0-.05.01-.07.03-.02.02-.03.04-.03.07,0,.03.01.05.03.08,0,0,.01.01.02.02-.04,0-.08,0-.12,0-.04,0-.09,0-.13,0-.03,0-.06,0-.1,0h0s-.02,0-.02,0c0,0,0,0-.02-.02-.06-.15-.19-.24-.34-.24-.02,0-.05,0-.07,0h0s-.01,0-.02,0c0,0-.01,0-.01,0-.14-.22-.28-.44-.42-.67.1-.1.2-.21.29-.31.1.05.18.08.26.08.07,0,.13-.02.19-.07.05-.04.1-.11.14-.19h.37s-.01.01-.02.02c-.02.02-.03.05-.03.08,0,.02,0,.05.03.07.02.02.05.04.08.04.03,0,.05-.01.07-.03.06-.06.12-.11.17-.17.03-.03.04-.06.04-.1,0-.04-.01-.07-.04-.11-.05-.06-.11-.11-.16-.17-.02-.02-.05-.03-.08-.03-.03,0-.05.01-.07.03-.02.02-.03.04-.03.07,0,.03.01.05.03.08,0,0,.01.02.02.02-.02,0-.03,0-.05,0-.01,0-.03,0-.04,0-.05,0-.09,0-.14,0s-.09,0-.13,0c0,0-.01,0-.02,0h0s0,0,0,0c-.05-.15-.19-.25-.35-.25-.09,0-.18.03-.26.1-.31-.17-.62-.35-.93-.52h0s0,0,0-.01c0,0,0-.01,0-.01h0s0,0,0,0c0-.02,0-.04,0-.05,0-.17-.1-.32-.27-.36-.03,0-.07-.01-.1-.01-.15,0-.28.09-.34.24,0,.01,0,.02-.01.02,0,0,0,0-.02,0h0c-.08,0-.16,0-.24,0-.08,0-.15,0-.23,0h0s0,0,0,0h0s-.02,0-.02,0c0,0,0-.01-.02-.02-.03-.07-.07-.13-.13-.17-.06-.04-.12-.06-.2-.07h0s0,0,0,0c0,0,0,0,0,0h0s0,0-.01,0c-.03,0-.06,0-.08.03-.02.02-.03.04-.03.07h0s0,0,0,0h0,0s.01.06.03.08c.02.02.05.03.09.03.08,0,.15.07.16.14,0,0,0,.01,0,.02,0,.07-.05.13-.12.15-.01,0-.03,0-.04,0-.04,0-.08-.02-.11-.05-.03-.03-.05-.07-.05-.11,0,0,0-.02,0-.03,0-.01,0-.03,0-.04,0-.02,0-.03,0-.05,0-.01-.02-.03-.03-.04-.02-.01-.04-.02-.06-.02-.02,0-.04,0-.06.02-.02.01-.03.03-.04.06,0,.05,0,.1,0,.14,0,0,0,.02,0,.03,0,0,0,0,0,.01h0c-.31.18-.62.35-.92.52-.06-.03-.12-.07-.19-.09-.03,0-.06-.01-.09-.01-.16,0-.3.11-.35.27,0,.01,0,.02-.01.03h0s0,.09,0,.13h0s0,0,0,0c0,.01.01.02.01.03.05.16.2.26.35.26.07,0,.15-.02.21-.07,0,0,.01,0,.02-.01.05.05.1.1.15.15.05.05.1.1.15.16-.11.18-.22.36-.34.54,0,.01-.02.02-.02.04-.02.03-.03.06-.05.08-.02.02-.04.03-.08.03,0,0-.02,0-.03,0h0s-.02,0-.03,0c-.07,0-.13.03-.19.07-.05.04-.1.1-.12.17,0,.02-.01.04-.02.06h0s0,.08,0,.12h0s0,0,0,0c.02.05.03.1.07.14.07.1.17.16.29.16.02,0,.05,0,.07,0h0s.01,0,.02,0c0,0,.01,0,.02,0,0,0,0,0,.02.02.12.19.24.39.36.58,0,.01,0,.02,0,.02h0s0,.02-.01.02c-.1.1-.19.2-.28.3,0,0-.01,0-.01.01,0,0,0,0,0,0,0,0,0,0-.02,0-.05-.02-.1-.03-.15-.03-.08,0-.15.03-.21.07-.06.05-.11.12-.13.2,0,0,0,0,0,.01h0c0,.05,0,.09,0,.13h0s0,0,0,0c0,.01,0,.02.01.03.05.17.2.27.35.27.08,0,.17-.03.24-.09,0,0,.01-.01.02-.02.09.05.18.1.26.15.22.12.43.24.65.37.01,0,.02.01.02.01,0,0,0,0,0,.02h0s0,.05,0,.07c0,.09.03.16.07.22.05.06.12.11.21.13,0,0,0,0,.02,0h0s0,0,0,0h.13c.08-.03.16-.06.21-.14,0,0,.01-.02.02-.02,0,0,.01-.02.02-.03,0-.03.02-.05.04-.06.02,0,.04-.01.07-.01,0,0,.01,0,.02,0,.05,0,.11,0,.16,0,.06,0,.12,0,.18,0,.02,0,.04,0,.06,0,0,0,.02,0,.02,0,0,0,0,0,0,0h0c.02.07.06.12.11.16.05.04.11.07.18.09h0s0,0,0,0h.11s.04-.03.05-.04c.01-.02.02-.04.02-.06,0-.01,0-.02,0-.03,0-.03-.03-.05-.05-.06-.02,0-.05-.01-.07-.01-.09,0-.16-.08-.16-.16h0c0-.09.08-.16.15-.16h0c.08,0,.15.08.15.17h0s0,0,0,0c0,0,0,0,0,.01,0,.03,0,.06.02.09.02.02.04.03.07.03h0s0,0,0,0c.03,0,.06-.01.08-.04.02-.02.03-.05.03-.09h0s0-.02,0-.03c0,0,0-.02,0-.02,0-.01,0-.02,0-.03,0-.01,0-.02.02-.03.01,0,.03-.02.05-.03.29-.16.59-.33.88-.49.07.06.16.1.25.1.02,0,.04,0,.06,0,.07-.01.12-.04.17-.07.05-.04.08-.09.11-.15,0-.02.01-.02.02-.03,0,0,.02,0,.03,0h0s0,0,0,0c.05,0,.11,0,.17,0s.11,0,.17,0c0,0-.01.02-.02.02-.02.02-.03.05-.03.07,0,.02,0,.05.03.07.02.02.05.04.08.04.03,0,.05-.01.07-.03.06-.06.12-.12.17-.18.02-.03.04-.06.04-.09,0-.04-.02-.08-.05-.11-.05-.06-.1-.11-.16-.16Zm-.85.42h0s-.08-.02-.11-.05c-.03-.03-.05-.07-.05-.11h0c0-.09.07-.16.16-.16h0s0,0,0,0c.09,0,.15.07.15.16,0,.09-.07.15-.15.16Zm-4.46-1.69s-.05-.07-.05-.11h0s.02-.08.05-.11c.03-.03.07-.05.1-.05h0s0,0,0,0c.04,0,.08.02.11.05.03.03.05.07.05.11,0,.04-.02.08-.05.11-.03.03-.07.05-.11.05h0s-.08-.02-.11-.05Zm4.46-1.91h0c.09,0,.15.07.15.15,0,.09-.07.15-.15.16h0c-.09,0-.15-.07-.16-.15h0s0,0,0,0c0-.04.02-.08.05-.11.03-.03.07-.05.11-.05Zm.16,1.8h0c0,.08-.07.16-.15.16h0s-.08-.02-.11-.05c-.03-.03-.05-.07-.05-.11h0s0,0,0,0c0-.04.02-.08.05-.11.03-.03.07-.05.11-.05h0c.08,0,.15.07.15.16Zm-.53,1.73h0c-.29.17-.59.33-.88.5.02-.04.05-.08.07-.12.11-.18.23-.36.34-.55,0,0,.01-.02.01-.02,0,0,0,0,.01,0,0,0,.01,0,.02,0,.14.04.28.07.42.1.01,0,.02,0,.02.01,0,0,0,0,0,.02h0s0,.03,0,.04c0,0,0,0,0,.01h0Zm-1.35.46s0,0-.01,0h0s0,0,0,0c-.1-.09-.21-.19-.31-.29,0,0,0-.01,0-.02.1-.09.2-.19.3-.28,0,0,.02-.01.03-.01h0c.07.02.13.03.18.03.06,0,.11-.01.16-.05.05-.03.09-.07.13-.13.06.02.13.03.19.05,0,0,0,.02-.01.02-.13.21-.26.41-.38.62,0,.01-.01.02-.02.02,0,0,0,0-.02,0,0,0,0,0-.02,0-.02,0-.05,0-.07,0-.05,0-.1.01-.15.03h0s0,0-.01,0Zm-.21.23c-.16,0-.33,0-.49,0h0s0,0-.01,0c0,0-.01-.01-.01-.02,0-.01-.01-.02-.02-.03,0,0,0-.01,0-.02,0,0,0,0,0-.01.1-.09.2-.18.29-.27.09.08.18.17.28.27,0,0,0,0,0,0,0,0,0,.01,0,.02,0,0,0,0,0,.01,0,.02,0,.03-.01.04,0,0,0,0,0,0,0,0,0,0-.02,0h0Zm-.86.26c-.09,0-.16-.07-.16-.16h0s0,0,0,0h0c0-.09.07-.16.16-.16h0s0,0,0,0c.09,0,.16.07.16.16h0c0,.09-.07.16-.16.16h0Zm.16-.49s0,0,0,0c-.05-.02-.1-.03-.16-.03-.02,0-.05,0-.07,0h0s0,0,0,0c0,0-.01,0-.02,0h0s0,0,0,0h0c-.14-.22-.27-.44-.41-.66.07-.02.13-.03.19-.05,0,0,.01.02.02.03.07.1.18.15.29.15.05,0,.1,0,.14-.03.01,0,.02,0,.03,0,0,0,0,0,.01,0,0,0,.01,0,.02.02.09.09.18.19.27.28-.05.05-.11.11-.16.17-.04.04-.08.08-.12.12,0,0-.02,0-.03,0Zm-1.36-.48s0-.03.01-.04c0,0,.01-.01.03-.02.14-.03.27-.07.4-.1h0s0,0,0,0c0,0,.01,0,.02,0h0s0,0,0,0h0c.14.22.28.45.42.67-.27-.15-.54-.3-.8-.45-.02-.01-.04-.02-.06-.03-.01,0-.03-.01-.03-.02,0,0,0,0,0,0,0,0,0,0,0,0,0,0,0,0,0,0Zm1.35-3.89s0,0,.01,0,.01,0,.01,0c0,0,0,0,0,0,.1.09.19.18.29.27-.11.12-.2.22-.3.31h0s-.01,0-.02,0h0c-.06-.02-.12-.03-.17-.03-.06,0-.11.02-.16.05-.05.03-.09.07-.14.13-.03,0-.07-.02-.1-.03-.03,0-.06-.01-.09-.02.08-.13.16-.26.24-.39.03-.06.07-.11.11-.17.02-.03.03-.06.05-.08.02-.02.04-.03.07-.03.01,0,.03,0,.04,0h0s.02,0,.02,0c.02,0,.04,0,.07-.01.02,0,.04-.01.06-.02h0Zm.75-.17c-.09.1-.19.2-.28.29-.1-.09-.2-.18-.29-.27h0s0,0,0-.01h0s0,0,0,0h0s.01-.04.02-.05c0,0,0,0,0,0,0,0,0,0,.01,0h0s.01,0,.02,0c.08,0,.16,0,.25,0s.16,0,.24,0c0,0,0,0,0,0,0,0,.01.01.02.02,0,0,0,.02,0,.03,0,0,0,.01,0,.01Zm.15.15c.06.03.12.05.19.05.03,0,.06,0,.08,0,0,0,0,0,0,0,0,0,0,0,0,0,.14.22.27.43.41.66-.07.02-.13.03-.2.05-.05-.06-.09-.1-.14-.13-.05-.03-.11-.05-.17-.05-.06,0-.12.01-.19.04,0,0,0,0,0,0-.1-.1-.21-.19-.32-.29.11-.12.21-.22.31-.32Zm.19-.47h0s.08.02.11.05c.03.03.05.07.05.11h0c0,.08-.07.16-.16.16h0s-.08-.02-.11-.05c-.03-.03-.05-.07-.05-.11h0c0-.08.07-.16.16-.16h0Zm.69,3.25c-.12-.13-.25-.26-.37-.39,0,0,0,0,0,0h0s.02-.06.04-.07c.02-.01.04-.02.08-.02,0,0,0,0,.01,0,.11,0,.22,0,.33,0,.13,0,.26,0,.39,0h0s0,0,0,0h0s.03,0,.04,0c0,0,0,0,0,.01,0,0,0,.01,0,.02-.17.14-.35.28-.53.43Zm-2.75.15s-.06.07-.1.1c-.08-.12-.15-.24-.22-.36.11.09.21.17.32.26Zm2.69.58h0s0,0,0,0h0s0,0,0,0c-.08-.02-.16-.04-.24-.06h0s-.01-.01-.01-.02c-.01-.02-.02-.05-.02-.06,0-.02,0-.04.02-.06.01-.02.04-.04.06-.06.08-.06.16-.12.23-.19.05.05.1.1.15.15-.06.1-.12.2-.18.29Zm-1.25.42c-.09-.09-.19-.18-.29-.27,0,0,0,0,0,0,0,0,0-.01,0-.02,0-.02.01-.04.02-.05h.53s.03.06.02.07c0,0,0,.01,0,.02,0,.01-.02.02-.04.04-.08.08-.16.15-.23.22Zm-.98-.48s0,0,0,0h0c-.08.03-.15.04-.23.06h0s-.01,0-.02,0c0,0-.01,0,0,0-.06-.09-.11-.17-.16-.26,0,0,0,0,0-.01,0,0,0-.02,0-.02.04-.05.09-.09.13-.14,0,0,0,0,0,0,.11.09.21.17.32.26,0,.04-.02.08-.03.12Zm-.85-1.11s0,0,.01-.01c0,0,.01,0,.01,0,.14,0,.27,0,.41,0s.27,0,.4,0c0,0,0,0,.01,0,0,0,.01.01.02.02,0,.01.02.03.03.05-.12.13-.24.26-.37.39-.1-.08-.19-.15-.28-.23-.08-.06-.16-.13-.23-.19,0,0,0,0,0-.01,0,0,0-.01,0-.01h0Zm0-.28h0c.19-.16.38-.31.58-.47.12.13.24.25.35.37-.02.05-.05.09-.07.13,0,0,0,0-.01.01,0,0-.01,0-.01,0-.13,0-.26,0-.4,0-.14,0-.28,0-.43,0h0s0,0-.01,0c0,0,0-.01,0-.01h0s0-.01,0-.02h0s0,0,0,0Zm1.8-1.59c.1.1.21.19.3.29,0,0,0,0,0,.01,0,0,0,.01,0,.02,0,.02-.01.03-.02.05-.18,0-.35,0-.53,0-.02-.04-.02-.06-.02-.07,0,0,0-.02.01-.03,0-.01.02-.03.05-.05.07-.08.15-.15.21-.22Zm.3.67s-.02.02-.04.04c-.08.08-.16.15-.23.22-.09-.09-.19-.18-.29-.28,0,0,0,0,0,0,0,0,0-.01,0-.02,0-.02.01-.04.02-.05h.53s.03.06.02.07c0,0,0,.01,0,.02Zm-.57-.01h0s0,0,0,0Zm-.32-.03h0c-.08,0-.16-.07-.16-.16h0s0,0,0,0c0-.08.07-.16.16-.16h0s0,0,0,0h0c.09,0,.16.07.16.16h0c0,.09-.07.16-.16.16Zm0,1.26h0c-.08,0-.16-.07-.16-.16h0s0,0,0,0c0-.08.07-.16.16-.16h0s0,0,0,0h0c.08,0,.16.07.16.16h0c0,.09-.07.16-.16.16Zm0,1.26c-.08,0-.16-.07-.16-.16h0c0-.09.07-.16.16-.16h0s0,0,0,0c.09,0,.16.07.16.16h0c0,.09-.07.16-.16.16h0Zm.18-.49s0,0-.02,0h0s0,0,0,0c-.05-.02-.11-.04-.16-.04-.07,0-.14.02-.21.06-.11-.09-.21-.17-.32-.26.12-.13.24-.25.36-.38.06.03.11.04.17.04.05,0,.11-.01.16-.04h0s0,0,0,0h0s0,0,0,0h0s0,0,0,0c.1.1.19.2.29.3-.1.1-.19.2-.29.3Zm.44-1.38c.09.08.19.17.28.27,0,0,0,0,0,0,0,0,0,.01,0,.02,0,0,0,0,0,.01h0s0,.03-.01.04c0,0,0,0,0,0,0,0,0,0-.02,0h0c-.16,0-.33,0-.49,0h0s0,0-.01,0h0s0,0,0,0h0s-.01-.03-.02-.03c0,0,0-.02,0-.02,0,0,0,0,0-.01.1-.09.2-.18.29-.27Zm0,.92c-.09-.09-.19-.18-.28-.27h0s0,0,0,0c0,0,0,0,0-.01h0s0,0,0,0h0s.01-.04.02-.05c0,0,0,0,0-.01,0,0,0,0,.02,0,.08,0,.15,0,.23,0,.09,0,.18,0,.28,0h0s.01.01.02.02c0,.01.01.02.02.03,0,0,0,0,0,.01,0,0,0,0,0,.01h0s0,0,0,0c-.1.09-.19.18-.29.27Zm.29.62h0s0,.02,0,.03c0,.01,0,.02-.01.03,0,0,0,0,0,.01h0s0,0,0,0h0c-.11,0-.21,0-.31,0-.07,0-.13,0-.2,0-.02-.04-.02-.06-.02-.07,0,0,0-.01.01-.03,0-.01.02-.03.04-.05.08-.08.16-.15.23-.22.09.09.19.18.29.28Zm-.72-1.41s0,0,0,0c0,0-.01,0-.01,0-.05-.02-.1-.03-.16-.03-.02,0-.05,0-.07,0h0s0,0,0,0c0,0,0,0-.01,0h0s0,0,0,0h0c-.12-.13-.24-.26-.37-.39.09-.07.17-.14.26-.21.07.04.14.06.21.06.05,0,.11-.01.16-.04h0s0,0,0,0h0c.1.1.19.2.29.3-.1.1-.2.2-.29.3Zm1.05.17h0s0-.02,0-.02v.02c.08,0,.16.07.16.16h0c0,.09-.08.16-.16.16h0s0,0,0,0c-.04,0-.08-.02-.11-.05-.03-.03-.05-.06-.05-.1h0s.02-.09.05-.12c.03-.03.07-.05.11-.05Zm-.15.49s.1.03.15.03c.06,0,.11-.01.17-.04.12.12.24.25.36.38-.11.09-.21.17-.31.25-.07-.04-.14-.06-.21-.06-.05,0-.11.01-.16.04h0s0,0-.01,0c0,0,0,0-.01,0-.1-.09-.2-.18-.3-.28.12-.11.22-.21.33-.31Zm0,.94c0-.09.07-.16.15-.16h0s0,0,0,0h0s.08.02.11.05c.03.03.05.07.05.11,0,.08-.07.15-.15.15h0s-.08-.02-.11-.04c-.03-.03-.05-.06-.05-.1h0Zm.76-2.17c-.09-.07-.17-.14-.26-.21h0s0-.02,0-.03h0s0,0,0,0c0-.05.01-.08.04-.1.02-.02.05-.03.1-.04.03,0,.05,0,.07-.02.02,0,.04-.01.06-.01,0,0,.01,0,.02,0,.01,0,.03.02.04.04.01.02.02.05.04.07.02.03.04.07.07.11-.05.06-.11.11-.16.17Zm-.61-.51h0s0,0,0,0h0c.09,0,.16.07.16.15,0,.08-.07.16-.15.16h0c-.09,0-.16-.07-.16-.15h0s0,0,0,0c0-.08.07-.15.15-.15Zm-.15.49h0c.05.02.11.04.16.04.07,0,.14-.02.21-.06.08.07.17.14.26.21-.11.12-.22.23-.33.35-.01.02-.03.03-.04.03-.01,0-.03.01-.05.01,0,0-.01,0-.02,0h0s-.02,0-.02,0c-.06,0-.12.02-.17.02-.1-.1-.21-.19-.31-.29.1-.1.19-.2.29-.29h0s0,0,0,0c0,0,0,0,.01,0h0s0,0,0,0Zm1.37.8s-.01.01-.02.02c0,0-.01,0-.02,0-.13,0-.26,0-.4,0-.13,0-.27,0-.4,0,0,0-.01,0-.02,0,0,0-.01-.01-.02-.02-.02-.03-.04-.07-.07-.12.11-.12.23-.24.35-.37.02.02.04.03.06.05.17.14.34.27.51.41,0,0,.01.01.02.02h0s0,0,0,0c0,0,0,0,0,0Zm-.45-.64s.08-.08.11-.12c.09.15.18.29.26.43-.13-.1-.25-.2-.38-.31Zm.07-.59c.09-.02.18-.04.27-.07-.06.06-.12.13-.19.2-.03-.04-.05-.09-.08-.13Zm-2.7.06s0,0,.02,0h0s.07.02.1.02c.05,0,.09.02.12.04.03.02.04.05.04.11,0,0,0,.01,0,.02-.08.07-.17.14-.26.21-.06-.06-.11-.11-.16-.17.05-.08.09-.15.14-.23Zm3.06-.4s0,.03-.01.03c0,0-.01.01-.03.01-.14.03-.27.07-.41.1h0s-.01,0-.02,0h0s0,0,0,0h0c-.14-.22-.28-.45-.42-.67.08.04.15.09.23.13.21.12.42.24.64.36.01,0,.02.01.02.02,0,0,0,0,0,.02,0,0,0,0,0,.01Zm-3.2.93c-.13.1-.25.21-.38.31.09-.14.17-.28.27-.43.04.04.08.08.11.12Zm-.07-.59s-.05.09-.08.13c-.06-.07-.12-.13-.19-.2.09.02.17.04.27.07Zm2.9,2.08c.11-.09.22-.17.32-.26-.07.12-.15.24-.22.36-.03-.04-.06-.07-.1-.1Zm-3.24-2.38s0,0-.01-.02c0-.01,0-.02,0-.03,0,0,0,0,0-.01,0,0,.01-.01.02-.01.24-.14.48-.27.71-.4.05-.03.11-.06.16-.09-.14.23-.28.46-.42.69-.15-.04-.3-.07-.45-.11Zm.22,2.82c.04.07.08.13.12.2-.14.03-.27.07-.4.1.09-.1.18-.19.28-.29Zm3.15,0c.09.1.18.19.28.29-.13-.02-.26-.06-.4-.09.04-.07.08-.13.12-.2Zm-3.75-2.65h0s-.08-.02-.11-.05c-.03-.03-.05-.07-.05-.11,0-.08.07-.15.16-.15h0s0,0,0,0c.08,0,.15.07.15.15h0s-.02.08-.05.11c-.03.03-.07.05-.11.05Zm-.16,3.13h0c0-.09.07-.16.16-.15h0c.08,0,.15.07.15.15h0s-.02.08-.05.11c-.03.03-.07.04-.11.04h0c-.08,0-.15-.07-.15-.15Z"/>
        </g>
      </g>
    </mask>
  </defs>
  <g class="cls-3">
    <path class="cls-1" d="m23.89,8.68h-.02c-.23,0-.44-.05-.64-.13-.19-.08-.37-.2-.52-.35-.15-.15-.27-.32-.35-.52-.08-.19-.13-.41-.13-.64h0s0-.8,0-.8h-12.48v.8h0c0,.23-.05.44-.13.64-.08.19-.2.37-.35.52-.15.15-.32.27-.52.35-.19.08-.41.13-.64.13h-.8v8.39s0,0,0,0c0,1.2.24,2.34.68,3.38.44,1.04,1.07,1.97,1.86,2.76h0c.78.78,1.72,1.42,2.76,1.86,1.04.44,2.18.68,3.38.68,1.2,0,2.34-.24,3.38-.68,1.04-.44,1.97-1.07,2.76-1.86h0c.78-.78,1.42-1.72,1.86-2.76.43-1.02.67-2.14.68-3.32h0v-8.46h-.79Z"/>
  </g>
</svg>