<?xml version="1.0" encoding="UTF-8"?>
<svg id="Layer_1" data-name="Layer 1" xmlns="http://www.w3.org/2000/svg" xmlns:xlink="http://www.w3.org/1999/xlink" viewBox="0 0 64 64">
  <defs>
    <style>
      .cls-1 {
        fill: #fff;
      }

      .cls-2 {
        filter: url(#luminosity-noclip);
      }

      .cls-3 {
        mask: url(#mask);
      }
    </style>
    <filter id="luminosity-noclip" x="12.16" y="9.7" width="39.67" height="44.59" color-interpolation-filters="sRGB" filterUnits="userSpaceOnUse">
      <feFlood flood-color="#fff" result="bg"/>
      <feBlend in="SourceGraphic" in2="bg"/>
    </filter>
    <mask id="mask" x="12.16" y="9.7" width="39.67" height="44.59" maskUnits="userSpaceOnUse">
      <g class="cls-2">
        <g>
          <path d="m50,17.11h-.55v17.35c0,4.82-1.95,9.18-5.11,12.34-3.16,3.16-7.52,5.11-12.34,5.11-4.82,0-9.18-1.95-12.34-5.11-3.16-3.16-5.11-7.52-5.11-12.34v-17.35h-.55v.55c1.69,0,3.22-.69,4.33-1.79,1.11-1.11,1.79-2.64,1.79-4.33h-.55v.55h24.87v-.55h-.55c0,1.69.69,3.22,1.79,4.33,1.11,1.11,2.64,1.79,4.33,1.79v-.55h-.55.55v-.55c-1.39,0-2.64-.56-3.55-1.47-.91-.91-1.47-2.16-1.47-3.55v-.55h-25.97v.55c0,1.39-.56,2.64-1.47,3.55-.91.91-2.16,1.47-3.55,1.47h-.55v17.9c0,5.12,2.08,9.76,5.43,13.12,3.36,3.36,8,5.43,13.12,5.43,5.12,0,9.76-2.08,13.12-5.43,3.36-3.36,5.43-8,5.43-13.12v-17.9h-.55v.55Z"/>
          <g>
            <polygon points="31.45 34.45 31.45 52.46 32.55 52.46 32.55 34.45 32 35 31.45 34.45"/>
            <polygon points="32.55 28.23 32.55 11.54 31.45 11.54 31.45 28.23 32 27.68 32.55 28.23"/>
            <polygon points="35.11 31.89 50 31.89 50 30.79 35.11 30.79 35.66 31.34 35.11 31.89"/>
            <polygon points="28.89 30.79 14 30.79 14 31.89 28.89 31.89 28.34 31.34 28.89 30.79"/>
          </g>
          <polygon points="32 35 32.39 34.62 29.12 31.34 32 28.46 34.88 31.34 31.61 34.62 32 35 32.39 34.62 32 35 32.39 35.39 36.44 31.34 32 26.9 27.56 31.34 32 35.78 32.39 35.39 32 35"/>
          <path d="m19.46,17.98h1.21v2.07h.55l-.23-.5c-.93.43-1.71,1.12-2.27,1.97-.55.85-.88,1.87-.88,2.96,0,1.5.61,2.86,1.59,3.84.98.98,2.34,1.59,3.84,1.59,1.5,0,2.86-.61,3.84-1.59.98-.98,1.59-2.34,1.59-3.84,0-1.09-.32-2.11-.88-2.96-.55-.85-1.34-1.53-2.27-1.97l-.23.5h.55v-2.07h1.21v-1.1h-2.32s0,3.52,0,3.52l.32.15c.74.34,1.37.89,1.81,1.57.44.68.7,1.48.7,2.36,0,1.2-.48,2.28-1.27,3.06-.79.78-1.86,1.27-3.06,1.27-1.2,0-2.28-.48-3.06-1.27-.78-.78-1.27-1.86-1.27-3.06,0-.87.26-1.68.7-2.36.44-.68,1.07-1.23,1.81-1.57l.32-.15v-3.52h-2.31v1.1h0Z"/>
          <path d="m18.01,24.87c.37.38.77.65,1.17.83.4.18.82.26,1.22.25.59,0,1.14-.16,1.66-.38.78-.33,1.5-.79,2.18-1.15.34-.18.67-.34.97-.45.31-.11.59-.17.85-.17.27,0,.52.06.79.21.27.15.56.4.86.8l.88-.67c-.38-.5-.78-.86-1.21-1.1-.43-.24-.88-.34-1.32-.34-.57,0-1.1.16-1.6.38-.76.33-1.47.79-2.16,1.15-.34.18-.68.34-1,.45-.32.11-.62.17-.91.17-.26,0-.51-.05-.78-.16-.26-.12-.54-.3-.83-.6l-.78.78h0Z"/>
          <path d="m22.54,22.7c0,.3-.25.55-.55.55s-.55-.25-.55-.55.25-.55.55-.55.55.25.55.55Z"/>
          <path d="m24.44,21.03c0,.26-.21.48-.48.48s-.48-.21-.48-.48.21-.48.48-.48.48.21.48.48Z"/>
          <path d="m24.14,17.97c0,.1-.08.18-.18.18s-.18-.08-.18-.18.08-.18.18-.18.18.08.18.18Z"/>
          <path d="m23.08,19.4c0,.21-.17.38-.38.38s-.38-.17-.38-.38.17-.38.38-.38.38.17.38.38Z"/>
          <path d="m42.77,22.88h-.55c0,.37-.15.7-.39.94-.24.24-.57.39-.94.39-.37,0-.7-.15-.94-.39-.24-.24-.39-.57-.39-.94,0-.37.15-.7.39-.94.24-.24.57-.39.94-.39.37,0,.7.15.94.39.24.24.39.57.39.94h1.1c0-.67-.27-1.28-.71-1.72-.44-.44-1.05-.71-1.72-.71-.67,0-1.28.27-1.72.71-.44.44-.71,1.05-.71,1.72,0,.67.27,1.28.71,1.72.44.44,1.05.71,1.72.71.67,0,1.28-.27,1.72-.71.44-.44.71-1.05.71-1.72h-.55Z"/>
          <path d="m44.53,25.96l-1.76-1.76-.78.78,1.68,1.68c.21-.31.51-.56.86-.7Z"/>
          <path d="m47.12,27.7h-.55c0,.37-.15.7-.39.94-.24.24-.57.39-.94.39-.37,0-.7-.15-.94-.39-.24-.24-.39-.57-.39-.94,0-.37.15-.7.39-.94.24-.24.57-.39.94-.39.37,0,.7.15.94.39.24.24.39.57.39.94h1.1c0-.67-.27-1.28-.71-1.72-.44-.44-1.05-.71-1.72-.71-.67,0-1.28.27-1.72.71-.44.44-.71,1.05-.71,1.72,0,.67.27,1.28.71,1.72.44.44,1.05.71,1.72.71.67,0,1.28-.27,1.72-.71.44-.44.71-1.05.71-1.72h-.55Z"/>
          <path d="m40.89,18.5c-.19,0-.38-.03-.55-.08v2.59h1.1v-2.59c-.17.05-.36.08-.55.08Z"/>
          <path d="m42.77,16.62h-.55c0,.37-.15.7-.39.94-.24.24-.57.39-.94.39-.37,0-.7-.15-.94-.39-.24-.24-.39-.57-.39-.94,0-.37.15-.7.39-.94.24-.24.57-.39.94-.39.37,0,.7.15.94.39.24.24.39.57.39.94h1.1c0-.67-.27-1.28-.71-1.72-.44-.44-1.05-.71-1.72-.71-.67,0-1.28.27-1.72.71-.44.44-.71,1.05-.71,1.72,0,.67.27,1.28.71,1.72.44.44,1.05.71,1.72.71.67,0,1.28-.27,1.72-.71.44-.44.71-1.05.71-1.72h-.55Z"/>
          <path d="m38.28,25.5l1.39-1.18-.71-.84-1.39,1.18c.31.2.56.49.71.84Z"/>
          <path d="m38.43,26.24h-.55c0,.37-.15.7-.39.94-.24.24-.57.39-.94.39-.37,0-.7-.15-.94-.39-.24-.24-.39-.57-.39-.94,0-.37.15-.7.39-.94.24-.24.57-.39.94-.39.37,0,.7.15.94.39.24.24.39.57.39.94h1.1c0-.67-.27-1.28-.71-1.72-.44-.44-1.05-.71-1.72-.71-.67,0-1.28.27-1.72.71-.44.44-.71,1.05-.71,1.72,0,.67.27,1.28.71,1.72.44.44,1.05.71,1.72.71.67,0,1.28-.27,1.72-.71.44-.44.71-1.05.71-1.72h-.55Z"/>
          <g>
            <path d="m33.34,44.41c-.02-1.12.33-2.11,1.15-2.89.75-.71,1.63-.95,2.65-.75.95.19,1.09,1.11.75,1.74-.21.38-.54.63-.92.83-.71.39-1.48.63-2.26.85-.18.05-.24.1-.22.31.06.43.17.83.5,1.14.23.21.51.28.81.24.41-.05.78-.19,1.12-.42.06-.04.13-.07.19-.11.15-.07.29-.05.38.1.09.15.03.28-.08.37-.17.14-.35.26-.54.37-.64.38-1.33.57-2.08.44-.79-.14-1.29-.67-1.42-1.47-.04-.25-.04-.5-.04-.74Zm2.72-3.07c-.2.03-.44.08-.64.25-.6.52-.82,1.21-.9,1.97-.02.14.04.17.16.13.53-.18,1.07-.37,1.56-.65.23-.13.41-.3.53-.54.26-.54-.09-1.15-.71-1.15Z"/>
            <path d="m43.2,36.77c.93.05,1.94,0,2.95,0,.25,0,.5-.03.75-.04.14,0,.25-.07.35-.17.07-.07.14-.13.24-.14.17-.01.25.06.23.23-.03.23-.06.46-.08.7-.01.15-.11.22-.24.19-.25-.05-.5,0-.74-.06-.21-.04-.27.04-.32.21-.19.64-.33,1.29-.46,1.95-.04.19-.06.38-.08.56-.01.1-.03.21.08.28.11.06.18-.03.26-.07.12-.08.21-.18.3-.29.05-.06.11-.11.19-.05.08.06.12.13.07.23-.17.39-.85.83-1.25.82-.3,0-.49-.19-.51-.49-.02-.41.07-.8.16-1.19.13-.57.27-1.14.42-1.71.04-.17.01-.23-.17-.23-.23,0-.46.01-.68,0-.16,0-.24.06-.28.21-.28,1.02-.68,1.99-1.14,2.95-.13.27-.3.42-.6.44-.19.01-.38.04-.57.05-.07,0-.15,0-.19-.09-.03-.08.02-.14.07-.19.06-.06.11-.12.18-.16.58-.34.92-.87,1.17-1.47.21-.5.37-1.02.53-1.54.05-.16,0-.22-.16-.2-.31.05-.61.03-.92.04-.24,0-.33.12-.27.36.03.13.08.27.13.4.04.1.02.17-.07.22-.11.06-.16,0-.21-.09-.19-.3-.32-.63-.36-.98-.05-.45.17-.68.61-.69.18,0,.35,0,.61,0Z"/>
            <path d="m40.77,37.45c-.05.44-.22.94-.35,1.45-.11.45-.22.9-.33,1.34-.02.09-.04.17.05.24.09.07.17,0,.24-.04.15-.09.25-.23.37-.34.06-.05.11-.07.17-.01.05.05.1.1.07.19-.12.35-.87.85-1.26.85-.36,0-.55-.22-.46-.57.2-.83.41-1.65.61-2.47.03-.14.06-.29.07-.43,0-.15-.08-.19-.22-.13-.16.07-.26.21-.38.33-.07.07-.13.18-.25.07-.11-.1-.07-.19,0-.28.22-.27.47-.52.79-.69.17-.09.36-.09.54-.06.25.04.33.19.33.57Z"/>
            <path d="m39.94,35.05c0-.34.33-.65.69-.65s.57.21.57.53c0,.32-.38.69-.69.69-.33,0-.57-.24-.57-.56Z"/>
          </g>
          <path d="m30.48,43.13c-.05-.05-.11-.08-.18-.08-.06,0-.11.02-.16.07-.05.04-.07.1-.07.16,0,.06.02.12.07.17.01.02.03.03.05.05-.16,0-.32,0-.46,0-.02,0-.04,0-.06,0-.01,0-.03,0-.04,0h0s-.06,0-.09,0c-.07,0-.12-.01-.17-.04-.05-.03-.09-.08-.14-.17-.13-.26-.4-.4-.68-.4-.11,0-.22.02-.33.06,0,0-.03,0-.04,0-.01,0-.03,0-.04,0h-.01s0,0,0,0h0c-.22-.23-.44-.46-.66-.69-.01-.01-.02-.02-.03-.04.03-.05.06-.1.09-.15.25-.41.5-.81.75-1.22.01-.02.03-.04.04-.04,0,0,.02,0,.04,0,0,0,.02,0,.03,0,.06.01.11.02.16.02.33,0,.63-.2.76-.52.01-.04.03-.05.04-.06.01,0,.03-.01.07-.01h0s0,0,0,0c.16,0,.32,0,.48,0h.18s.08,0,.12,0c-.02.02-.03.03-.05.05-.04.05-.07.11-.07.17,0,.06.02.11.06.15.05.05.11.08.17.08.05,0,.11-.02.16-.06.14-.13.28-.27.4-.42.05-.06.08-.14.08-.21,0-.09-.04-.18-.11-.26-.11-.12-.23-.24-.35-.36-.05-.05-.12-.08-.18-.08-.06,0-.12.03-.16.07-.04.04-.07.1-.07.16,0,.06.03.12.07.18.01.02.03.03.04.05-.1,0-.18,0-.27,0-.1,0-.2,0-.3,0-.07,0-.15,0-.22,0h0s-.04,0-.06-.01c-.01,0-.02-.02-.03-.05-.14-.34-.44-.54-.78-.54-.05,0-.1,0-.16.01h0s-.03,0-.05-.01c-.02,0-.03-.02-.03-.02-.32-.51-.63-1.02-.95-1.53.22-.24.45-.47.67-.71.22.11.42.18.59.18.16,0,.31-.05.43-.16.12-.1.22-.24.31-.43h.85s-.03.03-.04.05c-.05.05-.07.11-.07.17,0,.05.02.11.06.15.05.05.11.08.17.08.06,0,.12-.02.16-.07.13-.13.27-.26.39-.4.06-.07.09-.15.09-.23,0-.09-.03-.17-.1-.24-.12-.13-.24-.26-.37-.38-.05-.05-.11-.08-.18-.08-.06,0-.12.02-.16.07-.05.04-.07.1-.07.16,0,.06.02.12.07.17.02.02.03.04.05.06-.04,0-.07,0-.1,0-.03,0-.06,0-.09,0-.1,0-.21,0-.31,0s-.2,0-.3,0c0,0-.03,0-.04-.01h-.02s0-.02,0-.02c-.11-.34-.44-.57-.8-.57-.2,0-.41.07-.59.24-.71-.4-1.42-.8-2.12-1.2h0s-.01-.02-.02-.03c0-.01,0-.03,0-.03h0s0,0,0,0c0-.04,0-.08,0-.12,0-.39-.24-.72-.61-.82-.08-.02-.15-.03-.23-.03-.34,0-.64.2-.78.54-.01.03-.02.04-.03.05,0,0-.02.01-.05.01h0c-.18,0-.36,0-.54,0-.18,0-.35,0-.53,0h0s0,0,0,0h0s-.05,0-.06-.01c-.01,0-.02-.02-.04-.06-.07-.16-.17-.29-.3-.38-.13-.09-.28-.14-.46-.15h0s0,0,0,0c0,0,0,0,0,0h0s-.02,0-.02,0c-.08,0-.14.02-.19.06-.05.04-.08.1-.08.17h0s0,0,0,0h0,0c0,.08.03.14.08.18.05.04.12.06.19.07.19.01.34.15.36.32,0,.01,0,.03,0,.04,0,.16-.1.3-.27.35-.03,0-.06.01-.1.01-.09,0-.18-.04-.25-.11-.07-.07-.11-.16-.11-.26,0-.02,0-.04,0-.06,0-.03,0-.06,0-.09,0-.04,0-.07-.02-.11-.02-.03-.04-.07-.08-.09-.04-.03-.09-.04-.14-.04-.05,0-.1.02-.14.05-.04.03-.07.08-.08.13-.02.11,0,.22-.02.32,0,.02,0,.05-.01.07,0,0,0,.02-.01.02h0c-.7.41-1.41.8-2.09,1.19-.14-.07-.27-.16-.43-.2-.07-.02-.13-.02-.2-.02-.36,0-.68.24-.79.61,0,.02-.02.05-.03.08h0v.02c0,.09,0,.19,0,.28h0s0,.02,0,.02c.01.03.02.05.03.08.12.37.45.6.8.6.17,0,.34-.05.49-.16.01,0,.03-.02.04-.03.11.12.22.23.33.35.11.12.23.24.34.36-.26.42-.51.83-.77,1.24-.02.03-.04.05-.06.09-.04.08-.07.14-.12.18-.05.04-.1.06-.19.06-.02,0-.05,0-.07,0h0s-.05,0-.08,0c-.16,0-.31.06-.43.16-.12.1-.22.23-.27.38-.02.05-.03.1-.05.14h0c0,.1,0,.19,0,.27h0s0,.02,0,.02c.05.1.08.23.15.33.17.23.39.36.66.36.05,0,.11,0,.17-.01h0s.03,0,.04,0c.02,0,.03,0,.04,0,0,0,.02.02.03.04.27.44.54.89.82,1.33.02.02.02.04.02.05v.02s-.02.02-.03.03c-.22.22-.43.45-.64.68-.01.01-.02.02-.03.03,0,0-.01,0-.02,0,0,0-.02,0-.04,0-.12-.05-.24-.07-.35-.07-.18,0-.35.06-.49.17-.14.11-.24.27-.3.46,0,0,0,.02-.02.03h0v.02c0,.09,0,.19,0,.28h0s0,.02,0,.02c.01.03.02.05.03.07.11.39.45.62.81.62.19,0,.38-.06.54-.2.01-.01.03-.02.04-.04.2.11.4.22.6.34.5.28.99.56,1.49.84.02.01.04.02.05.03,0,0,.01.01.01.04v.02s-.01.1-.01.14c0,.2.06.37.17.51.11.14.27.24.47.3,0,0,.02,0,.04.02h0s.01,0,.01,0h.3c.18-.07.36-.14.48-.31.01-.02.03-.03.05-.06.02-.02.03-.05.04-.08.02-.08.05-.11.08-.13.04-.02.09-.03.15-.03.02,0,.03,0,.05,0,.12,0,.25,0,.37,0,.14,0,.27,0,.41,0,.05,0,.09,0,.14,0,.01,0,.04,0,.06,0,0,0,.02,0,.02,0h0c.06.16.14.28.26.37.11.1.25.16.4.21h0s0,0,0,0h.25s.09-.06.12-.1c.03-.04.05-.09.05-.14,0-.02,0-.05-.01-.08-.02-.07-.06-.12-.11-.14-.05-.02-.11-.03-.16-.03-.2,0-.36-.18-.36-.36v-.02c.01-.19.18-.34.35-.34h.02c.19.01.34.18.34.39v.02s0,0,0,0c0,.01,0,.02,0,.03,0,.08.01.15.05.2.04.05.1.08.16.08h0s.02,0,.02,0c.07,0,.13-.03.18-.08.04-.05.06-.12.07-.21h0s0-.04,0-.07c0-.02,0-.04,0-.05-.01-.03-.01-.05-.01-.07,0-.03.01-.05.04-.07.02-.02.06-.04.11-.07.67-.37,1.34-.75,2.02-1.13.17.14.36.24.58.24.04,0,.09,0,.14-.01.15-.03.29-.08.39-.17.11-.09.19-.2.25-.34.02-.04.03-.06.04-.07.01,0,.03-.01.07-.01h0s0,0,0,0c.13,0,.25,0,.38,0s.26,0,.39,0c-.02.02-.03.04-.05.05-.05.05-.07.11-.07.17,0,.05.02.11.06.15.04.05.11.08.17.08.06,0,.12-.02.17-.07.14-.13.27-.26.39-.41.05-.06.08-.14.08-.22,0-.09-.04-.18-.1-.25-.12-.13-.24-.25-.36-.37Zm-1.95.97h0c-.1,0-.19-.04-.25-.1-.07-.06-.11-.15-.11-.25h0c0-.21.16-.36.36-.36h0s0,0,0,0c.2,0,.35.16.35.35,0,.2-.16.35-.35.35Zm-10.19-3.87c-.07-.07-.11-.16-.11-.24h0c0-.1.05-.19.11-.25.07-.07.15-.11.24-.11h.01s0,0,0,0c.09,0,.18.05.24.11.07.07.11.15.11.24,0,.09-.04.18-.11.25-.07.07-.16.11-.25.11h0c-.09,0-.18-.04-.24-.11Zm10.19-4.36h0c.2,0,.35.16.35.35,0,.2-.16.35-.35.36h0c-.2,0-.35-.15-.36-.35h0s0-.01,0-.01c0-.1.04-.18.11-.25.06-.06.15-.1.25-.1Zm.36,4.11h0c0,.19-.17.36-.35.36h0c-.09,0-.18-.04-.25-.11-.07-.07-.11-.16-.11-.25h0s0,0,0,0c0-.09.04-.18.11-.25.07-.07.15-.11.25-.11h0c.19,0,.35.17.35.36Zm-1.21,3.96h0c-.67.38-1.35.76-2.02,1.14.05-.09.11-.18.16-.27.26-.42.52-.83.77-1.25.01-.02.02-.03.03-.04,0,0,.01,0,.03,0,0,0,.02,0,.04,0,.32.08.64.16.96.23.03,0,.04.02.04.02,0,0,0,.02,0,.04v.02s0,.05-.01.07c0,.01,0,.02,0,.02h0Zm-3.09,1.05s-.02,0-.02,0h0s0,0,0,0c-.24-.22-.47-.44-.71-.66,0-.02,0-.03,0-.05.23-.21.46-.42.69-.63,0-.01.04-.02.06-.02h0c.15.05.29.08.41.08.14,0,.26-.03.37-.11.11-.07.21-.17.31-.3.14.03.29.07.44.11,0,.02-.02.04-.03.05-.29.47-.59.95-.88,1.42-.01.02-.03.04-.04.05-.01,0-.02.01-.04.01,0,0-.02,0-.04,0-.05-.01-.1-.02-.16-.02-.12,0-.23.03-.34.08h0s-.02,0-.03,0Zm-.47.52c-.37,0-.75,0-1.12,0h0s-.02,0-.03-.02c-.01-.01-.02-.03-.03-.04-.01-.03-.03-.05-.04-.07-.01-.02-.02-.03-.02-.04,0,0,0-.01.02-.03.23-.21.45-.42.66-.62.2.19.42.4.63.61,0,0,0,0,0,.02,0,.01,0,.02,0,.04,0,.01,0,.02,0,.02-.02.04-.02.08-.03.1,0,.01-.01.02-.02.02,0,0-.02,0-.04,0h0Zm-1.97.6c-.19,0-.36-.17-.36-.36h0s0,0,0,0h0c0-.2.17-.36.36-.36h0s0,0,0,0c.19,0,.36.17.36.36h0c0,.2-.17.36-.36.36h0Zm.37-1.13s-.02,0-.02,0c-.12-.05-.24-.07-.36-.07-.05,0-.11,0-.17.02h0s0,0,0,0c0,0-.02,0-.04,0h-.01s0,0,0,0h0c-.31-.5-.62-1-.94-1.51.15-.04.3-.07.45-.11.02.02.03.05.05.07.16.22.41.35.67.35.11,0,.22-.02.33-.07.03-.01.04-.02.06-.02.01,0,.02,0,.03,0,.01,0,.03.02.04.04.2.22.41.43.62.64-.12.13-.25.25-.37.38-.09.1-.18.19-.28.28,0,0-.04.02-.06.02Zm-3.11-1.1s.02-.07.03-.09c.01-.02.03-.03.08-.04.31-.06.61-.15.92-.22h0s.01,0,.01,0c.01,0,.03,0,.04,0h.02s0,.01,0,.01h0c.32.51.64,1.02.95,1.54-.62-.35-1.23-.69-1.84-1.03-.05-.03-.09-.05-.13-.07-.03-.02-.06-.03-.08-.04,0,0-.01,0-.01-.01,0,0,0,0,0-.02,0,0,0-.01,0-.02Zm3.08-8.89s.02,0,.03,0,.02,0,.03,0c0,0,.01,0,.01,0,.22.2.44.41.67.62-.25.26-.47.49-.69.72h0s-.03.01-.04.01h-.01c-.14-.05-.27-.07-.39-.07-.14,0-.26.03-.38.11-.11.07-.21.17-.31.3-.08-.02-.16-.04-.24-.06-.07-.02-.14-.03-.21-.05.19-.3.37-.6.55-.89.08-.13.17-.25.24-.4.04-.07.07-.14.12-.18.04-.04.09-.06.16-.06.03,0,.06,0,.1.01h0s.04,0,.05,0c.05,0,.1-.02.15-.03.05-.02.09-.03.13-.04h0Zm1.71-.38c-.21.23-.43.46-.63.67-.23-.21-.45-.42-.66-.62h0s0-.02,0-.03v-.02s0,0,0,0h0s.02-.08.03-.11c0-.01,0-.02.01-.02,0,0,.01,0,.03,0h0s.03,0,.04,0c.19,0,.38,0,.57,0s.36,0,.54,0c0,0,.01,0,.02,0,.01,0,.03.03.04.05.01.02.02.04.02.06,0,.02,0,.03,0,.03Zm.34.33c.14.07.28.12.44.12.06,0,.13,0,.19-.02,0,0,.01,0,.02,0,.01,0,.02.02.02.02.31.5.62.99.93,1.51-.16.04-.3.07-.45.11-.1-.13-.21-.23-.32-.3-.12-.07-.24-.11-.38-.11-.13,0-.27.03-.42.09,0,0-.01,0-.01-.01-.24-.22-.48-.44-.72-.67.25-.27.48-.5.7-.73Zm.43-1.08h0c.1,0,.18.04.25.11.07.07.11.16.11.25h0c0,.19-.17.36-.36.36h0c-.09,0-.18-.04-.25-.11-.07-.07-.11-.16-.11-.25h0c0-.19.17-.36.36-.36h0Zm1.57,7.43c-.28-.3-.56-.59-.84-.89,0,0,0,0,0,0h0c.02-.09.05-.13.09-.15.04-.03.1-.04.18-.03,0,0,.02,0,.03,0,.25,0,.5,0,.75,0,.29,0,.59,0,.88,0h0s0,0,0,0h0s.08,0,.09.02c0,0,.01.01.02.03,0,0,0,.02,0,.04-.4.32-.8.65-1.22.98Zm-6.28.35c-.07.08-.15.15-.22.23-.17-.28-.34-.55-.51-.83.24.2.49.39.74.6Zm6.15,1.31h-.01s-.02.01-.02.01h0s0,0,0,0c-.18-.04-.36-.08-.54-.13h0s-.03-.03-.03-.05c-.03-.06-.04-.11-.04-.15,0-.05.02-.1.05-.14.03-.04.08-.09.15-.13.19-.13.36-.28.54-.43.11.11.22.23.33.35-.14.23-.27.45-.41.67Zm-2.85.96c-.21-.2-.44-.41-.66-.62,0,0,0,0,0-.01,0-.01,0-.03,0-.04.01-.04.03-.08.05-.13h1.2c.04.08.06.13.06.15,0,.02,0,.03-.02.05-.02.02-.05.06-.1.1-.18.18-.37.34-.54.5Zm-2.25-1.11s0,0-.01.02h-.02c-.17.06-.34.1-.52.14h0s-.02,0-.04,0c-.01,0-.02-.01-.02-.02-.13-.2-.26-.4-.37-.61,0,0,0-.01,0-.03,0-.02,0-.05.01-.05.09-.11.19-.21.3-.32,0,0,0,0,.01,0,.24.2.49.39.73.59-.02.09-.04.18-.06.27Zm-1.93-2.53s.02-.02.03-.03c.01-.01.03-.02.03-.02.31,0,.62,0,.93,0s.61,0,.92,0c0,0,.02,0,.03.02.02.01.03.03.04.04.02.03.04.07.06.12-.28.3-.56.59-.84.89-.22-.18-.43-.35-.65-.52-.18-.14-.36-.29-.53-.43,0,0-.01-.01-.02-.03,0-.01,0-.03,0-.03h0Zm.01-.63h0c.44-.36.88-.71,1.33-1.08.28.29.54.57.8.85-.06.11-.1.2-.16.29,0,0-.02.02-.03.03-.01,0-.03.01-.03.01-.3,0-.6,0-.91,0-.32,0-.65,0-.97,0h0s-.02,0-.03-.02c-.01-.01-.02-.02-.02-.03h0s0-.03,0-.04h0s0-.02,0-.02Zm4.12-3.63c.24.22.47.44.7.66,0,0,0,.01,0,.03,0,.01,0,.03,0,.04,0,.04-.03.08-.05.12-.4,0-.8,0-1.2,0-.04-.08-.06-.13-.05-.16,0-.02,0-.04.03-.06.02-.03.05-.06.1-.12.17-.18.33-.35.48-.5Zm.68,1.54s-.05.06-.1.1c-.18.18-.37.35-.53.5-.21-.2-.44-.41-.66-.63,0,0,0,0,0-.02,0-.01,0-.03,0-.04.01-.04.03-.08.05-.13h1.2c.04.08.06.13.06.16,0,.02,0,.03-.02.05Zm-1.29-.03h0s0,0,0,0Zm-.74-.06h0c-.19,0-.36-.17-.37-.36h0s0,0,0,0c0-.19.16-.36.36-.36h0s0,0,0,0h0c.2,0,.36.16.36.36h0c0,.2-.16.36-.36.37Zm0,2.88h0c-.19,0-.36-.17-.36-.36h0s0,0,0,0c0-.19.17-.36.36-.36h0s0,0,0,0h0c.19,0,.36.17.36.36h0c0,.2-.16.37-.36.37Zm0,2.88c-.19,0-.36-.17-.36-.36h0c0-.2.17-.36.36-.36h0s0,0,0,0c.2,0,.36.17.36.36h0c0,.2-.16.36-.36.36h0Zm.42-1.12s-.02.01-.04,0h0s0,0,0,0c-.12-.05-.24-.08-.36-.08-.16,0-.32.05-.48.15-.24-.2-.48-.39-.72-.58.28-.29.55-.58.82-.86.13.06.25.09.38.09.12,0,.24-.03.37-.08h0s0,0,0,0h.01s.02,0,.02,0h0s0,0,0,0c.22.22.44.45.67.68-.23.23-.44.46-.66.68Zm1-3.17c.2.19.42.4.64.61,0,0,0,0,0,.02,0,.01,0,.02,0,.04,0,.01,0,.02,0,.02h0s-.02.08-.03.1c0,.01,0,.02-.02.02,0,0-.02,0-.04,0h0c-.38,0-.75,0-1.12,0h0s-.02,0-.03-.02v-.02s-.02,0-.02,0h0s-.03-.06-.04-.08c-.01-.02-.02-.04-.02-.04,0,0,0-.01.02-.03.22-.21.45-.42.66-.62Zm0,2.1c-.21-.19-.43-.4-.65-.61h0s0,0,0-.02c0,0,0-.02,0-.03h0s0,0,0,0h0s.03-.09.04-.11c0-.01,0-.02.01-.02,0,0,.01,0,.03,0,.17,0,.34,0,.51,0,.21,0,.42,0,.63,0h0s.02.03.04.05c.01.02.03.05.04.07,0,0,0,.01,0,.03,0,0,0,.02,0,.02h0s0,0,0,0c-.22.21-.44.42-.65.62Zm.65,1.41h0s0,.04-.01.07c0,.03-.02.05-.03.08,0,0,0,.02-.02.02h-.02s0,.01,0,.01h0c-.24,0-.48,0-.72,0-.15,0-.3,0-.45,0-.04-.08-.06-.13-.05-.16,0-.02,0-.03.02-.06.02-.03.05-.06.1-.1.18-.17.36-.34.52-.5.22.2.44.41.66.63Zm-1.65-3.21s-.01,0-.02,0c-.01,0-.03,0-.03,0-.12-.05-.24-.08-.36-.08-.05,0-.11,0-.16.02h0s-.01,0-.01,0c0,0-.02,0-.03,0h0s0,0,0,0h0c-.28-.29-.56-.59-.84-.89.2-.16.39-.32.59-.47.15.09.31.15.48.15.12,0,.25-.03.37-.09h0s.02,0,.02,0h.01c.22.23.44.45.66.69-.23.23-.45.46-.67.68Zm2.41.4h0s0-.04,0-.04v.04c.19,0,.36.17.36.36h0c0,.2-.17.36-.36.36h0s0,0,0,0c-.09,0-.18-.04-.24-.11-.07-.06-.11-.15-.11-.23h0c0-.11.04-.21.11-.28.06-.07.15-.11.25-.11Zm-.35,1.12c.11.05.22.08.34.08.13,0,.26-.03.39-.09.27.28.54.57.82.86-.24.2-.48.39-.72.58-.15-.09-.31-.15-.48-.15-.12,0-.25.03-.37.09h0s-.02,0-.03,0c-.01,0-.02-.01-.02-.01-.23-.21-.46-.42-.69-.63.27-.26.51-.48.76-.72Zm0,2.14c0-.21.16-.37.35-.38h0s0,0,0,0h0c.1,0,.19.04.26.1.07.06.11.15.11.25,0,.19-.16.35-.35.35h0c-.09,0-.18-.04-.25-.1-.07-.06-.11-.14-.11-.23h0Zm1.75-4.97c-.2-.16-.4-.32-.59-.48h0s-.01-.04-.01-.06h0s0,0,0,0c0-.11.03-.17.08-.22.05-.05.12-.07.23-.08.06,0,.11-.02.17-.04.05-.02.1-.03.13-.03.01,0,.03,0,.04,0,.03,0,.06.05.09.1.03.05.06.11.09.17.05.08.1.16.15.25-.12.13-.25.26-.37.4Zm-1.4-1.17h0s0,0,0,0h0c.2,0,.36.16.36.35,0,.19-.16.35-.35.36h0c-.2,0-.35-.15-.36-.35h0s0,0,0,0c0-.19.16-.35.35-.35Zm-.35,1.11h0c.12.05.24.08.36.08.16,0,.32-.05.48-.15.19.15.39.31.59.47-.25.27-.5.53-.75.79-.03.04-.06.06-.09.08-.03.02-.06.02-.11.02-.01,0-.02,0-.04,0h0s-.04,0-.06,0c-.14,0-.27.04-.38.06-.24-.22-.48-.44-.72-.67.22-.23.44-.45.66-.67h0s0,0,.02,0c0,0,.02,0,.03,0h0s0,0,0,0Zm3.14,1.83s-.03.03-.05.04c-.02.01-.03.02-.04.02-.3,0-.6,0-.91,0-.31,0-.61,0-.92,0,0,0-.02,0-.04-.02-.02-.01-.03-.03-.04-.04-.05-.08-.1-.17-.15-.27.26-.28.53-.56.8-.85.05.04.1.07.14.11.39.31.78.63,1.16.94.02.01.03.03.04.04h0s0,.01,0,.01c0,0,0,0-.01.02Zm-1.02-1.46c.09-.09.17-.18.26-.28.21.33.41.66.61.98-.29-.23-.57-.46-.87-.7Zm.16-1.35c.21-.05.41-.1.61-.15-.14.14-.28.29-.42.45-.06-.1-.12-.2-.18-.3Zm-6.18.14s.02,0,.03,0h0c.07.01.15.04.24.05.12.01.21.04.27.09.06.05.1.12.1.24,0,.02,0,.03,0,.05-.19.15-.39.32-.6.49-.13-.14-.25-.26-.37-.39.11-.17.21-.35.32-.52Zm7-.91s-.02.06-.03.07c-.01.01-.03.02-.07.03-.31.07-.62.15-.93.22h-.01s-.03,0-.04,0h-.02s0,0,0,0h0c-.32-.51-.64-1.02-.96-1.54.18.1.35.2.53.3.49.27.97.55,1.46.82.03.01.05.03.06.04,0,.01.01.02.01.04,0,0,0,.02,0,.03Zm-7.32,2.12c-.29.24-.58.47-.87.7.2-.32.4-.65.61-.98.09.09.17.18.26.28Zm-.16-1.35c-.06.1-.12.2-.18.3-.14-.15-.29-.3-.42-.45.2.05.4.1.61.15Zm6.63,4.76c.25-.2.49-.4.73-.59-.17.27-.34.55-.51.83-.08-.08-.15-.16-.22-.23Zm-7.4-5.44s-.02-.02-.03-.05c0-.02-.02-.05-.02-.07,0,0,0-.02.02-.03.01-.01.03-.03.04-.03.54-.31,1.09-.61,1.63-.92.12-.07.24-.14.37-.2-.32.52-.65,1.04-.97,1.57-.35-.09-.69-.17-1.03-.26Zm.49,6.45c.09.15.18.3.28.45-.31.08-.61.15-.91.22.21-.22.41-.44.63-.67Zm7.21,0c.21.23.42.45.63.67-.3-.06-.59-.14-.91-.22.1-.15.18-.3.28-.45Zm-8.57-6.06h0c-.1,0-.18-.04-.25-.11-.07-.06-.11-.15-.11-.25,0-.19.16-.35.36-.35h0s0,0,0,0c.19,0,.35.16.35.34h0c0,.1-.04.18-.11.25-.07.06-.15.11-.25.11Zm-.36,7.16h0c0-.2.17-.35.36-.35h0c.19,0,.35.17.35.35h0c0,.1-.04.18-.1.25-.06.06-.15.1-.25.1h0c-.19,0-.35-.16-.35-.34Z"/>
        </g>
      </g>
    </mask>
  </defs>
  <g class="cls-3">
    <path class="cls-1" d="m50.04,15.27h-.04c-.52,0-1.01-.1-1.45-.29-.45-.19-.85-.46-1.19-.8-.34-.34-.61-.74-.8-1.19-.19-.45-.29-.93-.29-1.45h0s0-1.83,0-1.83h-28.54v1.83h0c0,.52-.1,1.01-.29,1.45-.19.44-.46.85-.8,1.19-.34.34-.74.61-1.19.8-.45.19-.93.29-1.45.29h-1.83v19.19s0,0,0,0c0,2.73.56,5.35,1.56,7.72,1,2.37,2.46,4.51,4.25,6.3h0c1.79,1.79,3.93,3.25,6.3,4.25,2.37,1,4.99,1.56,7.72,1.56,2.73,0,5.35-.56,7.72-1.56,2.37-1,4.51-2.46,6.3-4.25h0c1.79-1.79,3.25-3.93,4.25-6.3.99-2.33,1.54-4.9,1.56-7.58h0V15.27h-1.8Z"/>
  </g>
</svg>