<?xml version="1.0" encoding="UTF-8"?>
<svg id="Layer_1" data-name="Layer 1" xmlns="http://www.w3.org/2000/svg" xmlns:xlink="http://www.w3.org/1999/xlink" viewBox="0 0 16 16">
  <defs>
    <style>
      .cls-1 {
        filter: url(#luminosity-noclip);
      }

      .cls-2 {
        mask: url(#mask);
      }

      .cls-3 {
        fill: #387951;
      }
    </style>
    <filter id="luminosity-noclip" x="2.46" y="1.77" width="11.08" height="12.46" color-interpolation-filters="sRGB" filterUnits="userSpaceOnUse">
      <feFlood flood-color="#fff" result="bg"/>
      <feBlend in="SourceGraphic" in2="bg"/>
    </filter>
    <mask id="mask" x="2.46" y="1.77" width="11.08" height="12.46" maskUnits="userSpaceOnUse">
      <g class="cls-1">
        <g>
          <path d="m13.03,3.84h-.15v4.85c0,1.35-.55,2.56-1.43,3.45-.88.88-2.1,1.43-3.45,1.43-1.35,0-2.56-.55-3.45-1.43-.88-.88-1.43-2.1-1.43-3.45V3.84h-.15v.15c.47,0,.9-.19,1.21-.5.31-.31.5-.74.5-1.21h-.15v.15h6.95v-.15h-.15c0,.47.19.9.5,1.21.31.31.74.5,1.21.5v-.15h-.15.15v-.15c-.39,0-.74-.16-.99-.41-.25-.25-.41-.6-.41-.99v-.15h-7.25v.15c0,.39-.16.74-.41.99-.25.25-.6.41-.99.41h-.15v5c0,1.43.58,2.73,1.52,3.66.94.94,2.23,1.52,3.66,1.52,1.43,0,2.73-.58,3.66-1.52.94-.94,1.52-2.23,1.52-3.66V3.69h-.15v.15Z"/>
          <g>
            <polygon points="7.85 8.69 7.85 13.72 8.15 13.72 8.15 8.69 8 8.84 7.85 8.69"/>
            <polygon points="8.15 6.95 8.15 2.28 7.85 2.28 7.85 6.95 8 6.79 8.15 6.95"/>
            <polygon points="8.87 7.97 13.03 7.97 13.03 7.66 8.87 7.66 9.02 7.82 8.87 7.97"/>
            <polygon points="7.13 7.66 2.97 7.66 2.97 7.97 7.13 7.97 6.98 7.82 7.13 7.66"/>
          </g>
          <polygon points="8 8.84 8.11 8.73 7.19 7.82 8 7.01 8.81 7.82 7.89 8.73 8 8.84 8.11 8.73 8 8.84 8.11 8.95 9.24 7.82 8 6.58 6.76 7.82 8 9.06 8.11 8.95 8 8.84"/>
          <path d="m4.5,4.08h.34v.58h.15l-.06-.14c-.26.12-.48.31-.63.55-.15.24-.24.52-.24.83,0,.42.17.8.44,1.07.27.27.65.44,1.07.44.42,0,.8-.17,1.07-.44.27-.27.44-.65.44-1.07,0-.3-.09-.59-.24-.83-.15-.24-.37-.43-.63-.55l-.06.14h.15v-.58h.34v-.31h-.65s0,.98,0,.98l.09.04c.21.1.38.25.5.44.12.19.19.41.19.66,0,.33-.14.64-.35.85-.22.22-.52.35-.85.35-.33,0-.64-.14-.86-.35-.22-.22-.35-.52-.35-.85,0-.24.07-.47.19-.66.12-.19.3-.34.5-.44l.09-.04v-.98h-.65v.31h0Z"/>
          <path d="m4.09,6.01c.1.1.21.18.33.23.11.05.23.07.34.07.16,0,.32-.04.46-.11.22-.09.42-.22.61-.32.09-.05.19-.09.27-.12.09-.03.16-.05.24-.05.08,0,.15.02.22.06.07.04.16.11.24.22l.24-.19c-.11-.14-.22-.24-.34-.31-.12-.07-.25-.1-.37-.1-.16,0-.31.05-.45.11-.21.09-.41.22-.6.32-.1.05-.19.09-.28.12-.09.03-.17.05-.25.05-.07,0-.14-.01-.22-.05-.07-.03-.15-.08-.23-.17l-.22.22h0Z"/>
          <path d="m5.36,5.4c0,.08-.07.15-.15.15s-.15-.07-.15-.15.07-.15.15-.15.15.07.15.15Z"/>
          <path d="m5.89,4.94c0,.07-.06.13-.13.13s-.13-.06-.13-.13.06-.13.13-.13.13.06.13.13Z"/>
          <path d="m5.8,4.08s-.02.05-.05.05-.05-.02-.05-.05.02-.05.05-.05.05.02.05.05Z"/>
          <path d="m5.51,4.48c0,.06-.05.11-.11.11s-.11-.05-.11-.11.05-.11.11-.11.11.05.11.11Z"/>
          <path d="m11.01,5.45h-.15c0,.1-.04.19-.11.26-.07.07-.16.11-.26.11-.1,0-.19-.04-.26-.11-.07-.07-.11-.16-.11-.26,0-.1.04-.19.11-.26.07-.07.16-.11.26-.11.1,0,.19.04.26.11.07.07.11.16.11.26h.31c0-.19-.08-.36-.2-.48-.12-.12-.29-.2-.48-.2-.19,0-.36.08-.48.2-.12.12-.2.29-.2.48,0,.19.08.36.2.48.12.12.29.2.48.2.19,0,.36-.08.48-.2.12-.12.2-.29.2-.48h-.15Z"/>
          <path d="m11.5,6.31l-.49-.49-.22.22.47.47c.06-.09.14-.16.24-.2Z"/>
          <path d="m12.22,6.8h-.15c0,.1-.04.19-.11.26-.07.07-.16.11-.26.11-.1,0-.19-.04-.26-.11-.07-.07-.11-.16-.11-.26,0-.1.04-.19.11-.26.07-.07.16-.11.26-.11.1,0,.19.04.26.11.07.07.11.16.11.26h.31c0-.19-.08-.36-.2-.48-.12-.12-.29-.2-.48-.2-.19,0-.36.08-.48.2-.12.12-.2.29-.2.48,0,.19.08.36.2.48.12.12.29.2.48.2.19,0,.36-.08.48-.2.12-.12.2-.29.2-.48h-.15Z"/>
          <path d="m10.48,4.23c-.05,0-.11,0-.15-.02v.72h.31v-.72s-.1.02-.15.02Z"/>
          <path d="m11.01,3.7h-.15c0,.1-.04.19-.11.26-.07.07-.16.11-.26.11-.1,0-.19-.04-.26-.11-.07-.07-.11-.16-.11-.26,0-.1.04-.19.11-.26.07-.07.16-.11.26-.11.1,0,.19.04.26.11.07.07.11.16.11.26h.31c0-.19-.08-.36-.2-.48-.12-.12-.29-.2-.48-.2-.19,0-.36.08-.48.2-.12.12-.2.29-.2.48,0,.19.08.36.2.48.12.12.29.2.48.2.19,0,.36-.08.48-.2.12-.12.2-.29.2-.48h-.15Z"/>
          <path d="m9.75,6.18l.39-.33-.2-.23-.39.33c.09.06.16.14.2.23Z"/>
          <path d="m9.8,6.39h-.15c0,.1-.04.19-.11.26-.07.07-.16.11-.26.11-.1,0-.19-.04-.26-.11-.07-.07-.11-.16-.11-.26,0-.1.04-.19.11-.26.07-.07.16-.11.26-.11.1,0,.19.04.26.11.07.07.11.16.11.26h.31c0-.19-.08-.36-.2-.48-.12-.12-.29-.2-.48-.2-.19,0-.36.08-.48.2-.12.12-.2.29-.2.48,0,.19.08.36.2.48.12.12.29.2.48.2.19,0,.36-.08.48-.2.12-.12.2-.29.2-.48h-.15Z"/>
          <g>
            <path d="m8.37,11.47c0-.31.09-.59.32-.81.21-.2.46-.27.74-.21.27.05.31.31.21.48-.06.11-.15.18-.26.23-.2.11-.41.18-.63.24-.05.01-.07.03-.06.09.02.12.05.23.14.32.06.06.14.08.23.07.11-.01.22-.05.31-.12.02-.01.04-.02.05-.03.04-.02.08-.01.11.03.03.04,0,.08-.02.1-.05.04-.1.07-.15.1-.18.11-.37.16-.58.12-.22-.04-.36-.19-.4-.41-.01-.07-.01-.14-.01-.21Zm.76-.86c-.06,0-.12.02-.18.07-.17.14-.23.34-.25.55,0,.04.01.05.05.04.15-.05.3-.1.44-.18.06-.04.12-.08.15-.15.07-.15-.02-.32-.2-.32Z"/>
            <path d="m11.13,9.33c.26.01.54,0,.82,0,.07,0,.14,0,.21-.01.04,0,.07-.02.1-.05.02-.02.04-.04.07-.04.05,0,.07.02.06.06,0,.06-.02.13-.02.19,0,.04-.03.06-.07.05-.07-.01-.14,0-.21-.02-.06-.01-.07.01-.09.06-.05.18-.09.36-.13.54-.01.05-.02.1-.02.16,0,.03,0,.06.02.08.03.02.05,0,.07-.02.03-.02.06-.05.08-.08.01-.02.03-.03.05-.01.02.02.03.04.02.06-.05.11-.24.23-.35.23-.08,0-.14-.05-.14-.14,0-.11.02-.22.05-.33.04-.16.08-.32.12-.48.01-.05,0-.06-.05-.06-.06,0-.13,0-.19,0-.05,0-.07.02-.08.06-.08.29-.19.56-.32.82-.04.07-.08.12-.17.12-.05,0-.11.01-.16.01-.02,0-.04,0-.05-.02,0-.02,0-.04.02-.05.02-.02.03-.03.05-.04.16-.1.26-.24.33-.41.06-.14.1-.28.15-.43.01-.04,0-.06-.04-.06-.09.01-.17,0-.26.01-.07,0-.09.03-.08.1,0,.04.02.07.04.11.01.03,0,.05-.02.06-.03.02-.05,0-.06-.02-.05-.08-.09-.17-.1-.27-.01-.12.05-.19.17-.19.05,0,.1,0,.17,0Z"/>
            <path d="m10.45,9.52c-.01.12-.06.26-.1.41-.03.12-.06.25-.09.37,0,.03-.01.05.01.07.03.02.05,0,.07-.01.04-.02.07-.06.1-.1.02-.01.03-.02.05,0,.02.01.03.03.02.05-.03.1-.24.24-.35.24-.1,0-.15-.06-.13-.16.06-.23.11-.46.17-.69,0-.04.02-.08.02-.12,0-.04-.02-.05-.06-.04-.04.02-.07.06-.11.09-.02.02-.04.05-.07.02-.03-.03-.02-.05,0-.08.06-.08.13-.15.22-.19.05-.03.1-.03.15-.02.07.01.09.05.09.16Z"/>
            <path d="m10.22,8.85c0-.1.09-.18.19-.18s.16.06.16.15c0,.09-.11.19-.19.19-.09,0-.16-.07-.16-.16Z"/>
          </g>
          <path d="m7.58,11.11s-.03-.02-.05-.02c-.02,0-.03,0-.04.02-.01.01-.02.03-.02.05,0,.02,0,.03.02.05,0,0,0,0,.01.01-.05,0-.09,0-.13,0,0,0-.01,0-.02,0,0,0,0,0-.01,0h0s-.02,0-.03,0c-.02,0-.03,0-.05-.01-.01,0-.03-.02-.04-.05-.04-.07-.11-.11-.19-.11-.03,0-.06,0-.09.02,0,0,0,0-.01,0,0,0,0,0,0,0h0s0,0,0,0h0c-.06-.06-.12-.13-.19-.19,0,0,0,0,0-.01,0-.01.02-.03.03-.04.07-.11.14-.23.21-.34,0,0,0-.01,0-.01,0,0,0,0,.01,0,0,0,0,0,0,0,.02,0,.03,0,.05,0,.09,0,.18-.06.21-.15,0-.01,0-.02.01-.02,0,0,0,0,.02,0h0s0,0,0,0c.04,0,.09,0,.13,0h.05s.02,0,.03,0c0,0,0,0-.01.01-.01.01-.02.03-.02.05,0,.02,0,.03.02.04.01.01.03.02.05.02.02,0,.03,0,.04-.02.04-.04.08-.08.11-.12.01-.02.02-.04.02-.06,0-.03-.01-.05-.03-.07-.03-.03-.06-.07-.1-.1-.01-.01-.03-.02-.05-.02-.02,0-.03,0-.05.02-.01.01-.02.03-.02.04,0,.02,0,.03.02.05,0,0,0,0,.01.01-.03,0-.05,0-.08,0-.03,0-.06,0-.08,0-.02,0-.04,0-.06,0h0s-.01,0-.02,0c0,0,0,0,0-.01-.04-.1-.12-.15-.22-.15-.01,0-.03,0-.04,0h0s0,0-.01,0c0,0,0,0,0,0-.09-.14-.18-.28-.27-.43.06-.07.12-.13.19-.2.06.03.12.05.17.05.05,0,.09-.01.12-.04.03-.03.06-.07.09-.12h.24s0,0-.01.01c-.01.01-.02.03-.02.05,0,.02,0,.03.02.04.01.01.03.02.05.02.02,0,.03,0,.05-.02.04-.04.07-.07.11-.11.02-.02.02-.04.02-.06,0-.02,0-.05-.03-.07-.03-.04-.07-.07-.1-.11-.01-.01-.03-.02-.05-.02-.02,0-.03,0-.05.02-.01.01-.02.03-.02.05,0,.02,0,.03.02.05,0,0,0,0,.01.02-.01,0-.02,0-.03,0,0,0-.02,0-.03,0-.03,0-.06,0-.09,0s-.06,0-.08,0c0,0,0,0-.01,0h0s0,0,0,0c-.03-.09-.12-.16-.22-.16-.06,0-.11.02-.16.07-.2-.11-.4-.22-.59-.33h0s0,0,0,0c0,0,0,0,0,0h0s0,0,0,0c0-.01,0-.02,0-.03,0-.11-.07-.2-.17-.23-.02,0-.04,0-.06,0-.09,0-.18.06-.22.15,0,0,0,.01,0,.01,0,0,0,0-.01,0h0c-.05,0-.1,0-.15,0-.05,0-.1,0-.15,0h0s0,0,0,0h0s-.01,0-.02,0c0,0,0,0-.01-.02-.02-.05-.05-.08-.08-.11-.04-.03-.08-.04-.13-.04h0s0,0,0,0c0,0,0,0,0,0h0s0,0,0,0c-.02,0-.04,0-.05.02-.01.01-.02.03-.02.05h0s0,0,0,0h0,0s0,.04.02.05c.01.01.03.02.05.02.05,0,.1.04.1.09,0,0,0,0,0,.01,0,.04-.03.08-.07.1,0,0-.02,0-.03,0-.03,0-.05-.01-.07-.03-.02-.02-.03-.04-.03-.07,0,0,0-.01,0-.02,0,0,0-.02,0-.02,0-.01,0-.02,0-.03,0,0-.01-.02-.02-.03-.01,0-.03-.01-.04-.01-.01,0-.03,0-.04.01-.01,0-.02.02-.02.04,0,.03,0,.06,0,.09,0,0,0,.01,0,.02,0,0,0,0,0,0h0c-.2.11-.39.22-.58.33-.04-.02-.08-.04-.12-.06-.02,0-.04,0-.06,0-.1,0-.19.07-.22.17,0,0,0,.01,0,.02h0s0,.06,0,.08h0s0,0,0,0c0,0,0,.01,0,.02.03.1.13.17.22.17.05,0,.09-.01.14-.04,0,0,0,0,.01,0,.03.03.06.07.09.1.03.03.06.07.1.1-.07.12-.14.23-.21.35,0,0-.01.02-.02.03-.01.02-.02.04-.03.05-.01.01-.03.02-.05.02,0,0-.01,0-.02,0h0s-.01,0-.02,0c-.04,0-.09.02-.12.04-.03.03-.06.07-.08.11,0,.01,0,.03-.01.04h0s0,.05,0,.08h0s0,0,0,0c.01.03.02.06.04.09.05.07.11.1.19.1.02,0,.03,0,.05,0h0s0,0,.01,0c0,0,0,0,.01,0,0,0,0,0,0,.01.08.12.15.25.23.37,0,0,0,.01,0,.01h0s0,.01,0,.01c-.06.06-.12.13-.18.19,0,0,0,0,0,0,0,0,0,0,0,0,0,0,0,0-.01,0-.03-.01-.07-.02-.1-.02-.05,0-.1.02-.14.05-.04.03-.07.07-.08.13,0,0,0,0,0,0h0s0,.06,0,.08h0s0,0,0,0c0,0,0,.01,0,.02.03.11.13.17.22.17.05,0,.11-.02.15-.06,0,0,0,0,.01-.01.06.03.11.06.17.09.14.08.28.16.42.23,0,0,.01,0,.01,0,0,0,0,0,0,0h0s0,.03,0,.05c0,.05.02.1.05.14.03.04.08.07.13.08,0,0,0,0,.01,0h0s0,0,0,0h.08s.1-.04.14-.09c0,0,0,0,.01-.02,0,0,0-.01.01-.02,0-.02.01-.03.02-.04.01,0,.02,0,.04,0,0,0,0,0,.01,0,.03,0,.07,0,.1,0,.04,0,.08,0,.11,0,.01,0,.03,0,.04,0,0,0,.01,0,.02,0,0,0,0,0,0,0h0s.04.08.07.1c.03.03.07.05.11.06h0s0,0,0,0h.07s.02-.02.03-.03c0-.01.01-.02.01-.04,0,0,0-.01,0-.02,0-.02-.02-.03-.03-.04-.01,0-.03,0-.04,0-.06,0-.1-.05-.1-.1h0c0-.06.05-.1.1-.1h0c.05,0,.1.05.1.11h0s0,0,0,0c0,0,0,0,0,0,0,.02,0,.04.01.05.01.01.03.02.05.02h0s0,0,0,0c.02,0,.04,0,.05-.02.01-.01.02-.03.02-.06h0s0-.01,0-.02c0,0,0,0,0-.02,0,0,0-.01,0-.02,0,0,0-.01,0-.02,0,0,.02-.01.03-.02.19-.1.38-.21.56-.32.05.04.1.07.16.07.01,0,.03,0,.04,0,.04,0,.08-.02.11-.05.03-.02.05-.06.07-.1,0-.01,0-.02.01-.02,0,0,0,0,.02,0h0s0,0,0,0c.03,0,.07,0,.11,0s.07,0,.11,0c0,0,0,.01-.01.01-.01.01-.02.03-.02.05,0,.01,0,.03.02.04.01.02.03.02.05.02.02,0,.03,0,.05-.02.04-.04.08-.07.11-.11.02-.02.02-.04.02-.06,0-.02-.01-.05-.03-.07-.03-.04-.07-.07-.1-.1Zm-.55.27h0s-.05-.01-.07-.03c-.02-.02-.03-.04-.03-.07h0c0-.06.05-.1.1-.1h0s0,0,0,0c.05,0,.1.04.1.1,0,.05-.04.1-.1.1Zm-2.85-1.08s-.03-.04-.03-.07h0s.01-.05.03-.07c.02-.02.04-.03.07-.03h0s0,0,0,0c.03,0,.05.01.07.03.02.02.03.04.03.07,0,.02-.01.05-.03.07-.02.02-.04.03-.07.03h0s-.05-.01-.07-.03Zm2.85-1.22h0c.05,0,.1.04.1.1,0,.05-.04.1-.1.1h0c-.05,0-.1-.04-.1-.1h0s0,0,0,0c0-.03.01-.05.03-.07.02-.02.04-.03.07-.03Zm.1,1.15h0c0,.05-.05.1-.1.1h0s-.05-.01-.07-.03c-.02-.02-.03-.04-.03-.07h0s0,0,0,0c0-.03.01-.05.03-.07.02-.02.04-.03.07-.03h0c.05,0,.1.05.1.1Zm-.34,1.11h0c-.19.11-.38.21-.56.32.02-.02.03-.05.05-.07.07-.12.14-.23.22-.35,0,0,0,0,0-.01,0,0,0,0,0,0,0,0,0,0,.01,0,.09.02.18.05.27.07,0,0,.01,0,.01,0,0,0,0,0,0,.01h0s0,.02,0,.02c0,0,0,0,0,0h0Zm-.86.29s0,0,0,0h0s0,0,0,0c-.07-.06-.13-.12-.2-.18,0,0,0,0,0-.01.06-.06.13-.12.19-.18,0,0,.01,0,.02,0h0s.08.02.11.02c.04,0,.07,0,.1-.03.03-.02.06-.05.09-.08.04,0,.08.02.12.03,0,0,0,0,0,.01-.08.13-.16.26-.25.4,0,0,0,.01-.01.01,0,0,0,0-.01,0,0,0,0,0-.01,0-.01,0-.03,0-.04,0-.03,0-.07,0-.1.02h0s0,0,0,0Zm-.13.15c-.1,0-.21,0-.31,0h0s0,0,0,0c0,0,0,0,0-.01,0,0,0-.01-.01-.02,0,0,0,0,0-.01,0,0,0,0,0,0,.06-.06.13-.12.18-.17.06.05.12.11.18.17,0,0,0,0,0,0,0,0,0,0,0,.01,0,0,0,0,0,0,0,.01,0,.02,0,.03,0,0,0,0,0,0,0,0,0,0-.01,0h0Zm-.55.17c-.05,0-.1-.05-.1-.1h0s0,0,0,0h0c0-.05.05-.1.1-.1h0s0,0,0,0c.05,0,.1.05.1.1h0c0,.06-.05.1-.1.1h0Zm.1-.31s0,0,0,0c-.03-.01-.07-.02-.1-.02-.02,0-.03,0-.05,0h0s0,0,0,0c0,0,0,0,0,0h0s0,0,0,0h0c-.09-.14-.17-.28-.26-.42.04-.01.08-.02.12-.03,0,0,0,.01.01.02.05.06.12.1.19.1.03,0,.06,0,.09-.02,0,0,.01,0,.02,0,0,0,0,0,0,0,0,0,0,0,.01.01.06.06.12.12.17.18-.03.03-.07.07-.1.11-.03.03-.05.05-.08.08,0,0-.01,0-.02,0Zm-.87-.31s0-.02,0-.03c0,0,0,0,.02-.01.09-.02.17-.04.26-.06h0s0,0,0,0c0,0,0,0,.01,0h0s0,0,0,0h0c.09.14.18.29.27.43-.17-.1-.34-.19-.51-.29-.01,0-.03-.01-.04-.02,0,0-.02,0-.02-.01,0,0,0,0,0,0,0,0,0,0,0,0,0,0,0,0,0,0Zm.86-2.48s0,0,0,0,0,0,0,0c0,0,0,0,0,0,.06.06.12.11.19.17-.07.07-.13.14-.19.2h0s0,0-.01,0h0s-.08-.02-.11-.02c-.04,0-.07,0-.11.03-.03.02-.06.05-.09.08-.02,0-.04-.01-.07-.02-.02,0-.04,0-.06-.01.05-.09.1-.17.15-.25.02-.04.05-.07.07-.11.01-.02.02-.04.03-.05.01-.01.03-.02.04-.02,0,0,.02,0,.03,0h0s0,0,.01,0c.01,0,.03,0,.04,0,.01,0,.03,0,.04-.01h0Zm.48-.11c-.06.06-.12.13-.18.19-.06-.06-.12-.12-.18-.17h0s0,0,0,0h0s0,0,0,0h0s0-.02,0-.03c0,0,0,0,0,0,0,0,0,0,0,0h0s0,0,.01,0c.05,0,.11,0,.16,0s.1,0,.15,0c0,0,0,0,0,0,0,0,0,0,.01.01,0,0,0,.01,0,.02,0,0,0,0,0,0Zm.09.09s.08.03.12.03c.02,0,.04,0,.05,0,0,0,0,0,0,0,0,0,0,0,0,0,.09.14.17.28.26.42-.04.01-.08.02-.12.03-.03-.04-.06-.07-.09-.08-.03-.02-.07-.03-.11-.03-.04,0-.07,0-.12.03,0,0,0,0,0,0-.07-.06-.13-.12-.2-.19.07-.07.13-.14.2-.21Zm.12-.3h0s.05.01.07.03c.02.02.03.04.03.07h0c0,.05-.05.1-.1.1h0s-.05-.01-.07-.03c-.02-.02-.03-.04-.03-.07h0c0-.05.05-.1.1-.1h0Zm.44,2.07c-.08-.08-.16-.17-.24-.25,0,0,0,0,0,0h0s.01-.04.02-.04c.01,0,.03,0,.05,0,0,0,0,0,0,0,.07,0,.14,0,.21,0,.08,0,.16,0,.25,0h0s0,0,0,0h0s.02,0,.03,0c0,0,0,0,0,0,0,0,0,0,0,.01-.11.09-.22.18-.34.28Zm-1.75.1s-.04.04-.06.07c-.05-.08-.1-.16-.14-.23.07.05.14.11.21.17Zm1.72.37h0s0,0,0,0h0s0,0,0,0c-.05-.01-.1-.02-.15-.04h0s0,0,0-.01c0-.02-.01-.03-.01-.04,0-.01,0-.03.01-.04,0-.01.02-.02.04-.04.05-.04.1-.08.15-.12.03.03.06.06.09.1-.04.06-.08.12-.12.19Zm-.8.27c-.06-.05-.12-.11-.18-.17,0,0,0,0,0,0,0,0,0,0,0-.01,0-.01,0-.02.01-.04h.34s.02.04.02.04c0,0,0,0,0,.01,0,0-.01.02-.03.03-.05.05-.1.1-.15.14Zm-.63-.31s0,0,0,0h0s-.1.03-.14.04h0s0,0-.01,0c0,0,0,0,0,0-.04-.06-.07-.11-.1-.17,0,0,0,0,0,0,0,0,0-.01,0-.01.03-.03.05-.06.08-.09,0,0,0,0,0,0,.07.06.14.11.2.17,0,.03,0,.05-.02.07Zm-.54-.71s0,0,0,0c0,0,0,0,0,0,.09,0,.17,0,.26,0s.17,0,.26,0c0,0,0,0,0,0,0,0,0,0,.01.01,0,0,.01.02.02.03-.08.08-.16.16-.23.25-.06-.05-.12-.1-.18-.15-.05-.04-.1-.08-.15-.12,0,0,0,0,0,0,0,0,0,0,0,0h0Zm0-.18h0c.12-.1.25-.2.37-.3.08.08.15.16.22.24-.02.03-.03.06-.04.08,0,0,0,0,0,0,0,0,0,0,0,0-.08,0-.17,0-.25,0-.09,0-.18,0-.27,0h0s0,0,0,0c0,0,0,0,0,0h0s0,0,0-.01h0s0,0,0,0Zm1.15-1.01c.07.06.13.12.19.18,0,0,0,0,0,0,0,0,0,0,0,.01,0,.01,0,.02-.01.03-.11,0-.22,0-.34,0-.01-.02-.02-.04-.02-.05,0,0,0,0,0-.02,0,0,.02-.02.03-.03.05-.05.09-.1.13-.14Zm.19.43s-.01.02-.03.03c-.05.05-.1.1-.15.14-.06-.06-.12-.12-.18-.18,0,0,0,0,0,0,0,0,0,0,0-.01,0-.01,0-.02.01-.04h.34s.02.04.02.04c0,0,0,0,0,.01Zm-.36,0h0s0,0,0,0Zm-.21-.02h0c-.05,0-.1-.05-.1-.1h0s0,0,0,0c0-.05.05-.1.1-.1h0s0,0,0,0h0c.06,0,.1.04.1.1h0c0,.06-.04.1-.1.1Zm0,.81h0c-.05,0-.1-.05-.1-.1h0s0,0,0,0c0-.05.05-.1.1-.1h0s0,0,0,0h0c.05,0,.1.05.1.1h0c0,.06-.05.1-.1.1Zm0,.8c-.05,0-.1-.05-.1-.1h0c0-.06.05-.1.1-.1h0s0,0,0,0c.05,0,.1.05.1.1h0c0,.06-.05.1-.1.1h0Zm.12-.31s0,0-.01,0h0s0,0,0,0c-.03-.01-.07-.02-.1-.02-.05,0-.09.01-.13.04-.07-.05-.13-.11-.2-.16.08-.08.15-.16.23-.24.04.02.07.03.11.03.03,0,.07,0,.1-.02h0s0,0,0,0h0s0,0,0,0h0s0,0,0,0c.06.06.12.13.19.19-.06.06-.12.13-.19.19Zm.28-.88c.06.05.12.11.18.17,0,0,0,0,0,0,0,0,0,0,0,0,0,0,0,0,0,0h0s0,.02,0,.03c0,0,0,0,0,0,0,0,0,0-.01,0h0c-.1,0-.21,0-.31,0h0s0,0,0,0h0s0,0,0,0h0s0-.02-.01-.02c0,0,0,0,0-.01,0,0,0,0,0,0,.06-.06.13-.12.18-.17Zm0,.59c-.06-.05-.12-.11-.18-.17h0s0,0,0,0c0,0,0,0,0,0h0s0,0,0,0h0s0-.02.01-.03c0,0,0,0,0,0,0,0,0,0,0,0,.05,0,.1,0,.14,0,.06,0,.12,0,.18,0h0s0,0,.01.01c0,0,0,.01.01.02,0,0,0,0,0,0,0,0,0,0,0,0h0s0,0,0,0c-.06.06-.12.12-.18.17Zm.18.39h0s0,.01,0,.02c0,0,0,.02,0,.02,0,0,0,0,0,0h0s0,0,0,0h0c-.07,0-.13,0-.2,0-.04,0-.08,0-.13,0-.01-.02-.02-.04-.02-.04,0,0,0,0,0-.02,0,0,.01-.02.03-.03.05-.05.1-.1.15-.14.06.06.12.11.18.18Zm-.46-.9s0,0,0,0c0,0,0,0,0,0-.03-.01-.07-.02-.1-.02-.01,0-.03,0-.05,0h0s0,0,0,0c0,0,0,0,0,0h0s0,0,0,0h0c-.08-.08-.16-.16-.24-.25.06-.05.11-.09.16-.13.04.03.09.04.13.04.03,0,.07,0,.1-.02h0s0,0,0,0h0c.06.06.12.13.19.19-.06.06-.12.13-.19.19Zm.67.11h0s0-.01,0-.01h0c.05.01.1.06.1.11h0c0,.06-.05.1-.1.1h0s0,0,0,0c-.02,0-.05-.01-.07-.03-.02-.02-.03-.04-.03-.06h0s.01-.06.03-.08c.02-.02.04-.03.07-.03Zm-.1.31s.06.02.09.02c.04,0,.07,0,.11-.03.08.08.15.16.23.24-.07.05-.13.11-.2.16-.04-.03-.09-.04-.13-.04-.03,0-.07,0-.1.02h0s0,0,0,0c0,0,0,0,0,0-.06-.06-.13-.12-.19-.18.08-.07.14-.13.21-.2Zm0,.6c0-.06.04-.1.1-.11h0s0,0,0,0h0s.05.01.07.03c.02.02.03.04.03.07,0,.05-.04.1-.1.1h0s-.05-.01-.07-.03c-.02-.02-.03-.04-.03-.06h0Zm.49-1.39c-.06-.05-.11-.09-.16-.13h0s0-.01,0-.02h0s0,0,0,0c0-.03,0-.05.02-.06.01-.01.03-.02.06-.02.02,0,.03,0,.05-.01.01,0,.03,0,.04,0,0,0,0,0,.01,0,0,0,.02.01.02.03,0,.01.02.03.03.05.01.02.03.05.04.07-.03.04-.07.07-.1.11Zm-.39-.33h0s0,0,0,0h0c.06,0,.1.04.1.1,0,.05-.04.1-.1.1h0c-.05,0-.1-.04-.1-.1h0s0,0,0,0c0-.05.04-.1.1-.1Zm-.1.31h0s.07.02.1.02c.05,0,.09-.01.13-.04.05.04.11.09.16.13-.07.07-.14.15-.21.22,0,.01-.02.02-.03.02,0,0-.02,0-.03,0,0,0,0,0-.01,0h0s-.01,0-.02,0c-.04,0-.08.01-.11.02-.07-.06-.13-.12-.2-.19.06-.06.12-.13.18-.19h0s0,0,0,0c0,0,0,0,0,0h0s0,0,0,0Zm.88.51s0,0-.01.01c0,0,0,0-.01,0-.08,0-.17,0-.25,0-.09,0-.17,0-.26,0,0,0,0,0-.01,0,0,0,0,0-.01-.01-.01-.02-.03-.05-.04-.08.07-.08.15-.16.22-.24.01.01.03.02.04.03.11.09.22.17.32.26,0,0,0,0,.01,0h0s0,0,0,0c0,0,0,0,0,0Zm-.28-.41s.05-.05.07-.08c.06.09.11.18.17.27-.08-.06-.16-.13-.24-.2Zm.04-.38c.06-.01.11-.03.17-.04-.04.04-.08.08-.12.12-.02-.03-.03-.05-.05-.08Zm-1.73.04s0,0,0,0h0s.04.01.07.01c.03,0,.06.01.08.02.02.01.03.03.03.07,0,0,0,0,0,.01-.05.04-.11.09-.17.14-.04-.04-.07-.07-.1-.11.03-.05.06-.1.09-.14Zm1.95-.25s0,.02,0,.02c0,0,0,0-.02,0-.09.02-.17.04-.26.06h0s0,0-.01,0h0s0,0,0,0h0c-.09-.14-.18-.29-.27-.43.05.03.1.06.15.08.14.08.27.15.41.23,0,0,.01,0,.02.01,0,0,0,0,0,.01,0,0,0,0,0,0Zm-2.04.59c-.08.07-.16.13-.24.2.06-.09.11-.18.17-.27.02.03.05.05.07.08Zm-.04-.38s-.03.05-.05.08c-.04-.04-.08-.08-.12-.12.06.01.11.03.17.04Zm1.85,1.33c.07-.06.14-.11.21-.17-.05.08-.09.15-.14.23-.02-.02-.04-.04-.06-.07Zm-2.07-1.52s0,0,0-.01c0,0,0-.02,0-.02,0,0,0,0,0,0,0,0,0,0,0,0,.15-.09.3-.17.46-.26.03-.02.07-.04.1-.06-.09.15-.18.29-.27.44-.1-.02-.19-.05-.29-.07Zm.14,1.8s.05.08.08.13c-.09.02-.17.04-.25.06.06-.06.12-.12.18-.19Zm2.01,0c.06.06.12.12.18.19-.08-.02-.17-.04-.25-.06.03-.04.05-.08.08-.13Zm-2.39-1.69h0s-.05-.01-.07-.03c-.02-.02-.03-.04-.03-.07,0-.05.04-.1.1-.1h0s0,0,0,0c.05,0,.1.04.1.1h0s-.01.05-.03.07c-.02.02-.04.03-.07.03Zm-.1,2h0c0-.06.05-.1.1-.1h0c.05,0,.1.05.1.1h0s-.01.05-.03.07c-.02.02-.04.03-.07.03h0c-.05,0-.1-.04-.1-.1Z"/>
        </g>
      </g>
    </mask>
  </defs>
  <g class="cls-2">
    <path class="cls-3" d="m13.04,3.33h-.01c-.15,0-.28-.03-.41-.08-.12-.05-.24-.13-.33-.22-.09-.09-.17-.21-.22-.33-.05-.12-.08-.26-.08-.41h0s0-.51,0-.51h-7.97v.51h0c0,.15-.03.28-.08.41-.05.12-.13.24-.22.33-.09.09-.21.17-.33.22-.12.05-.26.08-.41.08h-.51v5.36s0,0,0,0c0,.76.16,1.49.44,2.16.28.66.69,1.26,1.19,1.76h0c.5.5,1.1.91,1.76,1.19.66.28,1.39.44,2.16.44.76,0,1.49-.16,2.16-.44.66-.28,1.26-.69,1.76-1.19h0c.5-.5.91-1.1,1.19-1.76.28-.65.43-1.37.44-2.12h0V3.33h-.5Z"/>
  </g>
</svg>