<?xml version="1.0" encoding="UTF-8"?>
<svg id="Layer_1" data-name="Layer 1" xmlns="http://www.w3.org/2000/svg" xmlns:xlink="http://www.w3.org/1999/xlink" viewBox="0 0 128 128">
  <defs>
    <style>
      .cls-1 {
        filter: url(#luminosity-noclip);
      }

      .cls-2 {
        mask: url(#mask);
      }

      .cls-3 {
        fill: #387951;
      }
    </style>
    <filter id="luminosity-noclip" x="18.81" y="13.21" width="90.37" height="101.58" color-interpolation-filters="sRGB" filterUnits="userSpaceOnUse">
      <feFlood flood-color="#fff" result="bg"/>
      <feBlend in="SourceGraphic" in2="bg"/>
    </filter>
    <mask id="mask" x="18.81" y="13.21" width="90.37" height="101.58" maskUnits="userSpaceOnUse">
      <g class="cls-1">
        <g>
          <path d="m105.01,30.07h-1.25v39.53c0,10.98-4.45,20.91-11.64,28.11-7.2,7.2-17.13,11.64-28.11,11.64-10.98,0-20.91-4.45-28.11-11.64-7.2-7.2-11.64-17.13-11.64-28.11V30.07h-1.25v1.25c3.84,0,7.34-1.56,9.86-4.08,2.52-2.52,4.08-6.01,4.08-9.86h-1.25v1.25h56.64v-1.25h-1.25c0,3.84,1.56,7.34,4.08,9.86,2.52,2.52,6.01,4.08,9.86,4.08v-1.25h-1.25,1.25v-1.25c-3.16,0-6.01-1.28-8.09-3.35-2.07-2.07-3.35-4.92-3.35-8.08v-1.25h-59.15v1.25c0,3.16-1.28,6.01-3.35,8.08-2.07,2.07-4.92,3.35-8.08,3.35h-1.25v40.79c0,11.67,4.73,22.24,12.38,29.88,7.64,7.65,18.22,12.38,29.88,12.38,11.67,0,22.24-4.73,29.88-12.38,7.65-7.64,12.38-18.22,12.38-29.88V28.82h-1.25v1.25Z"/>
          <g>
            <polygon points="62.75 69.59 62.75 110.61 65.25 110.61 65.25 69.59 64 70.84 62.75 69.59"/>
            <polygon points="65.25 55.41 65.25 17.39 62.75 17.39 62.75 55.41 64 54.16 65.25 55.41"/>
            <polygon points="71.09 63.75 105.01 63.75 105.01 61.25 71.09 61.25 72.34 62.5 71.09 63.75"/>
            <polygon points="56.91 61.25 22.99 61.25 22.99 63.75 56.91 63.75 55.66 62.5 56.91 61.25"/>
          </g>
          <polygon points="64 70.84 64.89 69.96 57.43 62.5 64 55.93 70.57 62.5 63.11 69.96 64 70.84 64.89 69.96 64 70.84 64.89 71.73 74.12 62.5 64 52.38 53.88 62.5 64 72.62 64.89 71.73 64 70.84"/>
          <path d="m35.43,32.07h2.77v4.72h1.25l-.53-1.14c-2.11.98-3.9,2.54-5.16,4.48-1.26,1.94-1.99,4.25-1.99,6.73,0,3.41,1.39,6.51,3.62,8.75,2.23,2.24,5.33,3.62,8.75,3.62,3.41,0,6.51-1.39,8.74-3.62,2.24-2.23,3.62-5.33,3.62-8.75,0-2.48-.73-4.8-1.99-6.73-1.26-1.94-3.05-3.5-5.16-4.48l-.53,1.14h1.25v-4.72h2.77v-2.51h-5.27s0,8.03,0,8.03l.73.34c1.68.78,3.11,2.03,4.12,3.57,1.01,1.55,1.59,3.38,1.59,5.36,0,2.73-1.1,5.18-2.89,6.97-1.79,1.79-4.25,2.89-6.97,2.89-2.73,0-5.18-1.1-6.97-2.89-1.79-1.79-2.89-4.25-2.89-6.97,0-1.98.58-3.82,1.59-5.36,1.01-1.54,2.43-2.79,4.12-3.57l.73-.34v-8.03h-5.27v2.51h0Z"/>
          <path d="m32.14,47.75c.85.85,1.75,1.48,2.67,1.88.92.4,1.86.58,2.77.58,1.34,0,2.6-.37,3.78-.86,1.78-.75,3.42-1.8,4.98-2.62.77-.41,1.52-.77,2.22-1.02.7-.25,1.35-.38,1.94-.38.62,0,1.18.13,1.79.47.61.34,1.27.9,1.97,1.82l2-1.52c-.86-1.13-1.77-1.96-2.75-2.5-.98-.55-2.01-.79-3.01-.78-1.29,0-2.5.37-3.65.87-1.72.75-3.35,1.79-4.92,2.62-.78.41-1.54.77-2.27,1.02-.73.25-1.42.38-2.07.38-.6,0-1.17-.11-1.77-.37-.6-.26-1.23-.69-1.9-1.36l-1.77,1.77h0Z"/>
          <path d="m42.44,42.82c0,.69-.56,1.25-1.25,1.25s-1.25-.56-1.25-1.25.56-1.25,1.25-1.25,1.25.56,1.25,1.25Z"/>
          <path d="m46.78,39.02c0,.6-.49,1.09-1.09,1.09s-1.09-.49-1.09-1.09.49-1.09,1.09-1.09,1.09.49,1.09,1.09Z"/>
          <path d="m46.09,32.05c0,.22-.18.4-.4.4s-.4-.18-.4-.4.18-.4.4-.4.4.18.4.4Z"/>
          <path d="m43.68,35.29c0,.48-.39.87-.87.87s-.87-.39-.87-.87.39-.87.87-.87.87.39.87.87Z"/>
          <path d="m88.53,43.23h-1.25c0,.84-.34,1.59-.89,2.14-.55.55-1.3.89-2.14.89-.84,0-1.59-.34-2.14-.89-.55-.55-.89-1.3-.89-2.14,0-.84.34-1.59.89-2.14.55-.55,1.3-.88,2.14-.89.84,0,1.59.34,2.14.89.55.55.88,1.3.89,2.14h2.51c0-1.52-.62-2.91-1.62-3.91-1-1-2.39-1.62-3.91-1.62-1.52,0-2.91.62-3.91,1.62-1,1-1.62,2.39-1.62,3.91,0,1.52.62,2.91,1.62,3.91,1,1,2.39,1.62,3.91,1.62,1.52,0,2.91-.62,3.91-1.62,1-1,1.62-2.39,1.62-3.91h-1.25Z"/>
          <path d="m92.55,50.24l-4.02-4.02-1.77,1.77,3.84,3.84c.47-.71,1.15-1.27,1.95-1.59Z"/>
          <path d="m98.44,54.2h-1.25c0,.84-.34,1.59-.89,2.14-.55.55-1.3.89-2.14.89-.84,0-1.59-.34-2.14-.89-.55-.55-.89-1.3-.89-2.14,0-.84.34-1.59.89-2.14.55-.55,1.3-.89,2.14-.89.84,0,1.59.34,2.14.89.55.55.88,1.3.89,2.14h2.51c0-1.52-.62-2.91-1.62-3.91-1-1-2.39-1.62-3.91-1.62-1.52,0-2.91.62-3.91,1.62-1,1-1.62,2.39-1.62,3.91,0,1.52.62,2.91,1.62,3.91,1,1,2.39,1.62,3.91,1.62,1.52,0,2.91-.62,3.91-1.62,1-1,1.62-2.39,1.62-3.91h-1.25Z"/>
          <path d="m84.26,33.24c-.44,0-.86-.07-1.25-.19v5.89h2.51v-5.89c-.4.12-.82.19-1.25.19Z"/>
          <path d="m88.53,28.97h-1.25c0,.84-.34,1.59-.89,2.14-.55.55-1.3.89-2.14.89-.84,0-1.59-.34-2.14-.89-.55-.55-.89-1.3-.89-2.14,0-.84.34-1.59.89-2.14.55-.55,1.3-.89,2.14-.89.84,0,1.59.34,2.14.89.55.55.88,1.3.89,2.14h2.51c0-1.52-.62-2.91-1.62-3.91-1-1-2.39-1.62-3.91-1.62-1.52,0-2.91.62-3.91,1.62-1,1-1.62,2.39-1.62,3.91,0,1.52.62,2.91,1.62,3.91,1,1,2.39,1.62,3.91,1.62,1.52,0,2.91-.62,3.91-1.62,1-1,1.62-2.39,1.62-3.91h-1.25Z"/>
          <path d="m78.3,49.19l3.17-2.69-1.62-1.91-3.17,2.7c.72.46,1.29,1.12,1.63,1.91Z"/>
          <path d="m78.65,50.88h-1.25c0,.84-.34,1.59-.89,2.14-.55.55-1.3.89-2.14.89-.84,0-1.59-.34-2.14-.89-.55-.55-.88-1.3-.89-2.14,0-.84.34-1.59.89-2.14.55-.55,1.3-.88,2.14-.89.84,0,1.59.34,2.14.89.55.55.88,1.3.89,2.14h2.51c0-1.52-.62-2.91-1.62-3.91-1-1-2.39-1.62-3.91-1.62-1.52,0-2.91.62-3.91,1.62-1,1-1.62,2.39-1.62,3.91,0,1.52.62,2.91,1.62,3.91,1,1,2.39,1.62,3.91,1.62,1.52,0,2.91-.62,3.91-1.62,1-1,1.62-2.39,1.62-3.91h-1.25Z"/>
          <g>
            <path d="m67.04,92.28c-.04-2.56.75-4.8,2.62-6.58,1.7-1.62,3.72-2.17,6.04-1.71,2.17.43,2.49,2.53,1.71,3.95-.48.87-1.24,1.43-2.09,1.89-1.63.88-3.38,1.43-5.14,1.93-.41.12-.56.23-.49.7.14.99.38,1.9,1.14,2.59.53.48,1.15.64,1.85.56.93-.11,1.77-.44,2.55-.96.14-.09.29-.17.44-.24.35-.17.66-.11.87.23.2.33.08.64-.19.84-.39.31-.81.59-1.24.85-1.46.87-3.03,1.3-4.74.99-1.8-.32-2.94-1.52-3.23-3.35-.09-.57-.1-1.13-.1-1.7Zm6.19-7c-.45.06-1,.18-1.45.57-1.37,1.18-1.86,2.76-2.06,4.48-.04.31.09.39.37.29,1.22-.42,2.43-.83,3.55-1.48.51-.3.94-.69,1.2-1.24.58-1.24-.2-2.61-1.62-2.62Z"/>
            <path d="m89.5,74.88c2.12.12,4.42-.02,6.73,0,.57,0,1.13-.06,1.7-.1.31-.02.58-.15.79-.38.15-.16.31-.3.55-.31.39-.03.57.13.53.53-.06.53-.13,1.06-.18,1.59-.03.34-.25.5-.54.44-.56-.12-1.14-.01-1.69-.13-.47-.1-.61.09-.73.49-.44,1.46-.75,2.94-1.04,4.43-.08.42-.14.85-.19,1.28-.02.23-.07.49.18.63.24.14.41-.06.58-.17.27-.17.47-.42.67-.67.11-.14.25-.25.43-.12.17.13.27.29.16.52-.4.88-1.94,1.89-2.85,1.87-.68-.02-1.12-.44-1.16-1.13-.06-.93.16-1.83.37-2.72.3-1.3.62-2.6.96-3.89.1-.38.03-.53-.38-.51-.52.02-1.04.03-1.55,0-.37-.02-.54.14-.63.48-.63,2.33-1.55,4.54-2.6,6.71-.29.61-.69.96-1.36,1.01-.43.03-.86.08-1.3.11-.17.01-.35-.02-.42-.2-.07-.18.04-.32.16-.44.13-.13.26-.27.41-.36,1.31-.78,2.1-1.98,2.68-3.35.48-1.14.84-2.32,1.21-3.5.12-.36.01-.51-.36-.45-.7.11-1.4.07-2.1.09-.55.02-.75.27-.61.82.07.31.18.61.29.91.09.23.05.39-.16.51-.24.13-.37-.02-.49-.2-.43-.69-.74-1.42-.83-2.23-.11-1.01.38-1.56,1.39-1.57.4,0,.8,0,1.39,0Z"/>
            <path d="m83.97,76.41c-.12,1-.5,2.15-.79,3.31-.25,1.02-.5,2.04-.75,3.06-.05.2-.09.4.1.55.21.16.38,0,.55-.09.34-.2.56-.52.84-.78.13-.11.25-.17.39-.03.12.12.24.23.17.43-.28.79-1.99,1.94-2.87,1.93-.82-.01-1.24-.51-1.05-1.31.45-1.88.93-3.75,1.39-5.63.08-.32.14-.65.16-.98.02-.34-.18-.44-.49-.3-.36.16-.59.48-.86.75-.16.16-.29.4-.57.16-.26-.23-.16-.43.02-.65.51-.63,1.08-1.18,1.8-1.57.39-.21.81-.21,1.22-.14.56.1.76.42.76,1.3Z"/>
            <path d="m82.09,70.94c0-.78.75-1.48,1.58-1.48s1.31.47,1.29,1.2c-.02.73-.86,1.57-1.56,1.56-.76-.01-1.31-.55-1.3-1.28Z"/>
          </g>
          <path d="m60.54,89.36c-.12-.12-.26-.18-.4-.18-.13,0-.26.06-.36.16-.11.1-.16.23-.16.37,0,.14.06.27.16.39.03.04.07.08.11.12-.38,0-.72,0-1.06,0-.05,0-.09,0-.15,0-.03,0-.06,0-.1,0h0c-.07,0-.14.01-.21.01-.16,0-.28-.03-.39-.1-.11-.07-.21-.19-.31-.38-.3-.6-.91-.9-1.55-.9-.25,0-.51.05-.75.14-.02,0-.06.01-.1.01-.03,0-.06,0-.08,0h-.03s0-.01,0-.01h0c-.51-.52-1.01-1.05-1.51-1.58-.02-.02-.05-.06-.08-.09.07-.12.14-.24.21-.35.57-.92,1.15-1.85,1.71-2.78.03-.05.06-.08.08-.1.02-.02.04-.02.08-.02.02,0,.05,0,.08,0,.13.02.25.04.37.04.76,0,1.44-.45,1.74-1.19.03-.08.06-.12.09-.14.03-.02.07-.03.15-.03h.02s0,0,0,0c.37,0,.73,0,1.1,0h.41c.09,0,.18,0,.27,0-.04.04-.07.08-.11.12-.1.12-.15.25-.15.39,0,.13.05.25.14.35.1.11.25.17.39.17.12,0,.25-.05.35-.14.32-.3.63-.61.92-.95.12-.14.18-.31.18-.48,0-.21-.09-.41-.25-.59-.26-.28-.53-.55-.8-.82-.12-.12-.27-.18-.42-.18-.14,0-.27.06-.38.16-.1.1-.15.23-.15.36,0,.14.06.28.17.41.03.04.06.07.1.11-.22,0-.42,0-.61,0-.23,0-.46,0-.69,0-.17,0-.34,0-.51,0h-.02c-.07,0-.1-.01-.13-.03-.02-.02-.05-.05-.08-.12-.31-.78-.99-1.23-1.79-1.22-.12,0-.24,0-.36.03h-.01s-.07,0-.11-.03c-.04-.02-.07-.04-.07-.05-.73-1.15-1.44-2.31-2.17-3.5.51-.54,1.02-1.08,1.53-1.61.5.26.95.4,1.35.4.37,0,.7-.12.99-.36.27-.23.51-.56.72-.98h1.95s-.06.07-.09.1c-.1.12-.16.26-.16.4,0,.12.05.25.14.34.11.12.25.18.39.18.13,0,.26-.05.37-.16.3-.29.6-.59.88-.9.13-.15.2-.33.2-.51,0-.2-.08-.39-.22-.55-.27-.3-.55-.58-.84-.86-.12-.11-.26-.17-.4-.17-.14,0-.27.06-.37.16-.1.1-.16.23-.16.37,0,.14.06.28.16.4.04.04.07.08.11.13-.08,0-.16,0-.24,0-.07,0-.14,0-.21,0-.24,0-.47,0-.71,0s-.46,0-.69,0c-.02,0-.06-.01-.1-.03l-.04-.03h0c-.24-.78-1-1.31-1.82-1.31-.45,0-.92.17-1.34.54-1.61-.9-3.23-1.81-4.84-2.73h0s-.03-.03-.04-.06c-.01-.03-.02-.06-.02-.08h0s0,0,0,0c.01-.09.02-.19.02-.28,0-.88-.54-1.65-1.39-1.88-.18-.05-.35-.07-.52-.07-.77,0-1.46.46-1.77,1.24-.03.07-.05.1-.07.11-.02.02-.05.03-.12.03h0c-.41,0-.83,0-1.24,0-.4,0-.81,0-1.21,0h0s0,0,0,0h0c-.07,0-.1-.01-.13-.03-.02-.02-.05-.06-.08-.13-.16-.37-.39-.67-.68-.87-.29-.21-.64-.32-1.05-.34h0s0,0,0,0c0,0,0,0,0,0h0s-.04,0-.06,0c-.17,0-.32.05-.43.14-.11.09-.17.23-.18.38h0s0,0,0,0h0v.03c0,.15.06.29.17.38.11.09.26.14.44.15.44.03.78.34.83.73,0,.03,0,.07,0,.1,0,.36-.24.68-.6.79-.07.02-.15.03-.22.03-.22,0-.42-.09-.57-.25-.15-.15-.25-.36-.25-.59,0-.04,0-.09.01-.14.01-.07.02-.13.02-.2,0-.08-.01-.16-.05-.24-.04-.08-.09-.15-.17-.21-.1-.07-.21-.1-.31-.1-.12,0-.23.04-.32.11-.09.07-.16.18-.19.31-.05.26-.02.51-.04.73,0,.05-.02.1-.03.15,0,.02-.02.04-.03.05l-.02.02c-1.6.91-3.21,1.81-4.77,2.69-.33-.16-.62-.36-.97-.45-.15-.04-.3-.06-.45-.06-.82,0-1.56.55-1.8,1.38-.02.06-.04.12-.07.18v.02s0,.02,0,.02c0,.21,0,.43,0,.64v.04c.03.06.06.12.08.18.28.85,1.03,1.36,1.82,1.36.38,0,.77-.11,1.12-.35.03-.02.06-.04.1-.07.25.27.51.53.76.8.26.27.51.54.78.82-.59.95-1.17,1.89-1.75,2.84-.04.06-.09.13-.13.21-.08.18-.17.31-.27.4-.11.09-.23.14-.43.14-.05,0-.11,0-.17-.01h0c-.06,0-.12-.01-.18-.01-.36,0-.7.14-.98.36-.28.22-.5.53-.62.88-.04.11-.08.22-.11.33v.02s0,.02,0,.02c0,.19,0,.39,0,.58v.04c.11.24.19.52.35.75.38.53.9.82,1.51.82.12,0,.25-.01.39-.03h0s.06,0,.09,0c.04,0,.06,0,.08.02.02.01.05.04.08.09.62,1.01,1.24,2.02,1.87,3.02.04.06.04.09.04.11v.04s-.04.04-.07.07c-.5.51-.98,1.02-1.47,1.54-.03.03-.05.05-.07.06-.02.01-.03.01-.05.01-.02,0-.05,0-.09-.02-.27-.1-.54-.16-.8-.16-.42,0-.8.13-1.12.38-.31.25-.56.61-.69,1.06,0,0-.02.03-.05.08v.02s-.01.03-.01.03c0,.21,0,.43,0,.64v.04c.03.06.05.11.07.15.26.89,1.03,1.41,1.83,1.41.43,0,.86-.14,1.24-.45.03-.03.06-.05.1-.08.46.26.92.51,1.37.77,1.13.64,2.26,1.27,3.4,1.91.06.03.1.05.12.08.02.02.03.03.03.08v.04c-.02.11-.03.22-.03.33,0,.45.14.85.39,1.16.25.32.62.55,1.07.68.01,0,.04.02.09.04h.02s.02.01.02.01h.68c.4-.15.81-.33,1.1-.71.03-.04.07-.08.1-.13.04-.05.07-.1.09-.18.04-.17.1-.25.19-.3.08-.05.2-.07.35-.07.03,0,.07,0,.11,0,.28.01.56.01.84.01.31,0,.62,0,.93,0,.11,0,.22,0,.32,0,.03,0,.09,0,.13.02.02,0,.04.01.05.02h0c.13.36.33.64.58.85.26.22.57.37.91.47h.01s.02,0,.02,0h.57c.1-.07.2-.13.27-.22.07-.09.11-.2.11-.32,0-.06,0-.11-.03-.18-.04-.16-.14-.26-.26-.31-.12-.05-.24-.06-.36-.07-.46-.02-.83-.4-.83-.81v-.05c.03-.42.41-.78.81-.77h.05c.43.03.78.41.78.88v.04s0,0,0,0c0,.02,0,.05,0,.07,0,.18.03.33.12.44.09.11.22.17.37.18h0s.04,0,.04,0c.16,0,.3-.07.4-.19.1-.12.15-.28.16-.47h0s.01-.09.01-.15c0-.04,0-.08-.02-.12-.02-.06-.03-.11-.03-.15,0-.07.03-.11.08-.17.06-.05.14-.1.25-.16,1.53-.85,3.06-1.71,4.6-2.58.38.33.81.54,1.31.54.1,0,.21,0,.31-.03.35-.06.65-.19.9-.38.25-.2.44-.46.57-.79.04-.09.07-.13.1-.15.03-.02.08-.03.16-.03h.01s0,0,0,0c.29,0,.57,0,.86,0s.59,0,.9,0c-.04.04-.07.08-.11.12-.1.12-.17.25-.17.39,0,.12.05.24.14.35.1.12.24.19.39.19.13,0,.27-.05.38-.16.31-.29.62-.6.9-.93.12-.14.19-.32.19-.49,0-.2-.08-.41-.24-.57-.26-.29-.54-.57-.82-.84Zm-4.45,2.21h0c-.22,0-.42-.09-.57-.24-.15-.15-.24-.35-.24-.56v-.02c.01-.45.37-.79.81-.79h0s0,0,0,0c.44,0,.8.36.8.81,0,.45-.36.8-.8.81Zm-23.22-8.81c-.15-.15-.24-.35-.24-.55v-.02c0-.21.1-.41.25-.56.15-.15.35-.24.55-.24h.03s0,0,0,0c.2,0,.4.11.55.26.15.15.24.35.24.55,0,.2-.1.41-.25.56-.15.15-.36.25-.56.25h-.01c-.21,0-.41-.1-.56-.25Zm23.21-9.92h0c.45,0,.8.36.81.81,0,.45-.36.81-.8.81h0c-.44,0-.8-.35-.81-.79h0s0-.02,0-.02c0-.22.09-.42.24-.56.15-.15.35-.24.57-.24Zm.81,9.37h0c0,.44-.38.82-.81.82h0c-.21,0-.41-.1-.56-.25-.15-.15-.25-.36-.25-.57h0s0,0,0,0c0-.22.09-.42.24-.57.15-.15.35-.24.57-.24h.02c.44.01.8.38.79.82Zm-2.76,9.02h0c-1.53.88-3.07,1.74-4.61,2.61.12-.2.25-.4.37-.61.59-.95,1.18-1.89,1.76-2.85.03-.05.06-.08.07-.09.02-.01.03-.02.06-.02.02,0,.05,0,.09.02.72.19,1.45.37,2.18.53.07.02.09.04.1.06.01.02.02.05.02.1v.04s-.01.11-.03.15c0,.02-.02.04-.02.06h0Zm-7.03,2.39s-.04,0-.05,0h-.02s0,0,0,0c-.54-.49-1.07-.99-1.61-1.49,0-.04,0-.07,0-.11.52-.48,1.05-.97,1.58-1.44.02-.02.1-.06.13-.05h.01c.35.11.66.17.94.17.31,0,.59-.08.85-.24.24-.15.47-.38.7-.69.32.08.66.16,1.01.25-.02.04-.04.08-.06.11-.67,1.08-1.34,2.16-2,3.24-.03.05-.06.09-.09.11-.03.02-.04.03-.08.03-.02,0-.05,0-.09-.01-.12-.03-.24-.04-.36-.04-.27,0-.53.07-.79.18h0s-.04.01-.07,0Zm-1.07,1.19c-.85-.01-1.71,0-2.56-.01h0s-.04-.02-.07-.05c-.03-.03-.06-.07-.06-.08-.02-.06-.06-.11-.09-.15-.03-.04-.04-.07-.04-.08,0-.01,0-.03.04-.07.51-.48,1.02-.96,1.5-1.41.46.44.96.9,1.44,1.38,0,0,.01.02.02.04,0,.02.01.05.01.08,0,.03,0,.05,0,.06-.04.09-.05.18-.07.23-.01.02-.02.04-.04.05-.02,0-.04.02-.09.02h0Zm-4.48,1.37c-.44,0-.83-.39-.82-.83h0s0,0,0,0h0c0-.45.39-.83.83-.83h0s0,0,0,0c.44,0,.82.39.82.83h0c0,.45-.38.83-.82.83h0Zm.84-2.56s-.03,0-.04,0c-.27-.1-.54-.17-.82-.17-.12,0-.25.01-.38.04h0s-.02,0-.02,0c-.02,0-.05,0-.08-.02l-.03-.02h0s0,0,0,0c-.71-1.13-1.41-2.28-2.13-3.44.35-.09.68-.17,1.01-.25.04.05.07.1.11.15.37.51.94.79,1.53.79.25,0,.5-.05.74-.15.06-.03.1-.03.13-.03.03,0,.05,0,.07.02.03.02.06.04.1.08.47.49.94.97,1.42,1.46-.28.29-.56.58-.84.87-.21.22-.41.44-.63.63-.01.02-.09.05-.14.04Zm-7.08-2.5c.02-.1.04-.17.07-.21.03-.04.07-.07.18-.09.71-.15,1.4-.34,2.09-.5h0s.03,0,.03,0c.03,0,.07,0,.1.02l.04.02h0s0,0,0,0c.73,1.16,1.45,2.33,2.17,3.5-1.41-.79-2.8-1.57-4.18-2.35-.11-.06-.21-.11-.29-.17-.07-.05-.14-.07-.17-.09-.02-.01-.03-.02-.03-.03,0,0-.01-.02-.01-.05,0-.01,0-.03,0-.05Zm7.02-20.26s.05,0,.08,0,.05,0,.07,0c.02,0,.03.01.03.01.51.46,1.01.93,1.53,1.41-.57.6-1.07,1.12-1.57,1.64h0s-.06.03-.09.02h-.03c-.33-.11-.62-.17-.89-.17-.31,0-.59.08-.86.24-.25.15-.48.39-.71.69-.18-.04-.36-.09-.54-.13-.15-.04-.31-.08-.47-.12.43-.69.84-1.37,1.26-2.04.18-.29.39-.58.55-.9.08-.17.17-.31.27-.41.1-.09.2-.15.37-.15.07,0,.14,0,.23.03h0s.08.01.12.01c.12,0,.23-.03.34-.07.11-.04.21-.07.31-.09h0Zm3.89-.86c-.49.52-.99,1.04-1.44,1.52-.51-.48-1.02-.95-1.5-1.42h0s-.01-.04-.01-.07v-.04s0-.01,0-.01h0c.05-.1.06-.19.08-.25.01-.03.02-.04.03-.05.01,0,.03-.02.07-.02h0s.06,0,.09,0c.43,0,.86,0,1.29,0s.83,0,1.24,0c.01,0,.03,0,.04.02.03.02.06.06.08.1.02.05.04.1.04.14,0,.04-.01.06-.02.07Zm.77.76c.32.17.65.27.99.27.14,0,.29-.02.43-.05,0,0,.03,0,.05.02.02.01.05.03.05.04.7,1.13,1.4,2.26,2.13,3.43-.36.09-.69.17-1.02.25-.24-.3-.47-.53-.72-.69-.27-.17-.55-.25-.86-.25-.29,0-.61.07-.97.21-.01,0-.03-.02-.03-.03-.54-.51-1.09-1.01-1.64-1.53.58-.6,1.08-1.14,1.59-1.67Zm.98-2.46h0c.22,0,.42.09.57.24.15.15.24.36.24.57h0c0,.44-.38.82-.81.82h0c-.22,0-.42-.1-.57-.25-.15-.15-.25-.36-.25-.57h0c0-.44.39-.82.81-.82h0Zm3.57,16.92c-.65-.68-1.29-1.35-1.92-2.02,0,0,0,0,0,0h0c.04-.2.11-.29.2-.35.09-.06.23-.08.41-.08.02,0,.04,0,.06,0,.57.01,1.15.02,1.72.02.67,0,1.34,0,2.01-.01h0s0,0,0,0h0c.11,0,.18.02.21.05.02.01.03.03.04.06,0,.02.01.05.02.09-.91.74-1.83,1.48-2.77,2.24Zm-14.3.79c-.17.18-.33.35-.51.53-.4-.64-.78-1.26-1.17-1.89.55.45,1.11.9,1.68,1.36Zm14.02,2.99l-.03.02h-.05s0,0,0,0h0c-.41-.09-.83-.19-1.23-.3h0s-.06-.07-.08-.12c-.06-.13-.08-.24-.08-.34,0-.12.04-.22.11-.32.07-.1.19-.2.33-.29.44-.29.82-.65,1.22-.97.25.26.5.52.76.8-.32.51-.63,1.02-.94,1.52Zm-6.49,2.18c-.48-.45-1-.93-1.51-1.42,0,0,0-.02,0-.03,0-.03,0-.07.01-.1.02-.09.07-.18.11-.29h2.74c.09.19.13.3.13.35,0,.04,0,.07-.05.12-.04.05-.11.13-.22.23-.41.4-.84.78-1.22,1.14Zm-5.12-2.52s-.01.02-.03.04l-.05.03c-.39.1-.78.21-1.18.29h-.01s-.05,0-.08-.02c-.03-.01-.05-.03-.05-.03-.3-.45-.58-.91-.85-1.38,0,0-.01-.03,0-.06,0-.05.02-.11.03-.11.21-.25.44-.48.68-.72,0,0,.02.01.03.02.56.45,1.11.9,1.67,1.35-.04.21-.08.41-.13.61Zm-4.4-5.76s.04-.05.07-.08c.03-.03.07-.04.08-.04.71,0,1.42,0,2.13,0s1.39,0,2.09,0c0,0,.04,0,.08.04.03.02.07.06.09.09.05.06.08.16.13.28-.64.67-1.27,1.34-1.92,2.02-.5-.4-.99-.8-1.47-1.19-.41-.33-.82-.65-1.22-.99,0,0-.03-.03-.04-.06-.01-.03-.02-.06-.02-.07h0Zm.03-1.44h0c1-.82,2-1.62,3.02-2.45.63.67,1.24,1.31,1.83,1.93-.13.24-.24.46-.36.67,0,.02-.04.04-.06.06-.03.02-.06.03-.06.03-.69,0-1.38,0-2.06,0-.74,0-1.48,0-2.21,0h0s-.04-.02-.06-.04c-.02-.02-.05-.05-.05-.07v-.02s0-.05.01-.07v-.03s.02,0,.02,0Zm9.39-8.26c.54.51,1.07,1,1.59,1.5,0,0,0,.03,0,.06,0,.03,0,.07-.01.09-.02.09-.07.18-.11.28-.92,0-1.83,0-2.74,0-.08-.19-.13-.31-.12-.37,0-.05.01-.08.06-.14.05-.06.12-.15.24-.26.38-.4.76-.8,1.1-1.15Zm1.55,3.5c-.04.05-.11.13-.22.23-.41.4-.83.79-1.22,1.15-.48-.46-1-.94-1.51-1.43,0,0,0-.02,0-.03,0-.03,0-.07.01-.1.02-.09.07-.18.11-.29h2.74c.09.19.13.3.13.35,0,.04,0,.07-.05.12Zm-2.95-.06h0s0,0,0,0Zm-1.69-.14h0c-.44,0-.83-.38-.83-.82h0s0-.01,0-.01c0-.44.37-.81.82-.82h0s0,0,0,0h0c.45,0,.82.36.82.81h0c0,.46-.36.83-.81.83Zm0,6.57h0c-.44,0-.82-.38-.83-.82h0s0-.01,0-.01c0-.44.38-.82.82-.83h0s0,0,0,0h0c.44,0,.82.38.83.82h0c0,.46-.37.83-.82.84Zm-.02,6.55c-.44,0-.82-.38-.82-.82h0c0-.45.39-.83.83-.83h0s0,0,0,0c.44,0,.82.38.82.82h0c0,.47-.38.83-.83.83h0Zm.95-2.56s-.05.02-.08.02h-.02s0,0,0,0c-.28-.12-.56-.18-.83-.18-.37,0-.73.11-1.08.33-.55-.44-1.09-.88-1.64-1.33.63-.66,1.24-1.31,1.86-1.96.29.13.58.21.87.21.28,0,.56-.06.83-.19h0s0,0,0,0h.03s.04,0,.04,0h.01s0,0,0,0c.51.51,1.01,1.03,1.53,1.56-.51.53-1.01,1.04-1.51,1.54Zm2.27-7.21c.47.44.96.9,1.45,1.38,0,0,.01.02.02.04,0,.02.01.05.01.08,0,.03,0,.05,0,.06h0c-.04.09-.05.18-.07.23-.01.03-.02.04-.04.05-.01,0-.04.02-.09.02h0c-.86-.01-1.71,0-2.56-.01h0s-.04-.02-.07-.04l-.03-.04h0s0-.02,0-.02c-.02-.08-.06-.13-.09-.18-.03-.05-.05-.08-.04-.1,0-.01,0-.03.04-.07.51-.48,1.02-.96,1.5-1.41Zm0,4.77c-.47-.44-.98-.91-1.48-1.39h0s-.01-.02-.02-.04c0-.02,0-.04,0-.06v-.02s0,0,0,0h0c.06-.1.06-.2.08-.26.01-.03.02-.05.03-.05.01,0,.03-.02.08-.02.39,0,.78,0,1.17,0,.48,0,.96,0,1.43.02h0s.06.07.09.12c.03.05.07.12.09.17,0,0,.01.03,0,.06,0,.02,0,.04,0,.05h0s0,.02,0,.02c-.5.49-1.01.96-1.49,1.41Zm1.49,3.21h0s-.01.1-.03.16c-.02.06-.04.12-.06.18,0,0-.02.04-.05.06l-.04.02h-.01s0,0,0,0h0c-.55,0-1.09,0-1.64,0-.34,0-.68,0-1.02,0-.08-.19-.13-.3-.12-.36,0-.04.01-.07.05-.13.04-.06.12-.13.23-.24.4-.4.82-.78,1.19-1.13.49.46,1.01.94,1.51,1.44Zm-3.77-7.32s-.03,0-.05,0c-.03,0-.06,0-.07-.01-.27-.11-.54-.18-.82-.18-.12,0-.25.01-.37.04h0s-.03,0-.03,0c-.02,0-.04,0-.06,0h-.02s0-.01,0-.01h0c-.64-.66-1.27-1.33-1.92-2.02.45-.37.89-.72,1.33-1.08.35.21.72.33,1.09.33.28,0,.56-.06.85-.2h0s.05.01.05.01l.03.02c.5.5,1,1.02,1.51,1.54-.52.53-1.02,1.05-1.53,1.55Zm5.48.91h.01s0-.1,0-.1v.1c.44,0,.81.39.81.82v.02c-.01.43-.39.8-.81.8h-.02s0,0,0,0c-.2,0-.41-.1-.56-.24-.15-.14-.24-.33-.24-.51h0c0-.25.1-.47.24-.63.15-.16.34-.25.56-.25Zm-.79,2.55c.24.12.5.18.77.18.29,0,.59-.07.89-.22.62.65,1.23,1.3,1.86,1.96-.55.45-1.09.88-1.64,1.33-.35-.22-.71-.33-1.09-.33-.28,0-.56.06-.85.19h0s-.03,0-.06-.01c-.02,0-.05-.02-.05-.03-.52-.47-1.04-.95-1.57-1.44.63-.59,1.17-1.1,1.74-1.63Zm-.01,4.88c.01-.49.36-.85.79-.86h0s0,0,0,0h0c.23,0,.43.09.58.24.15.15.24.35.24.57,0,.44-.36.8-.8.8h0c-.21,0-.42-.09-.57-.23-.15-.14-.25-.33-.25-.51h0Zm3.98-11.31c-.46-.37-.9-.72-1.34-1.09h0s-.03-.1-.03-.15h0s0-.01,0-.01c0-.24.07-.4.18-.5.11-.11.28-.17.52-.19.13,0,.26-.05.38-.09.12-.04.22-.07.3-.07.03,0,.06,0,.08.01.06.02.13.1.2.22.07.12.13.26.21.39.12.18.23.37.35.57-.28.3-.56.6-.85.9Zm-3.2-2.67h0s0,0,0,0h.01c.46,0,.82.35.82.8,0,.44-.37.81-.81.81h0c-.44,0-.81-.35-.82-.79h0s0-.02,0-.02c0-.43.36-.79.79-.8Zm-.8,2.53h0c.28.12.55.18.83.18.37,0,.73-.11,1.09-.33.44.35.88.71,1.34,1.08-.58.61-1.14,1.2-1.7,1.8-.08.08-.14.14-.21.18-.07.04-.15.05-.25.05-.03,0-.06,0-.09,0h0s-.08,0-.13,0c-.31,0-.62.09-.86.13-.55-.51-1.08-1.01-1.63-1.52.51-.52,1-1.03,1.49-1.52h0s.02-.02.04-.02c.02,0,.05-.01.07-.01h.02s0,0,0,0Zm7.16,4.16s-.07.07-.11.1c-.04.03-.08.04-.09.04-.69,0-1.38,0-2.07,0-.7,0-1.4,0-2.1,0-.01,0-.06-.01-.09-.04-.04-.03-.08-.06-.09-.09-.12-.18-.22-.39-.35-.62.6-.63,1.21-1.27,1.83-1.93.11.09.22.17.32.25.88.71,1.77,1.43,2.65,2.14.04.03.08.06.1.08l.02.03h0s0,.02-.02.05Zm-2.32-3.34c.2-.21.4-.42.6-.63.47.76.92,1.49,1.38,2.23-.65-.53-1.31-1.06-1.98-1.6Zm.36-3.07c.48-.12.93-.23,1.38-.34-.31.33-.63.66-.97,1.02-.14-.23-.28-.45-.42-.68Zm-14.07.31s.05-.02.08-.02h.02c.17.03.34.1.54.12.26.03.48.09.63.2.14.11.23.27.23.56,0,.03,0,.07,0,.11-.42.34-.89.72-1.37,1.11-.29-.31-.57-.6-.85-.9.24-.39.48-.79.73-1.18Zm15.94-2.07c-.02.09-.04.14-.06.17-.02.03-.06.05-.15.07-.71.16-1.41.35-2.12.51h-.03s-.07,0-.1-.01l-.04-.02h0s0,0,0,0c-.73-1.16-1.45-2.33-2.18-3.5.4.23.8.45,1.21.68,1.11.62,2.21,1.25,3.32,1.87.06.03.1.06.13.09.02.03.03.04.03.09,0,.02,0,.04,0,.06Zm-16.66,4.82c-.67.54-1.33,1.07-1.98,1.6.45-.73.91-1.47,1.38-2.24.2.21.39.42.6.63Zm-.36-3.07c-.14.23-.28.45-.42.68-.33-.35-.65-.68-.97-1.02.45.11.91.22,1.38.34Zm15.1,10.84c.57-.46,1.12-.91,1.67-1.35-.38.62-.77,1.24-1.17,1.89-.17-.18-.34-.36-.51-.53Zm-16.86-12.4s-.04-.05-.06-.11c-.02-.06-.04-.12-.04-.17,0,0,.01-.04.04-.07.02-.03.06-.06.08-.07,1.24-.7,2.48-1.4,3.72-2.1.28-.16.55-.31.83-.47-.74,1.19-1.47,2.38-2.21,3.58-.8-.19-1.58-.38-2.36-.59Zm1.13,14.69c.21.35.42.68.63,1.03-.71.17-1.39.34-2.07.51.47-.5.94-1.01,1.44-1.53Zm16.42,0c.49.51.96,1.02,1.44,1.52-.68-.13-1.35-.32-2.07-.49.22-.35.42-.68.63-1.02Zm-19.53-13.81h0c-.22,0-.42-.09-.57-.24-.15-.15-.24-.35-.24-.56,0-.43.36-.79.81-.79h0s0,0,0,0c.44,0,.79.36.8.78h0c0,.22-.09.42-.24.57-.15.15-.35.24-.57.24Zm-.81,16.32v-.02c.01-.43.38-.79.82-.79h.01c.42,0,.79.38.79.8h0c0,.22-.09.42-.24.56-.15.14-.35.23-.57.23h0c-.44,0-.81-.37-.8-.78Z"/>
        </g>
      </g>
    </mask>
  </defs>
  <g class="cls-2">
    <path class="cls-3" d="m105.09,25.89h-.08c-1.19,0-2.3-.24-3.31-.67-1.01-.43-1.93-1.05-2.71-1.82-.77-.77-1.4-1.69-1.82-2.7-.43-1.01-.67-2.12-.67-3.31h0s0-4.18,0-4.18H31.5v4.18h0c0,1.18-.24,2.29-.67,3.31-.43,1.01-1.05,1.93-1.82,2.7-.77.77-1.69,1.4-2.7,1.82-1.01.43-2.12.67-3.31.67h-4.18v43.71s0,0,0,0c0,6.23,1.27,12.18,3.55,17.59,2.29,5.41,5.6,10.28,9.68,14.36h0c4.09,4.09,8.95,7.39,14.36,9.68,5.41,2.29,11.36,3.55,17.59,3.55,6.23,0,12.18-1.27,17.59-3.55,5.41-2.29,10.28-5.6,14.36-9.68h0c4.09-4.08,7.39-8.95,9.68-14.36,2.25-5.31,3.51-11.15,3.55-17.27v-.02s0-44.02,0-44.02h-4.1Z"/>
  </g>
</svg>