<?xml version="1.0" encoding="UTF-8"?>
<svg id="Layer_1" data-name="Layer 1" xmlns="http://www.w3.org/2000/svg" xmlns:xlink="http://www.w3.org/1999/xlink" viewBox="0 0 1024 1024">
  <defs>
    <style>
      .cls-1 {
        fill: #fff;
      }

      .cls-2 {
        filter: url(#luminosity-noclip);
      }

      .cls-3 {
        mask: url(#mask);
      }
    </style>
    <filter id="luminosity-noclip" x="273.56" y="243.99" width="476.87" height="536.02" color-interpolation-filters="sRGB" filterUnits="userSpaceOnUse">
      <feFlood flood-color="#fff" result="bg"/>
      <feBlend in="SourceGraphic" in2="bg"/>
    </filter>
    <mask id="mask" x="273.56" y="243.99" width="476.87" height="536.02" maskUnits="userSpaceOnUse">
      <g class="cls-2">
        <g>
          <path d="m728.38,332.98h-6.62v208.6c0,57.95-23.47,110.35-61.44,148.33-37.98,37.97-90.38,61.44-148.33,61.44-57.95,0-110.34-23.47-148.33-61.44-37.97-37.98-61.44-90.38-61.44-148.33v-208.6h-6.62v6.62c20.29,0,38.72-8.24,52-21.54,13.3-13.29,21.55-31.72,21.54-52h-6.62v6.62h298.88v-6.62h-6.62c0,20.29,8.24,38.72,21.54,52,13.29,13.3,31.73,21.55,52.02,21.54v-6.62h-6.62,6.62v-6.62c-16.69,0-31.73-6.74-42.67-17.67-10.93-10.94-17.67-25.97-17.67-42.65v-6.62h-312.11v6.62c0,16.67-6.74,31.71-17.67,42.65-10.94,10.93-25.97,17.66-42.65,17.67h-6.62v215.21c0,61.56,24.97,117.35,65.32,157.68,40.33,40.34,96.12,65.32,157.68,65.31,61.56,0,117.35-24.97,157.68-65.31,40.34-40.33,65.32-96.12,65.31-157.68v-215.21h-6.62v6.62Z"/>
          <g>
            <polygon points="505.39 541.5 505.39 757.95 518.62 757.95 518.62 541.5 512 548.11 505.39 541.5"/>
            <polygon points="518.62 466.67 518.62 266.05 505.39 266.05 505.39 466.67 512 460.05 518.62 466.67"/>
            <polygon points="549.42 510.7 728.38 510.7 728.38 497.47 549.42 497.47 556.03 504.08 549.42 510.7"/>
            <polygon points="474.59 497.47 295.62 497.47 295.62 510.7 474.59 510.7 467.97 504.08 474.59 497.47"/>
          </g>
          <polygon points="512 548.11 516.68 543.43 477.33 504.08 512 469.41 546.67 504.08 507.32 543.43 512 548.11 516.68 543.43 512 548.11 516.68 552.79 565.39 504.08 512 450.7 458.62 504.08 512 557.47 516.68 552.79 512 548.11"/>
          <path d="m361.27,343.5h14.59v24.92h6.62l-2.79-6c-11.16,5.18-20.59,13.41-27.24,23.63-6.65,10.21-10.53,22.45-10.52,35.53,0,18,7.31,34.36,19.11,46.15,11.79,11.8,28.15,19.11,46.15,19.11,17.99,0,34.35-7.31,46.14-19.11,11.8-11.79,19.12-28.15,19.12-46.15,0-13.08-3.87-25.31-10.52-35.53-6.65-10.22-16.08-18.45-27.24-23.63l-2.79,6h6.62v-24.92h14.6v-13.23h-27.83s0,42.37,0,42.37l3.83,1.78c8.88,4.12,16.42,10.7,21.73,18.85,5.3,8.15,8.38,17.84,8.38,28.31,0,14.39-5.82,27.36-15.25,36.79-9.44,9.43-22.4,15.23-36.78,15.24-14.39,0-27.36-5.81-36.79-15.24-9.42-9.44-15.23-22.4-15.24-36.79,0-10.46,3.08-20.16,8.38-28.31,5.3-8.15,12.84-14.73,21.73-18.85l3.83-1.78v-42.37h-27.83v13.23h0Z"/>
          <path d="m343.86,426.25c4.51,4.51,9.21,7.8,14.07,9.93,4.85,2.13,9.83,3.07,14.64,3.06,7.07,0,13.71-1.93,19.96-4.54,9.37-3.94,18.07-9.49,26.25-13.85,4.08-2.18,8.01-4.07,11.69-5.37,3.69-1.3,7.1-2,10.23-2,3.26.01,6.24.69,9.47,2.47,3.21,1.78,6.7,4.77,10.38,9.62l10.54-8c-4.52-5.96-9.34-10.32-14.5-13.19-5.15-2.88-10.62-4.14-15.89-4.13-6.8.01-13.18,1.96-19.24,4.57-9.08,3.94-17.67,9.46-25.95,13.8-4.13,2.18-8.15,4.06-12,5.36-3.85,1.31-7.49,2.03-10.95,2.03-3.15,0-6.17-.57-9.33-1.95-3.15-1.38-6.48-3.62-10.03-7.16l-9.36,9.36h0Z"/>
          <path d="m398.23,400.25c0,3.65-2.96,6.62-6.62,6.62s-6.62-2.96-6.62-6.62,2.96-6.62,6.62-6.62,6.62,2.96,6.62,6.62Z"/>
          <path d="m421.13,380.17c0,3.17-2.57,5.74-5.74,5.74s-5.74-2.57-5.74-5.74,2.57-5.74,5.74-5.74,5.74,2.57,5.74,5.74Z"/>
          <path d="m417.5,343.39c0,1.16-.94,2.11-2.11,2.11s-2.11-.94-2.11-2.11.94-2.11,2.11-2.11,2.11.94,2.11,2.11Z"/>
          <path d="m404.75,360.51c0,2.53-2.05,4.57-4.57,4.57s-4.57-2.05-4.57-4.57,2.05-4.57,4.57-4.57,4.57,2.05,4.57,4.57Z"/>
          <path d="m641.46,402.38h-6.62c0,4.43-1.78,8.37-4.67,11.28-2.91,2.9-6.86,4.67-11.28,4.67-4.43,0-8.37-1.78-11.28-4.67-2.9-2.91-4.67-6.86-4.67-11.28,0-4.43,1.78-8.37,4.67-11.28,2.91-2.9,6.86-4.67,11.28-4.67,4.43,0,8.37,1.78,11.28,4.67,2.9,2.91,4.67,6.85,4.67,11.28h13.23c0-8.04-3.28-15.38-8.55-20.64-5.26-5.27-12.6-8.55-20.64-8.55-8.04,0-15.38,3.28-20.64,8.55-5.27,5.26-8.55,12.6-8.55,20.64,0,8.04,3.28,15.38,8.55,20.64,5.26,5.27,12.6,8.55,20.64,8.55,8.04,0,15.38-3.28,20.64-8.55,5.27-5.26,8.55-12.6,8.55-20.64h-6.62Z"/>
          <path d="m662.67,439.4l-21.2-21.19-9.36,9.36,20.25,20.25c2.49-3.75,6.08-6.7,10.3-8.41Z"/>
          <path d="m693.74,460.31h-6.62c0,4.43-1.78,8.37-4.67,11.28-2.91,2.9-6.86,4.67-11.28,4.67-4.43,0-8.37-1.78-11.28-4.67-2.9-2.91-4.67-6.86-4.67-11.28,0-4.43,1.78-8.37,4.67-11.28,2.91-2.9,6.86-4.67,11.28-4.67,4.43,0,8.37,1.78,11.28,4.67,2.9,2.91,4.67,6.86,4.67,11.28h13.23c0-8.04-3.28-15.38-8.55-20.64-5.26-5.27-12.6-8.55-20.64-8.55-8.04,0-15.38,3.28-20.64,8.55-5.27,5.26-8.55,12.6-8.55,20.64,0,8.04,3.28,15.38,8.55,20.64,5.26,5.27,12.6,8.55,20.64,8.55,8.04,0,15.38-3.28,20.64-8.55,5.27-5.26,8.55-12.6,8.55-20.64h-6.62Z"/>
          <path d="m618.89,349.71c-2.3,0-4.52-.35-6.62-.99v31.09h13.23v-31.09c-2.09.64-4.31.99-6.62.99Z"/>
          <path d="m641.46,327.14h-6.62c0,4.43-1.78,8.37-4.67,11.28-2.91,2.9-6.86,4.67-11.28,4.67-4.43,0-8.37-1.78-11.28-4.67-2.9-2.91-4.67-6.86-4.67-11.28,0-4.43,1.78-8.37,4.67-11.28,2.91-2.9,6.86-4.67,11.28-4.67,4.43,0,8.37,1.78,11.28,4.67,2.9,2.91,4.67,6.85,4.67,11.28h13.23c0-8.04-3.28-15.38-8.55-20.64-5.26-5.27-12.6-8.55-20.64-8.55-8.04,0-15.38,3.28-20.64,8.55-5.27,5.26-8.55,12.6-8.55,20.64,0,8.04,3.28,15.38,8.55,20.64,5.26,5.27,12.6,8.55,20.64,8.55,8.04,0,15.38-3.28,20.64-8.55,5.27-5.26,8.55-12.6,8.55-20.64h-6.62Z"/>
          <path d="m587.48,433.86l16.73-14.21-8.57-10.08-16.74,14.22c3.77,2.42,6.79,5.92,8.58,10.07Z"/>
          <path d="m589.32,442.79h-6.62c0,4.43-1.78,8.37-4.67,11.28-2.91,2.9-6.86,4.67-11.28,4.67-4.43,0-8.37-1.78-11.28-4.67-2.9-2.91-4.67-6.86-4.67-11.28,0-4.43,1.78-8.37,4.67-11.28,2.91-2.9,6.85-4.67,11.28-4.67,4.43,0,8.37,1.78,11.28,4.67,2.9,2.91,4.67,6.86,4.67,11.28h13.23c0-8.04-3.28-15.38-8.55-20.64-5.26-5.27-12.6-8.55-20.64-8.55-8.04,0-15.38,3.28-20.64,8.55-5.27,5.26-8.55,12.6-8.55,20.64,0,8.04,3.28,15.38,8.55,20.64,5.26,5.27,12.6,8.55,20.64,8.55,8.04,0,15.38-3.28,20.64-8.55,5.27-5.26,8.55-12.6,8.55-20.64h-6.62Z"/>
          <g>
            <path d="m528.06,661.21c-.22-13.5,3.96-25.33,13.83-34.75,8.97-8.56,19.63-11.45,31.89-9.02,11.43,2.27,13.15,13.36,9.01,20.87-2.52,4.58-6.53,7.54-11.01,9.96-8.58,4.63-17.82,7.56-27.14,10.19-2.15.61-2.94,1.22-2.6,3.69.72,5.2,2.02,10,6.04,13.68,2.79,2.56,6.09,3.37,9.77,2.94,4.9-.57,9.36-2.33,13.46-5.06.73-.49,1.52-.9,2.31-1.27,1.85-.88,3.46-.6,4.57,1.22,1.08,1.76.4,3.35-.99,4.45-2.06,1.64-4.27,3.12-6.53,4.47-7.72,4.6-15.98,6.85-25.02,5.24-9.49-1.69-15.53-8.04-17.06-17.68-.47-2.98-.52-5.95-.54-8.95Zm32.65-36.93c-2.37.34-5.27.96-7.66,3.01-7.24,6.22-9.81,14.58-10.85,23.64-.19,1.63.46,2.05,1.98,1.53,6.42-2.21,12.85-4.4,18.75-7.81,2.71-1.57,4.98-3.63,6.35-6.54,3.07-6.54-1.07-13.77-8.57-13.82Z"/>
            <path d="m646.58,569.39c11.19.63,23.34-.08,35.5-.03,2.99.01,5.98-.31,8.96-.51,1.65-.11,3.04-.79,4.17-2.02.78-.85,1.64-1.57,2.91-1.66,2.04-.14,3.01.7,2.78,2.78-.32,2.8-.68,5.59-.96,8.39-.18,1.8-1.29,2.63-2.87,2.3-2.98-.64-6.03-.08-8.93-.66-2.5-.51-3.22.49-3.85,2.57-2.32,7.68-3.97,15.52-5.5,23.38-.44,2.24-.76,4.51-1.01,6.78-.13,1.19-.39,2.57.94,3.34,1.26.73,2.15-.3,3.08-.89,1.44-.91,2.5-2.21,3.55-3.52.58-.72,1.31-1.32,2.25-.61.92.68,1.41,1.54.86,2.75-2.1,4.65-10.21,9.99-15.05,9.87-3.59-.09-5.9-2.32-6.11-5.94-.3-4.91.86-9.64,1.94-14.35,1.57-6.86,3.28-13.7,5.08-20.51.53-2.01.15-2.79-2-2.71-2.73.11-5.47.17-8.2.03-1.98-.1-2.83.75-3.32,2.55-3.35,12.28-8.19,23.98-13.73,35.42-1.54,3.19-3.63,5.06-7.16,5.32-2.28.17-4.55.44-6.84.59-.88.06-1.85-.09-2.24-1.06-.38-.95.19-1.71.84-2.34.69-.67,1.37-1.42,2.19-1.9,6.92-4.12,11.09-10.44,14.12-17.65,2.53-6.02,4.41-12.26,6.4-18.47.61-1.92.08-2.69-1.89-2.37-3.68.6-7.38.39-11.08.49-2.89.08-3.93,1.42-3.23,4.3.39,1.62.95,3.21,1.55,4.78.46,1.19.26,2.06-.86,2.68-1.28.71-1.97-.12-2.57-1.06-2.29-3.62-3.9-7.51-4.37-11.79-.59-5.35,2.03-8.23,7.34-8.26,2.12-.01,4.23,0,7.31,0Z"/>
            <path d="m617.36,577.49c-.63,5.3-2.66,11.32-4.19,17.45-1.34,5.37-2.63,10.76-3.98,16.13-.27,1.08-.49,2.1.55,2.88,1.11.83,2.02.04,2.9-.47,1.78-1.03,2.96-2.74,4.45-4.1.66-.61,1.31-.89,2.07-.17.65.62,1.25,1.23.87,2.28-1.47,4.17-10.5,10.24-15.15,10.16-4.33-.07-6.55-2.69-5.55-6.91,2.37-9.92,4.91-19.8,7.33-29.71.42-1.7.75-3.45.84-5.19.09-1.81-.96-2.34-2.6-1.6-1.91.86-3.12,2.54-4.54,3.98-.86.87-1.55,2.11-3,.84-1.36-1.19-.84-2.27.09-3.41,2.69-3.3,5.67-6.24,9.49-8.27,2.08-1.1,4.27-1.13,6.44-.76,2.95.5,4.02,2.23,3.99,6.89Z"/>
            <path d="m607.47,548.63c.03-4.13,3.94-7.8,8.32-7.8s6.89,2.48,6.81,6.31c-.08,3.84-4.53,8.29-8.24,8.24-4.01-.05-6.91-2.9-6.88-6.75Z"/>
          </g>
          <path d="m493.76,645.8c-.63-.61-1.37-.95-2.11-.95-.7,0-1.38.3-1.92.83-.56.54-.86,1.24-.86,1.96,0,.72.29,1.45.83,2.08.17.2.35.4.56.61-1.98,0-3.79,0-5.59,0-.24,0-.5-.02-.78-.02-.16,0-.33,0-.51.03h0c-.39.04-.76.07-1.09.07-.83,0-1.48-.14-2.06-.51-.58-.36-1.11-.98-1.63-2.02-1.56-3.16-4.8-4.76-8.19-4.75-1.32,0-2.68.24-3.98.72-.11.04-.31.08-.52.08-.16,0-.31-.02-.43-.05l-.14-.05-.03-.02h0c-2.7-2.72-5.32-5.54-7.97-8.33-.13-.13-.26-.29-.42-.47.37-.62.75-1.25,1.13-1.86,3.02-4.88,6.06-9.75,9.05-14.65.17-.28.31-.44.43-.52.12-.08.22-.12.44-.12.11,0,.25.01.41.05.66.13,1.32.19,1.97.19,4,0,7.62-2.39,9.17-6.28.18-.44.34-.65.5-.76.16-.11.38-.17.8-.18h.08s0,0,0,0c1.93.04,3.86.04,5.79.04h2.14c.47,0,.93,0,1.4,0-.19.21-.38.41-.56.63-.53.62-.82,1.34-.81,2.06,0,.67.26,1.33.76,1.85.55.58,1.3.9,2.07.9.66,0,1.34-.25,1.87-.76,1.68-1.59,3.34-3.23,4.85-5.01.63-.75.95-1.62.95-2.51,0-1.09-.47-2.18-1.32-3.1-1.36-1.48-2.78-2.91-4.21-4.31-.64-.63-1.42-.96-2.2-.96-.73,0-1.44.3-1.98.87-.51.53-.79,1.19-.78,1.87,0,.75.32,1.5.9,2.16.17.19.34.39.54.6-1.17,0-2.2,0-3.23,0-1.22,0-2.43-.01-3.66-.01-.89,0-1.78,0-2.66.03h-.09c-.36,0-.54-.06-.66-.15-.13-.09-.27-.26-.42-.64-1.63-4.11-5.23-6.47-9.43-6.46-.62,0-1.25.05-1.89.15h-.07c-.13,0-.38-.05-.58-.14-.2-.09-.36-.23-.38-.27-3.83-6.08-7.6-12.2-11.46-18.45,2.69-2.84,5.38-5.68,8.05-8.5,2.64,1.38,4.99,2.11,7.11,2.11,1.95,0,3.69-.63,5.2-1.87,1.44-1.19,2.68-2.93,3.78-5.19h10.28c-.17.19-.34.37-.5.55-.55.63-.85,1.36-.85,2.1,0,.66.25,1.3.72,1.81.56.61,1.3.97,2.08.96.7,0,1.4-.29,1.98-.84,1.61-1.52,3.19-3.09,4.65-4.77.7-.8,1.06-1.76,1.06-2.72,0-1.03-.41-2.05-1.18-2.9-1.42-1.58-2.91-3.08-4.42-4.55-.61-.6-1.36-.92-2.1-.91-.71,0-1.4.29-1.94.82-.55.53-.84,1.23-.84,1.94,0,.73.3,1.46.84,2.1.19.22.38.43.6.66-.44,0-.85,0-1.25,0-.37,0-.74,0-1.1,0-1.25,0-2.5,0-3.75,0s-2.42,0-3.62-.04c-.09,0-.33-.06-.51-.16l-.21-.14-.04-.04c-1.28-4.06-5.25-6.88-9.59-6.89-2.39,0-4.88.87-7.06,2.84-8.49-4.77-17.02-9.56-25.52-14.39h-.01c-.04-.05-.14-.18-.19-.33-.06-.15-.09-.31-.09-.4v-.04s0,0,0,0c.06-.5.1-1,.1-1.49,0-4.64-2.87-8.69-7.32-9.91-.93-.26-1.86-.38-2.77-.38-4.04,0-7.71,2.45-9.34,6.53-.14.36-.27.53-.38.61-.11.08-.27.14-.63.14h-.04c-2.18-.02-4.35-.03-6.53-.03-2.13,0-4.26.01-6.38.04h-.02s-.02,0-.02,0h0c-.39,0-.55-.07-.68-.17-.13-.1-.27-.3-.43-.67-.85-1.96-2.04-3.51-3.58-4.59-1.53-1.08-3.39-1.69-5.54-1.81h0s0,0,0,0c0,0,0,0,0,0h0c-.11,0-.21,0-.3,0-.9,0-1.69.24-2.26.73-.58.48-.91,1.19-.94,1.99h0s0,0,0,0h0v.16c-.01.8.32,1.52.91,2,.59.48,1.39.74,2.34.79,2.3.14,4.14,1.79,4.39,3.85.02.17.03.35.03.53,0,1.89-1.26,3.59-3.19,4.18-.39.12-.78.17-1.16.17-1.14,0-2.22-.49-3.03-1.29-.8-.8-1.31-1.9-1.31-3.1,0-.24.02-.48.06-.72.06-.35.1-.69.1-1.04,0-.43-.07-.87-.25-1.28-.19-.41-.5-.79-.92-1.09-.5-.36-1.08-.53-1.65-.53-.62,0-1.22.2-1.71.58-.49.37-.87.93-1,1.62-.27,1.35-.09,2.67-.23,3.85-.03.24-.09.55-.17.79-.04.12-.09.22-.14.29l-.08.09c-8.46,4.82-16.95,9.58-25.16,14.19-1.74-.86-3.3-1.92-5.11-2.38-.8-.2-1.6-.3-2.39-.3-4.35,0-8.21,2.92-9.52,7.29-.09.3-.22.61-.35.96l-.03.09v.1c0,1.13,0,2.26,0,3.38v.1l.04.1c.14.34.29.64.37.92,1.45,4.5,5.41,7.17,9.61,7.17,1.99,0,4.04-.6,5.89-1.87.16-.11.33-.23.51-.36,1.34,1.41,2.67,2.82,4,4.22,1.35,1.42,2.71,2.85,4.1,4.32-3.11,5.02-6.18,9.99-9.25,14.96-.19.32-.46.66-.67,1.1-.44.93-.89,1.65-1.45,2.11-.56.46-1.22.72-2.25.73-.27,0-.57-.02-.89-.06h0c-.31-.04-.62-.06-.93-.06-1.91,0-3.7.74-5.16,1.92-1.47,1.18-2.63,2.81-3.29,4.62-.21.58-.4,1.17-.6,1.74l-.03.08v.09c0,1.03,0,2.05,0,3.08v.11l.05.1c.56,1.25.93,2.72,1.81,3.97,1.98,2.82,4.74,4.33,7.99,4.32.66,0,1.34-.06,2.03-.18h0c.18-.03.33-.05.46-.05.21,0,.32.04.44.11.11.07.25.21.41.48,3.25,5.33,6.54,10.65,9.86,15.94.19.29.24.48.23.58l-.06.22c-.05.09-.15.22-.3.38-2.62,2.68-5.18,5.41-7.74,8.13-.16.16-.28.27-.38.33-.1.06-.16.07-.27.08-.1,0-.25-.03-.47-.11-1.43-.55-2.85-.82-4.21-.82-2.2,0-4.23.7-5.89,2.01-1.66,1.31-2.93,3.21-3.65,5.58,0,.04-.1.18-.24.4l-.07.12v.14c0,1.13,0,2.26,0,3.38v.1l.04.09c.12.3.24.56.31.79,1.35,4.69,5.41,7.45,9.68,7.45,2.25,0,4.56-.76,6.55-2.39.17-.14.34-.29.52-.45,2.41,1.35,4.83,2.7,7.25,4.06,5.97,3.36,11.95,6.73,17.93,10.08.29.16.51.29.62.4.1.11.14.17.15.43l-.02.22c-.08.59-.12,1.17-.12,1.74,0,2.35.71,4.46,2.04,6.14,1.33,1.68,3.27,2.91,5.67,3.59.08.02.23.11.46.23l.11.05h3.6l.09-.03c2.12-.78,4.29-1.7,5.81-3.71.15-.2.35-.42.54-.67.19-.26.38-.55.47-.92.22-.9.55-1.33.98-1.6.43-.27,1.06-.37,1.86-.37.18,0,.38,0,.58.01,1.49.06,2.97.08,4.45.08,1.64,0,3.27-.02,4.9-.02.57,0,1.14,0,1.7,0,.17,0,.47.05.68.12.11.03.2.08.24.1h0c.68,1.88,1.73,3.36,3.07,4.48,1.36,1.14,3,1.94,4.82,2.5l.08.02h2.98l.12-.06c.55-.29,1.04-.64,1.41-1.1.37-.46.6-1.04.6-1.69,0-.3-.05-.61-.14-.93-.22-.82-.75-1.38-1.37-1.65-.61-.27-1.27-.32-1.92-.35-2.4-.09-4.38-2.14-4.36-4.27v-.27c.17-2.23,2.17-4.09,4.27-4.08h.25c2.29.16,4.09,2.18,4.09,4.63v.22s0,0,0,0c0,.12,0,.25,0,.36,0,.96.18,1.75.62,2.34.45.6,1.16.92,1.97.96h0s.21,0,.21,0c.84,0,1.6-.35,2.11-.98.51-.63.78-1.48.84-2.5h0c0-.21.05-.48.05-.79,0-.2-.02-.42-.11-.65-.13-.34-.18-.6-.18-.81,0-.38.13-.6.43-.89.29-.27.76-.54,1.3-.83,8.09-4.49,16.14-9.04,24.25-13.6,1.99,1.73,4.28,2.84,6.91,2.83.54,0,1.09-.04,1.66-.14,1.84-.3,3.43-.98,4.74-2.02,1.31-1.04,2.32-2.43,3.01-4.14.19-.47.36-.68.54-.8.17-.11.42-.18.87-.18h.08s0,0,0,0c1.51.02,3.01.03,4.55.03s3.11,0,4.74,0c-.21.23-.39.43-.57.64-.54.61-.88,1.31-.88,2.05,0,.64.25,1.27.72,1.83.53.65,1.29,1.02,2.07,1.01.7,0,1.41-.29,1.99-.84,1.64-1.55,3.26-3.17,4.74-4.9.66-.76.99-1.67.99-2.59,0-1.07-.45-2.14-1.26-3.03-1.4-1.52-2.86-2.98-4.33-4.41Zm-23.49,11.68h-.04c-1.17,0-2.24-.48-3.02-1.26-.78-.78-1.27-1.83-1.27-2.98v-.1c.07-2.37,1.94-4.19,4.3-4.19h.01s.02,0,.02,0c2.35.02,4.23,1.92,4.23,4.27,0,2.35-1.88,4.25-4.24,4.27Zm-122.5-46.46c-.79-.8-1.29-1.87-1.29-2.93v-.09c.03-1.08.55-2.15,1.35-2.94.79-.79,1.85-1.28,2.88-1.28h.13s0,0,0,0c1.08.04,2.13.57,2.91,1.37.78.8,1.27,1.86,1.27,2.92,0,1.07-.51,2.15-1.32,2.96-.8.81-1.88,1.32-2.95,1.31h-.05c-1.08-.02-2.15-.53-2.94-1.33Zm122.46-52.37h.03c2.36.01,4.24,1.91,4.25,4.26,0,2.36-1.88,4.26-4.22,4.28h-.04c-2.35,0-4.23-1.83-4.3-4.19h0s0-.12,0-.12c0-1.15.48-2.2,1.26-2.98.78-.77,1.85-1.25,3.02-1.25Zm4.28,49.43v.03c0,2.3-1.99,4.28-4.26,4.27h-.02c-1.11,0-2.18-.5-2.98-1.3-.8-.8-1.3-1.88-1.31-3v-.02s0-.02,0-.02c0-1.14.49-2.22,1.29-3.01.79-.79,1.86-1.29,2.99-1.29h.1c2.3.05,4.2,2.01,4.19,4.33Zm-14.55,47.59h0c-8.08,4.63-16.2,9.18-24.31,13.75.66-1.07,1.32-2.14,1.98-3.2,3.09-5,6.21-10,9.27-15.02.16-.26.29-.41.39-.49.1-.07.17-.1.34-.1.12,0,.28.02.5.08,3.81,1.01,7.64,1.94,11.49,2.81.35.08.47.19.54.29.07.1.12.27.12.52v.19c-.02.25-.07.57-.14.81-.04.12-.08.23-.12.29l-.05.07Zm-37.09,12.53c-.11,0-.21-.01-.29-.03l-.09-.03h-.02c-2.85-2.6-5.66-5.25-8.48-7.9,0-.2-.01-.39-.02-.59,2.77-2.55,5.52-5.11,8.31-7.62.12-.13.53-.29.7-.28h.05c1.85.59,3.46.92,4.94.92,1.65,0,3.12-.41,4.48-1.28,1.28-.81,2.47-2.02,3.68-3.62,1.71.42,3.47.85,5.34,1.31-.11.22-.22.43-.32.6-3.52,5.7-7.06,11.4-10.55,17.12-.18.29-.33.48-.46.57-.13.1-.23.14-.44.14-.12,0-.27-.02-.46-.07-.63-.16-1.26-.23-1.88-.23-1.44,0-2.82.38-4.14.93h0c-.06.02-.21.05-.35.05Zm-5.66,6.26c-4.51-.06-9,0-13.48-.07h0s-.22-.09-.37-.24c-.16-.14-.29-.34-.32-.44-.13-.33-.32-.57-.45-.78-.14-.21-.19-.37-.19-.44,0-.06,0-.15.23-.36,2.71-2.52,5.4-5.06,7.94-7.46,2.44,2.31,5.07,4.77,7.62,7.29,0,0,.07.09.1.22.04.13.06.29.06.43,0,.14-.02.26-.04.3-.19.48-.24.93-.37,1.19-.06.13-.12.2-.2.25-.08.05-.22.11-.49.11h-.03Zm-23.66,7.21c-2.34-.01-4.36-2.04-4.35-4.37h0s0-.02,0-.02h0c0-2.35,2.04-4.36,4.37-4.35h.01s.02,0,.02,0c2.34.01,4.33,2.03,4.33,4.39v.02c0,2.36-1.99,4.34-4.35,4.34h-.03Zm4.42-13.53c-.1,0-.18-.02-.21-.03-1.4-.54-2.83-.88-4.31-.88-.66,0-1.32.07-2,.21h0s-.08,0-.08,0c-.11,0-.29-.03-.42-.09l-.16-.08-.04-.03h0c-3.75-5.98-7.47-12.01-11.26-18.15,1.82-.46,3.57-.9,5.35-1.34.2.27.39.54.59.81,1.97,2.67,4.95,4.17,8.07,4.17,1.31,0,2.63-.26,3.92-.81.32-.14.54-.18.7-.18.15,0,.25.03.4.11.14.08.31.22.51.44,2.46,2.6,4.99,5.14,7.48,7.7-1.47,1.5-2.96,3.04-4.45,4.57-1.12,1.15-2.18,2.32-3.33,3.35-.08.09-.48.24-.75.23Zm-37.36-13.19c.11-.54.22-.9.38-1.11.16-.2.38-.36.95-.49,3.72-.78,7.38-1.79,11.05-2.63h0s.14-.01.14-.01c.15,0,.36.04.52.1l.19.09.04.03h0c3.85,6.13,7.65,12.29,11.45,18.46-7.44-4.18-14.75-8.29-22.06-12.39-.56-.31-1.11-.57-1.55-.88-.36-.25-.72-.36-.91-.48-.1-.06-.15-.11-.18-.16-.03-.05-.06-.11-.06-.25,0-.07,0-.16.03-.27Zm37.05-106.92c.11-.02.26-.04.4-.04s.28.01.39.04c.11.02.17.06.17.07,2.68,2.41,5.32,4.89,8.08,7.46-3.02,3.17-5.63,5.93-8.27,8.63h0s-.3.13-.47.13l-.15-.02c-1.72-.56-3.25-.85-4.67-.85-1.65,0-3.14.42-4.52,1.28-1.31.82-2.52,2.03-3.75,3.63-.94-.23-1.9-.46-2.87-.7-.8-.2-1.63-.41-2.5-.63,2.26-3.66,4.45-7.21,6.64-10.74.95-1.55,2.05-3.06,2.91-4.75.45-.89.89-1.64,1.41-2.14.52-.5,1.08-.77,1.94-.78.35,0,.75.05,1.21.17h0c.21.05.43.08.64.08.63,0,1.22-.18,1.8-.37.57-.19,1.13-.38,1.62-.47h0Zm20.52-4.56c-2.58,2.77-5.2,5.49-7.59,8-2.72-2.54-5.36-5-7.94-7.5v-.02c-.04-.06-.06-.21-.06-.34l.02-.2.02-.06v-.02c.29-.5.31-1,.43-1.28.05-.14.11-.21.16-.25.05-.04.14-.09.38-.09h0c.16,0,.32,0,.48,0,2.27,0,4.53,0,6.79,0s4.36,0,6.54.02c.06,0,.14.02.24.09.15.1.32.31.44.55.12.24.19.53.19.74,0,.2-.05.32-.11.37Zm4.08,4.01c1.67.89,3.41,1.43,5.24,1.43.75,0,1.51-.09,2.29-.27.01,0,.15.03.27.1.13.07.24.18.25.2,3.72,5.95,7.41,11.93,11.22,18.09-1.9.47-3.66.9-5.37,1.32-1.25-1.6-2.49-2.82-3.81-3.64-1.4-.87-2.9-1.31-4.53-1.3-1.55,0-3.23.39-5.1,1.09-.07-.05-.13-.1-.18-.14-2.87-2.66-5.74-5.34-8.68-8.07,3.04-3.19,5.71-6,8.4-8.83Zm5.16-12.97h0c1.14,0,2.22.5,3.01,1.29.79.8,1.29,1.88,1.29,3.03v.04c-.02,2.28-2.01,4.27-4.28,4.28h-.03c-1.14,0-2.22-.5-3.02-1.3-.8-.8-1.3-1.88-1.3-3.01v-.05s0,0,0,0c.02-2.27,2.04-4.28,4.29-4.28h.03Zm18.85,89.28c-3.41-3.58-6.78-7.14-10.11-10.65,0,0,0-.01,0-.02v-.07c.21-.99.57-1.47,1.06-1.77.5-.3,1.23-.42,2.18-.42.1,0,.21,0,.32,0,3.02.07,6.05.09,9.07.09,3.53,0,7.07-.03,10.6-.07h.02s.01,0,.01,0h.03c.6,0,.96.1,1.13.25.09.08.16.17.23.34.04.12.07.28.09.47-4.8,3.88-9.65,7.81-14.63,11.84Zm-75.45,4.15c-.89.93-1.75,1.83-2.68,2.81-2.08-3.37-4.13-6.67-6.17-9.96,2.92,2.36,5.86,4.74,8.85,7.16Zm73.97,15.8l-.16.08-.25.05h-.04s0,0,0,0c-2.18-.48-4.36-1-6.51-1.59h0c-.08-.05-.3-.37-.41-.62-.32-.69-.45-1.27-.45-1.77,0-.63.2-1.16.59-1.69.39-.53.98-1.04,1.75-1.54,2.32-1.53,4.35-3.42,6.45-5.12,1.31,1.37,2.63,2.76,4.01,4.21-1.67,2.71-3.3,5.37-4.98,7.99Zm-34.25,11.52c-2.52-2.36-5.25-4.9-7.95-7.49,0-.02-.02-.09-.02-.18,0-.16.03-.37.07-.51.13-.47.36-.96.6-1.51h14.46c.46.98.69,1.56.68,1.86,0,.2-.05.35-.27.64-.22.29-.6.67-1.14,1.19-2.18,2.1-4.42,4.13-6.43,6Zm-27.04-13.3s-.07.11-.17.19l-.26.15c-2.07.55-4.13,1.08-6.21,1.51h-.06c-.1,0-.29-.03-.44-.11-.16-.07-.27-.17-.27-.18-1.56-2.39-3.07-4.81-4.5-7.27-.01,0-.05-.15-.05-.31-.01-.26.1-.58.14-.6,1.11-1.3,2.34-2.54,3.57-3.81.05.03.11.07.14.09,2.94,2.37,5.88,4.75,8.82,7.13-.23,1.11-.43,2.19-.71,3.22Zm-23.24-30.41c.04-.09.18-.27.36-.4.17-.14.38-.21.4-.2,3.74-.03,7.49-.04,11.23-.04s7.35.01,11.02.04c.04,0,.22.05.41.19.18.13.37.32.49.48.26.34.44.86.7,1.49-3.37,3.56-6.7,7.07-10.11,10.67-2.63-2.12-5.21-4.2-7.78-6.28-2.15-1.74-4.32-3.45-6.42-5.22-.04-.03-.14-.16-.2-.31-.07-.15-.1-.32-.1-.39v-.02Zm.15-7.6h0c5.25-4.31,10.55-8.57,15.95-12.93,3.34,3.52,6.55,6.91,9.64,10.17-.67,1.28-1.26,2.44-1.91,3.53-.05.08-.19.23-.34.33-.15.1-.31.15-.33.14-3.63.02-7.26.03-10.89.03-3.9,0-7.79-.01-11.69-.04h0s-.2-.1-.33-.23c-.13-.13-.24-.29-.27-.37v-.09c0-.1.02-.24.06-.36l.07-.14.03-.04Zm49.56-43.58c2.86,2.67,5.65,5.26,8.38,7.89.01.02.05.15.04.31,0,.17-.03.36-.06.49-.11.45-.34.93-.58,1.47-4.84,0-9.66,0-14.46,0-.44-1.01-.66-1.61-.65-1.95,0-.24.06-.42.3-.76.24-.33.65-.77,1.25-1.39,2.01-2.11,4.02-4.2,5.79-6.06Zm8.16,18.46c-.22.29-.6.67-1.14,1.2-2.17,2.11-4.4,4.16-6.43,6.06-2.55-2.4-5.27-4.96-7.95-7.56,0-.02-.02-.09-.02-.18,0-.16.03-.38.07-.51.13-.47.36-.96.6-1.51h14.46c.46.98.69,1.57.68,1.87,0,.2-.05.35-.27.64Zm-15.56-.34h0s0,0,0,0Zm-8.92-.73h-.04c-2.33,0-4.37-1.99-4.4-4.3v-.02s0-.05,0-.05c0-2.32,1.97-4.3,4.34-4.31h.03s0,0,0,0h0c2.39,0,4.33,1.91,4.35,4.29v.04c0,2.4-1.9,4.33-4.29,4.35Zm-.01,34.65h-.05c-2.33,0-4.35-1.98-4.38-4.33v-.02s0-.04,0-.04c-.01-2.31,2.01-4.35,4.32-4.36h.03s0,0,0,0h0c2.33,0,4.35,1.99,4.36,4.33v.04c0,2.37-1.95,4.35-4.3,4.38Zm-.11,34.58c-2.33,0-4.33-2.01-4.32-4.32v-.05s0,0,0,0c.02-2.32,2.05-4.31,4.38-4.3h.03s.01,0,.01,0c2.34.02,4.31,2,4.31,4.32v.07c-.04,2.39-1.98,4.29-4.38,4.29h-.02Zm5.01-13.51s-.27.12-.45.11h-.1s-.04-.02-.04-.02c-1.47-.64-2.93-.97-4.38-.97-1.94,0-3.85.6-5.72,1.76-2.9-2.35-5.75-4.66-8.66-7.01,3.33-3.5,6.56-6.91,9.82-10.35,1.52.71,3.06,1.1,4.61,1.1,1.47,0,2.93-.33,4.39-1.01h0s0,0,0,0h.13s.23.02.23.02l.07.03h0c2.68,2.69,5.34,5.42,8.07,8.21-2.71,2.78-5.33,5.48-7.99,8.13Zm11.99-38.04c2.45,2.31,5.09,4.76,7.66,7.29,0,0,.06.08.1.21.04.12.06.28.06.42,0,.14-.03.27-.04.3h0c-.21.49-.24.96-.37,1.22-.06.13-.11.2-.19.25-.08.05-.21.1-.48.11h-.03c-4.51-.05-9.02,0-13.51-.06h0s-.23-.09-.37-.21l-.18-.19-.05-.07v-.02c-.12-.41-.35-.69-.5-.94-.16-.24-.24-.43-.23-.51,0-.06,0-.15.22-.35,2.7-2.54,5.4-5.08,7.92-7.45Zm-.02,25.18c-2.5-2.34-5.17-4.82-7.79-7.36h0s-.06-.09-.09-.2c-.03-.1-.05-.23-.05-.32v-.09s.01,0,.01,0h0c.3-.52.31-1.04.44-1.35.06-.16.11-.24.17-.29.06-.05.16-.1.42-.1,2.06,0,4.12-.01,6.18-.01,2.53,0,5.05.02,7.57.1l.03.02c.1.08.3.32.47.61.18.29.34.62.49.9.01.01.05.16.05.31,0,.11-.01.22-.04.29l-.03.08h0c-2.65,2.57-5.34,5.08-7.84,7.42Zm7.84,16.95v.06c0,.16-.05.46-.15.78-.09.32-.21.65-.31.92,0,.03-.12.19-.26.3l-.2.13-.06.02h-.01c-2.89.03-5.77.04-8.65.04-1.8,0-3.6,0-5.4,0-.44-1-.67-1.6-.66-1.91,0-.22.06-.38.28-.69.23-.3.62-.7,1.19-1.26,2.12-2.09,4.3-4.11,6.26-5.97,2.6,2.43,5.35,4.95,7.96,7.59Zm-19.88-38.64s-.14.04-.26.04c-.14,0-.3-.03-.35-.05-1.4-.59-2.84-.94-4.34-.94-.64,0-1.3.07-1.96.21h0s-.14.01-.14.01c-.1,0-.22-.02-.32-.05l-.11-.04-.03-.02h0c-3.37-3.5-6.72-7.04-10.15-10.65,2.4-1.94,4.71-3.81,7.03-5.69,1.85,1.13,3.77,1.75,5.75,1.75,1.48,0,2.98-.34,4.49-1.04h.02s.26.05.26.05l.18.09c2.65,2.66,5.28,5.36,7.99,8.14-2.73,2.79-5.37,5.52-8.06,8.2Zm28.92,4.79h.06s.01-.53.01-.53v.53c2.31.03,4.28,2.04,4.27,4.32v.12c-.06,2.26-2.07,4.22-4.28,4.21h-.09s0,0,0,0c-1.07-.02-2.14-.52-2.93-1.28-.79-.76-1.29-1.76-1.29-2.71v-.04c.02-1.3.51-2.45,1.28-3.28.77-.83,1.81-1.33,2.96-1.33Zm-4.18,13.47c1.28.61,2.65.95,4.08.95,1.54,0,3.13-.38,4.72-1.14,3.25,3.42,6.48,6.84,9.82,10.36-2.9,2.35-5.76,4.66-8.65,7-1.85-1.14-3.77-1.76-5.75-1.76-1.47,0-2.97.34-4.48,1.03h-.01s-.18-.02-.3-.07c-.12-.05-.24-.12-.28-.16-2.75-2.47-5.48-4.99-8.31-7.59,3.3-3.1,6.17-5.8,9.16-8.61Zm-.06,25.74c.06-2.58,1.89-4.51,4.19-4.53h.03s0,0,0,0h0c1.19,0,2.28.48,3.08,1.26.79.78,1.28,1.84,1.29,3,0,2.31-1.91,4.22-4.24,4.24h-.04c-1.13,0-2.22-.47-3.02-1.21-.8-.74-1.29-1.72-1.29-2.71v-.06Zm21.02-59.65c-2.41-1.94-4.77-3.82-7.06-5.75l-.04-.06c-.08-.13-.14-.47-.14-.72v-.06s0,0,0,0c.04-1.26.39-2.09.97-2.64.58-.56,1.48-.89,2.75-.98.7-.05,1.37-.27,1.98-.47.62-.2,1.19-.36,1.61-.36.17,0,.32.02.44.07.32.11.69.55,1.04,1.18.35.62.68,1.38,1.09,2.04.61.96,1.21,1.95,1.85,3-1.49,1.58-2.97,3.15-4.49,4.75Zm-16.87-14.11h.01s.01,0,.01,0h.07c2.41,0,4.33,1.87,4.35,4.22,0,2.31-1.93,4.26-4.25,4.28h-.05c-2.35,0-4.26-1.84-4.33-4.16h0s0-.12,0-.12c0-2.24,1.89-4.18,4.19-4.22Zm-4.22,13.34h0c1.47.64,2.92.96,4.35.96,1.95,0,3.86-.61,5.73-1.76,2.31,1.86,4.65,3.75,7.07,5.7-3.04,3.2-6.04,6.31-8.96,9.49-.4.44-.76.73-1.13.92-.38.19-.78.29-1.34.29-.15,0-.3,0-.46-.02h0c-.23-.02-.45-.03-.67-.03-1.66,0-3.26.46-4.55.67-2.89-2.69-5.72-5.33-8.6-8.02,2.68-2.75,5.26-5.43,7.87-8.04h0s.1-.08.22-.12c.12-.04.26-.07.36-.07h.08s.02,0,.02,0Zm37.77,21.96c-.15.17-.36.37-.57.51-.21.14-.41.21-.49.2-3.64.03-7.27.04-10.91.04-3.69,0-7.37-.01-11.05-.04-.07,0-.29-.07-.49-.21-.2-.14-.4-.33-.5-.48-.64-.96-1.18-2.04-1.85-3.29,3.15-3.31,6.36-6.7,9.66-10.17.59.46,1.15.9,1.69,1.34,4.66,3.76,9.32,7.53,13.98,11.3.21.16.41.31.53.42l.11.14v.03s.02.06-.11.21Zm-12.25-17.6c1.06-1.11,2.09-2.2,3.16-3.32,2.47,3.99,4.88,7.88,7.28,11.76-3.44-2.78-6.9-5.58-10.44-8.44Zm1.91-16.18c2.51-.62,4.92-1.21,7.3-1.8-1.65,1.74-3.32,3.5-5.1,5.37-.75-1.22-1.46-2.37-2.2-3.57Zm-74.26,1.64s.27-.1.42-.09h.09c.88.14,1.81.53,2.87.64,1.39.14,2.54.45,3.3,1.04.75.59,1.2,1.43,1.21,2.94,0,.18-.02.38-.03.58-2.23,1.8-4.69,3.79-7.23,5.84-1.54-1.62-2.98-3.15-4.49-4.74,1.28-2.08,2.54-4.16,3.86-6.21Zm84.13-10.9c-.09.46-.19.73-.32.88-.13.15-.33.28-.8.39-3.76.83-7.46,1.83-11.19,2.68h-.16c-.16.02-.37-.02-.52-.08l-.19-.09-.04-.03h0c-3.86-6.14-7.67-12.31-11.49-18.48,2.12,1.19,4.25,2.39,6.37,3.58,5.84,3.28,11.67,6.58,17.53,9.84.32.18.55.33.67.47.12.14.17.24.18.5,0,.09-.01.2-.04.34Zm-87.93,25.44c-3.52,2.85-6.99,5.66-10.45,8.46,2.4-3.87,4.8-7.77,7.3-11.79,1.05,1.11,2.08,2.2,3.16,3.34Zm-1.91-16.18c-.74,1.19-1.46,2.36-2.21,3.57-1.74-1.84-3.43-3.61-5.1-5.38,2.38.59,4.78,1.18,7.31,1.8Zm79.67,57.22c2.99-2.41,5.91-4.78,8.82-7.13-2.02,3.27-4.06,6.56-6.15,9.95-.91-.96-1.79-1.88-2.67-2.82Zm-88.96-65.43s-.22-.27-.32-.57c-.11-.3-.2-.65-.23-.9,0-.03.08-.22.21-.38.13-.16.31-.32.43-.38,6.53-3.72,13.09-7.39,19.64-11.07,1.46-.82,2.93-1.64,4.39-2.46-3.88,6.28-7.77,12.56-11.68,18.88-4.21-1.02-8.35-1.99-12.44-3.11Zm5.94,77.51c1.13,1.84,2.21,3.58,3.34,5.41-3.74.92-7.34,1.8-10.93,2.67,2.49-2.65,4.98-5.31,7.59-8.08Zm86.64.01c2.57,2.71,5.08,5.36,7.58,8-3.57-.68-7.12-1.71-10.91-2.59,1.15-1.86,2.22-3.6,3.33-5.4Zm-103.04-72.88h-.01c-1.15,0-2.22-.49-3-1.26-.78-.78-1.27-1.84-1.27-2.97,0-2.29,1.92-4.16,4.29-4.16h.03s.01,0,.01,0c2.3.02,4.19,1.89,4.22,4.13v.05c0,1.12-.49,2.17-1.27,2.95-.78.78-1.85,1.26-2.99,1.27Zm-4.29,86.1v-.09c.05-2.29,2-4.17,4.3-4.16h.07c2.23.03,4.17,1.99,4.18,4.21v.04c0,1.13-.48,2.16-1.26,2.92-.78.76-1.85,1.23-3.02,1.23h-.02c-2.31,0-4.26-1.93-4.25-4.14Z"/>
        </g>
      </g>
    </mask>
  </defs>
  <g class="cls-3">
    <path class="cls-1" d="m728.83,310.92h-.44c-6.26,0-12.12-1.26-17.48-3.52-5.35-2.26-10.19-5.55-14.27-9.63-4.08-4.09-7.37-8.92-9.63-14.27-2.26-5.35-3.51-11.21-3.52-17.46h0s0-22.05,0-22.05h-342.99v22.06h0c0,6.25-1.26,12.11-3.52,17.46-2.26,5.35-5.54,10.18-9.63,14.27-4.09,4.08-8.93,7.37-14.27,9.63-5.35,2.26-11.21,3.51-17.46,3.52h-22.05v230.63s0,.02,0,.03c0,32.87,6.68,64.27,18.75,92.81,12.07,28.54,29.53,54.23,51.09,75.78h0c21.56,21.56,47.24,39.01,75.78,51.09,28.54,12.07,59.94,18.75,92.82,18.75,32.87,0,64.28-6.68,92.82-18.75,28.54-12.07,54.23-29.53,75.78-51.09h0c21.56-21.55,39.02-47.24,51.09-75.78,11.86-28.04,18.5-58.86,18.73-91.11l.02-.11v-232.26h-21.61Z"/>
  </g>
</svg>