<?xml version="1.0" encoding="UTF-8"?>
<svg id="Layer_1" data-name="Layer 1" xmlns="http://www.w3.org/2000/svg" xmlns:xlink="http://www.w3.org/1999/xlink" viewBox="0 0 2000 2000">
  <defs>
    <style>
      .cls-1 {
        filter: url(#luminosity-noclip);
      }

      .cls-2 {
        mask: url(#mask);
      }

      .cls-3 {
        fill: #387951;
      }
    </style>
    <filter id="luminosity-noclip" x="339.06" y="806.04" width="345.12" height="387.93" color-interpolation-filters="sRGB" filterUnits="userSpaceOnUse">
      <feFlood flood-color="#fff" result="bg"/>
      <feBlend in="SourceGraphic" in2="bg"/>
    </filter>
    <mask id="mask" x="339.06" y="806.04" width="345.12" height="387.93" maskUnits="userSpaceOnUse">
      <g class="cls-1">
        <g>
          <path d="m668.23,870.44h-4.79v150.96c0,41.94-16.98,79.86-44.46,107.35-27.49,27.48-65.41,44.46-107.35,44.46-41.94,0-79.86-16.98-107.35-44.46-27.48-27.49-44.46-65.41-44.46-107.35v-150.96h-4.79v4.79c14.68,0,28.02-5.97,37.64-15.59,9.63-9.62,15.59-22.95,15.59-37.64h-4.79v4.79h216.31v-4.79h-4.79c0,14.68,5.97,28.02,15.59,37.64,9.62,9.62,22.96,15.59,37.65,15.59v-4.79h-4.79,4.79v-4.79c-12.08,0-22.96-4.88-30.88-12.79-7.91-7.91-12.79-18.8-12.79-30.86v-4.79h-225.88v4.79c0,12.07-4.88,22.95-12.79,30.86-7.91,7.91-18.8,12.78-30.87,12.79h-4.79v155.75c0,44.55,18.07,84.93,47.27,114.12,29.19,29.2,69.57,47.27,114.12,47.27,44.55,0,84.93-18.07,114.12-47.27,29.2-29.19,47.27-69.57,47.27-114.12v-155.75h-4.79v4.79Z"/>
          <g>
            <polygon points="506.84 1021.35 506.84 1178 516.41 1178 516.41 1021.35 511.63 1026.13 506.84 1021.35"/>
            <polygon points="516.41 967.19 516.41 822 506.84 822 506.84 967.19 511.63 962.41 516.41 967.19"/>
            <polygon points="538.7 999.06 668.23 999.06 668.23 989.48 538.7 989.48 543.49 994.27 538.7 999.06"/>
            <polygon points="484.55 989.48 355.03 989.48 355.03 999.06 484.55 999.06 479.76 994.27 484.55 989.48"/>
          </g>
          <polygon points="511.63 1026.13 515.01 1022.75 486.53 994.27 511.63 969.18 536.72 994.27 508.24 1022.75 511.63 1026.13 515.01 1022.75 511.63 1026.13 515.01 1029.52 550.26 994.27 511.63 955.63 472.99 994.27 511.63 1032.91 515.01 1029.52 511.63 1026.13"/>
          <path d="m402.54,878.05h10.56v18.03h4.79l-2.02-4.34c-8.08,3.75-14.9,9.71-19.72,17.1-4.82,7.39-7.62,16.25-7.62,25.71,0,13.03,5.29,24.87,13.83,33.4,8.53,8.54,20.37,13.83,33.4,13.83,13.02,0,24.86-5.29,33.39-13.83,8.54-8.53,13.84-20.37,13.84-33.4,0-9.47-2.8-18.32-7.62-25.71-4.82-7.39-11.64-13.35-19.72-17.1l-2.02,4.34h4.79v-18.03h10.56v-9.58h-20.14s0,30.66,0,30.66l2.77,1.29c6.43,2.98,11.89,7.74,15.72,13.64,3.84,5.9,6.06,12.91,6.07,20.49,0,10.42-4.21,19.8-11.03,26.63-6.83,6.82-16.21,11.02-26.62,11.03-10.42,0-19.8-4.21-26.63-11.03-6.82-6.83-11.02-16.21-11.03-26.63,0-7.57,2.23-14.59,6.07-20.49,3.84-5.9,9.29-10.66,15.72-13.64l2.77-1.29v-30.66h-20.14v9.58h0Z"/>
          <path d="m389.94,937.94c3.26,3.26,6.67,5.64,10.18,7.18,3.51,1.54,7.11,2.22,10.6,2.22,5.11,0,9.92-1.39,14.45-3.28,6.78-2.85,13.08-6.87,19-10.02,2.95-1.58,5.79-2.95,8.46-3.88,2.67-.94,5.14-1.45,7.41-1.45,2.36.01,4.52.5,6.85,1.78,2.32,1.29,4.85,3.45,7.52,6.96l7.63-5.79c-3.27-4.31-6.76-7.47-10.49-9.55-3.73-2.08-7.69-3-11.5-2.99-4.92,0-9.54,1.42-13.92,3.3-6.57,2.85-12.79,6.85-18.78,9.99-2.99,1.57-5.9,2.94-8.68,3.88-2.79.95-5.42,1.47-7.92,1.47-2.28,0-4.46-.41-6.75-1.41-2.28-1-4.69-2.62-7.26-5.19l-6.77,6.77h0Z"/>
          <path d="m429.29,919.12c0,2.64-2.14,4.79-4.79,4.79s-4.79-2.14-4.79-4.79,2.14-4.79,4.79-4.79,4.79,2.14,4.79,4.79Z"/>
          <path d="m445.86,904.59c0,2.29-1.86,4.15-4.16,4.15s-4.15-1.86-4.15-4.15,1.86-4.15,4.15-4.15,4.16,1.86,4.16,4.15Z"/>
          <path d="m443.23,877.97c0,.84-.68,1.53-1.53,1.53s-1.52-.68-1.52-1.53.68-1.53,1.52-1.53,1.53.68,1.53,1.53Z"/>
          <path d="m434.01,890.37c0,1.83-1.48,3.31-3.31,3.31s-3.31-1.48-3.31-3.31,1.48-3.31,3.31-3.31,3.31,1.48,3.31,3.31Z"/>
          <path d="m605.32,920.67h-4.79c0,3.2-1.28,6.06-3.38,8.17-2.1,2.1-4.96,3.38-8.17,3.38-3.2,0-6.06-1.29-8.17-3.38-2.1-2.1-3.38-4.96-3.38-8.17,0-3.2,1.29-6.06,3.38-8.16,2.1-2.1,4.96-3.38,8.17-3.38,3.2,0,6.06,1.28,8.17,3.38,2.1,2.1,3.38,4.96,3.38,8.16h9.58c0-5.82-2.37-11.13-6.19-14.94-3.81-3.82-9.12-6.19-14.94-6.19-5.82,0-11.13,2.37-14.94,6.19-3.82,3.81-6.19,9.12-6.19,14.94,0,5.82,2.37,11.13,6.19,14.94,3.81,3.81,9.12,6.19,14.94,6.19,5.82,0,11.13-2.37,14.94-6.19,3.82-3.81,6.19-9.12,6.19-14.94h-4.79Z"/>
          <path d="m620.67,947.46l-15.34-15.34-6.77,6.77,14.66,14.66c1.81-2.71,4.4-4.85,7.45-6.09Z"/>
          <path d="m643.15,962.59h-4.79c0,3.2-1.29,6.06-3.38,8.17-2.1,2.1-4.96,3.38-8.17,3.38-3.2,0-6.06-1.28-8.17-3.38-2.1-2.1-3.38-4.96-3.38-8.17,0-3.2,1.29-6.06,3.38-8.17,2.11-2.1,4.96-3.38,8.17-3.38,3.2,0,6.06,1.29,8.17,3.38,2.1,2.1,3.38,4.96,3.38,8.17h9.58c0-5.82-2.37-11.13-6.19-14.94-3.81-3.82-9.12-6.19-14.94-6.19-5.82,0-11.13,2.37-14.94,6.19-3.82,3.81-6.19,9.12-6.19,14.94,0,5.82,2.37,11.13,6.19,14.94,3.81,3.82,9.12,6.19,14.94,6.19,5.82,0,11.13-2.37,14.94-6.19,3.82-3.81,6.19-9.12,6.19-14.94h-4.79Z"/>
          <path d="m588.98,882.55c-1.67,0-3.27-.25-4.79-.72v22.5h9.58v-22.5c-1.51.46-3.12.72-4.79.72Z"/>
          <path d="m605.32,866.21h-4.79c0,3.2-1.28,6.06-3.38,8.17-2.1,2.1-4.96,3.38-8.17,3.38-3.2,0-6.06-1.28-8.17-3.38-2.1-2.1-3.38-4.96-3.38-8.17,0-3.2,1.28-6.06,3.38-8.16,2.1-2.1,4.96-3.38,8.17-3.38,3.2,0,6.06,1.29,8.17,3.38,2.1,2.1,3.38,4.96,3.38,8.16h9.58c0-5.82-2.37-11.13-6.19-14.94-3.81-3.82-9.12-6.19-14.94-6.19-5.82,0-11.13,2.37-14.94,6.19-3.82,3.81-6.19,9.12-6.19,14.94,0,5.82,2.37,11.13,6.19,14.94,3.81,3.81,9.12,6.19,14.94,6.19,5.82,0,11.13-2.37,14.94-6.19,3.82-3.81,6.19-9.12,6.19-14.94h-4.79Z"/>
          <path d="m566.25,943.45l12.11-10.29-6.2-7.3-12.12,10.29c2.73,1.75,4.91,4.28,6.21,7.29Z"/>
          <path d="m567.59,949.91h-4.79c0,3.2-1.29,6.06-3.38,8.17-2.1,2.1-4.96,3.38-8.17,3.38-3.2,0-6.06-1.28-8.16-3.38-2.1-2.1-3.38-4.96-3.38-8.17,0-3.2,1.29-6.06,3.38-8.17,2.1-2.1,4.96-3.38,8.16-3.38,3.2,0,6.06,1.29,8.17,3.38,2.1,2.1,3.38,4.96,3.38,8.17h9.58c0-5.82-2.37-11.13-6.19-14.94-3.81-3.82-9.12-6.19-14.94-6.19-5.82,0-11.13,2.37-14.94,6.19-3.81,3.81-6.19,9.12-6.19,14.94,0,5.82,2.37,11.13,6.19,14.94,3.81,3.82,9.12,6.19,14.94,6.19,5.82,0,11.13-2.37,14.94-6.19,3.81-3.81,6.19-9.12,6.19-14.94h-4.79Z"/>
          <g>
            <path d="m523.25,1107.99c-.16-9.77,2.87-18.33,10.01-25.15,6.49-6.19,14.21-8.29,23.08-6.53,8.27,1.64,9.52,9.67,6.52,15.1-1.83,3.31-4.73,5.46-7.97,7.21-6.21,3.35-12.89,5.47-19.64,7.38-1.56.44-2.13.88-1.88,2.67.52,3.77,1.46,7.24,4.37,9.9,2.02,1.85,4.41,2.44,7.07,2.13,3.55-.41,6.78-1.68,9.74-3.66.53-.35,1.1-.65,1.67-.92,1.34-.63,2.5-.43,3.31.88.78,1.27.29,2.43-.71,3.22-1.49,1.18-3.09,2.26-4.73,3.24-5.59,3.33-11.56,4.96-18.1,3.79-6.87-1.22-11.24-5.82-12.34-12.79-.34-2.16-.38-4.31-.39-6.48Zm23.63-26.73c-1.71.24-3.82.7-5.54,2.18-5.24,4.5-7.1,10.55-7.85,17.11-.14,1.18.34,1.48,1.43,1.1,4.65-1.6,9.3-3.18,13.57-5.66,1.96-1.14,3.6-2.62,4.59-4.73,2.22-4.74-.78-9.97-6.2-10Z"/>
            <path d="m609.02,1041.54c8.1.45,16.89-.06,25.69-.02,2.16,0,4.33-.22,6.49-.37,1.19-.08,2.2-.57,3.02-1.46.57-.61,1.19-1.13,2.1-1.2,1.48-.1,2.18.51,2.01,2.01-.23,2.02-.49,4.04-.69,6.07-.13,1.3-.94,1.91-2.07,1.66-2.15-.46-4.36-.05-6.47-.48-1.81-.37-2.33.35-2.78,1.86-1.68,5.56-2.87,11.23-3.98,16.92-.32,1.62-.55,3.26-.73,4.91-.09.86-.29,1.86.68,2.42.92.53,1.55-.22,2.23-.65,1.04-.66,1.81-1.6,2.57-2.55.42-.52.94-.95,1.63-.45.66.49,1.02,1.11.62,1.99-1.52,3.37-7.39,7.23-10.89,7.14-2.6-.07-4.27-1.68-4.42-4.3-.21-3.55.63-6.98,1.41-10.39,1.14-4.97,2.38-9.91,3.67-14.84.38-1.46.11-2.02-1.44-1.96-1.98.08-3.96.12-5.93.02-1.43-.07-2.05.54-2.4,1.85-2.42,8.89-5.93,17.35-9.93,25.64-1.12,2.31-2.63,3.67-5.18,3.85-1.65.12-3.3.32-4.95.42-.64.04-1.34-.06-1.62-.77-.28-.69.14-1.24.61-1.69.5-.49.99-1.02,1.58-1.38,5.01-2.98,8.03-7.56,10.22-12.77,1.83-4.35,3.19-8.87,4.63-13.36.44-1.39.06-1.95-1.37-1.72-2.66.44-5.34.28-8.02.35-2.09.06-2.85,1.03-2.34,3.11.28,1.17.69,2.33,1.12,3.46.33.86.18,1.49-.62,1.94-.93.51-1.43-.08-1.86-.77-1.66-2.62-2.82-5.44-3.16-8.53-.42-3.87,1.47-5.96,5.31-5.98,1.53,0,3.06,0,5.29,0Z"/>
            <path d="m587.88,1047.39c-.46,3.84-1.93,8.19-3.03,12.63-.97,3.89-1.9,7.79-2.88,11.67-.2.78-.36,1.52.39,2.08.8.6,1.46.03,2.1-.34,1.29-.75,2.14-1.99,3.22-2.97.48-.44.95-.64,1.5-.13.47.45.9.89.63,1.65-1.07,3.02-7.6,7.41-10.97,7.35-3.13-.05-4.74-1.95-4.01-5,1.71-7.18,3.55-14.33,5.3-21.5.3-1.23.54-2.5.61-3.76.07-1.31-.7-1.69-1.88-1.16-1.39.62-2.26,1.84-3.29,2.88-.62.63-1.12,1.53-2.17.61-.99-.86-.61-1.64.07-2.47,1.95-2.39,4.11-4.52,6.87-5.98,1.5-.8,3.09-.81,4.66-.55,2.14.36,2.91,1.61,2.89,4.98Z"/>
            <path d="m580.72,1026.51c.02-2.99,2.85-5.65,6.02-5.65s4.99,1.79,4.93,4.57c-.06,2.78-3.28,6-5.97,5.96-2.9-.04-5-2.1-4.98-4.88Z"/>
          </g>
          <path d="m498.43,1096.83c-.45-.44-.99-.68-1.53-.68-.51,0-1,.22-1.39.6-.41.39-.63.9-.62,1.42,0,.52.21,1.05.6,1.5.13.15.26.29.4.44-1.43,0-2.74,0-4.04,0-.17,0-.36-.01-.56-.01-.12,0-.24,0-.37.02h0c-.28.03-.55.05-.79.05-.6,0-1.07-.1-1.49-.37-.42-.26-.81-.71-1.18-1.46-1.13-2.29-3.47-3.44-5.93-3.44-.96,0-1.94.17-2.88.52-.08.03-.23.06-.37.05-.11,0-.23-.01-.31-.04l-.1-.04h-.02s0-.02,0-.02c-1.96-1.97-3.85-4-5.77-6.02-.09-.1-.19-.21-.3-.34.27-.45.54-.9.82-1.35,2.18-3.53,4.38-7.05,6.55-10.6.12-.2.22-.32.31-.37.09-.06.16-.08.32-.09.08,0,.18.01.3.03.48.09.96.14,1.43.14,2.9,0,5.51-1.73,6.64-4.54.13-.32.24-.47.36-.55.11-.08.27-.13.58-.13h.06s0,0,0,0c1.4.03,2.79.03,4.19.03h1.55c.34,0,.68,0,1.01,0-.14.15-.27.3-.4.45-.38.45-.59.97-.59,1.49,0,.49.19.97.55,1.34.4.42.94.65,1.5.65.48,0,.97-.18,1.36-.55,1.21-1.15,2.42-2.34,3.51-3.63.46-.54.69-1.17.69-1.81,0-.79-.34-1.58-.95-2.24-.98-1.07-2.01-2.11-3.05-3.12-.46-.45-1.03-.69-1.59-.69-.53,0-1.05.22-1.43.63-.37.38-.57.86-.57,1.36,0,.54.23,1.09.65,1.56.12.14.25.28.39.43-.85,0-1.59,0-2.34,0-.88,0-1.76,0-2.65,0-.64,0-1.28,0-1.93.02h-.06c-.26,0-.39-.04-.48-.11-.09-.06-.19-.19-.3-.46-1.18-2.97-3.78-4.69-6.82-4.68-.45,0-.9.04-1.37.11h-.05c-.1,0-.27-.04-.42-.1-.15-.06-.26-.17-.27-.2-2.77-4.4-5.5-8.83-8.29-13.35,1.95-2.05,3.89-4.11,5.83-6.15,1.91,1,3.61,1.52,5.14,1.53,1.41,0,2.67-.45,3.77-1.36,1.05-.86,1.94-2.12,2.74-3.76h7.44c-.12.13-.24.26-.36.4-.4.46-.61.99-.61,1.52,0,.48.18.94.52,1.31.4.44.94.7,1.5.7.5,0,1.01-.21,1.43-.61,1.16-1.1,2.31-2.24,3.37-3.45.51-.58.77-1.27.77-1.97,0-.74-.3-1.48-.85-2.1-1.02-1.14-2.1-2.23-3.2-3.29-.44-.43-.99-.66-1.52-.66-.52,0-1.02.21-1.4.6-.39.38-.61.89-.61,1.4,0,.53.21,1.06.61,1.52.13.16.27.31.43.48-.32,0-.62,0-.91,0-.27,0-.53,0-.79,0-.91,0-1.81,0-2.71,0s-1.75,0-2.62-.03c-.07,0-.24-.05-.37-.12l-.15-.1-.03-.03c-.93-2.94-3.8-4.98-6.94-4.98-1.73,0-3.53.63-5.11,2.05-6.15-3.45-12.32-6.92-18.47-10.41h-.01s-.1-.13-.14-.24c-.04-.11-.07-.23-.07-.29v-.03s0,0,0,0c.05-.36.07-.72.07-1.07,0-3.36-2.08-6.29-5.3-7.17-.67-.19-1.34-.27-2-.27-2.93,0-5.58,1.77-6.76,4.72-.1.26-.2.38-.28.44-.08.06-.19.1-.45.1h-.03c-1.58-.01-3.15-.02-4.73-.02-1.54,0-3.08,0-4.62.03h-.02s-.01,0-.01,0h0c-.28,0-.4-.05-.49-.12-.09-.07-.2-.22-.31-.49-.61-1.42-1.48-2.54-2.59-3.32-1.11-.78-2.46-1.22-4.01-1.31h0s0,0,0,0c0,0,0,0,0,0h0c-.08,0-.15,0-.22,0-.65,0-1.22.18-1.64.53-.42.35-.66.86-.68,1.44h0s0,0,0,0h0v.12c0,.58.23,1.1.66,1.45.43.35,1,.53,1.69.57,1.66.1,2.99,1.29,3.17,2.78.02.13.02.25.02.38,0,1.37-.91,2.6-2.31,3.03-.28.09-.56.12-.84.13-.82,0-1.61-.36-2.19-.94-.58-.58-.95-1.38-.95-2.24,0-.17.01-.35.05-.52.04-.25.07-.5.07-.75,0-.31-.05-.63-.18-.93-.13-.3-.36-.57-.67-.79-.36-.26-.78-.39-1.19-.38-.45,0-.88.14-1.24.42-.36.27-.63.68-.73,1.17-.19.98-.07,1.93-.16,2.78-.02.17-.06.4-.13.57-.03.09-.07.16-.1.21l-.06.07c-6.12,3.49-12.26,6.93-18.21,10.27-1.26-.62-2.39-1.39-3.7-1.72-.58-.15-1.16-.21-1.73-.21-3.15,0-5.94,2.12-6.89,5.28-.07.22-.16.44-.25.69l-.02.06v.07c0,.82,0,1.63,0,2.45v.07l.03.07c.1.25.21.47.27.67,1.05,3.26,3.92,5.19,6.95,5.19,1.44,0,2.92-.43,4.26-1.35.11-.08.24-.16.37-.26.97,1.02,1.93,2.04,2.89,3.05.98,1.03,1.96,2.06,2.97,3.13-2.25,3.64-4.47,7.23-6.7,10.83-.14.23-.34.48-.49.8-.32.67-.64,1.19-1.05,1.53-.4.33-.88.52-1.63.52-.2,0-.41-.01-.65-.04h0c-.23-.03-.45-.04-.67-.04-1.38,0-2.68.54-3.74,1.39-1.06.86-1.9,2.03-2.38,3.35-.15.42-.29.84-.44,1.26l-.02.06v.07c0,.74,0,1.48,0,2.23v.08l.03.07c.4.9.68,1.97,1.31,2.87,1.44,2.04,3.43,3.14,5.78,3.13.48,0,.97-.04,1.47-.13h0c.13-.02.24-.04.33-.04.15,0,.23.03.32.08.08.05.18.15.3.34,2.35,3.86,4.73,7.7,7.13,11.53.13.21.17.34.17.42l-.05.16c-.04.07-.11.16-.22.27-1.89,1.94-3.75,3.91-5.6,5.89-.11.12-.2.2-.28.24-.07.04-.12.05-.2.06-.07,0-.18-.02-.34-.08-1.04-.4-2.06-.59-3.05-.59-1.59,0-3.06.51-4.26,1.46-1.2.95-2.12,2.32-2.64,4.04,0,.03-.07.13-.17.29l-.05.09v.1c0,.82,0,1.63,0,2.45v.07l.03.07c.09.22.18.41.22.57.98,3.39,3.92,5.39,7.01,5.39,1.63,0,3.3-.55,4.74-1.73.12-.1.25-.21.38-.32,1.75.98,3.5,1.96,5.25,2.94,4.32,2.43,8.65,4.87,12.97,7.3.21.12.37.21.45.29.07.08.1.12.11.31v.16c-.07.43-.1.85-.1,1.26,0,1.7.52,3.23,1.48,4.44.96,1.21,2.37,2.11,4.1,2.6.06.01.17.08.33.16l.08.04h2.61l.06-.02c1.54-.57,3.11-1.23,4.21-2.69.11-.14.25-.3.39-.49.14-.19.28-.4.34-.67.16-.65.4-.96.71-1.16.31-.19.77-.27,1.35-.27.13,0,.27,0,.42.01,1.07.04,2.15.06,3.22.06,1.19,0,2.37-.01,3.55-.01.41,0,.82,0,1.23,0,.13,0,.34.03.5.09.08.02.14.06.18.08h0c.49,1.36,1.25,2.43,2.23,3.25.98.83,2.17,1.4,3.49,1.81l.06.02h2.16l.08-.04c.4-.21.75-.47,1.02-.8.27-.33.44-.75.43-1.22,0-.22-.03-.44-.1-.67-.16-.6-.54-1-.99-1.19-.44-.2-.92-.23-1.39-.25-1.74-.06-3.17-1.55-3.16-3.09v-.2c.12-1.61,1.57-2.96,3.09-2.95h.18c1.66.12,2.96,1.58,2.96,3.35v.16s0,0,0,0c0,.09,0,.18,0,.26,0,.69.13,1.26.45,1.7.32.44.84.66,1.43.7h0s.15,0,.15,0c.61,0,1.16-.25,1.53-.71.37-.45.56-1.07.61-1.81h0c0-.15.04-.35.04-.57,0-.14-.01-.31-.08-.47-.1-.25-.13-.44-.13-.59,0-.28.1-.44.31-.64.21-.2.55-.39.94-.6,5.86-3.25,11.68-6.54,17.55-9.84,1.44,1.25,3.09,2.05,5,2.05.39,0,.79-.03,1.2-.1,1.33-.22,2.48-.71,3.43-1.46.95-.75,1.68-1.76,2.18-3,.14-.34.26-.49.39-.58.12-.08.3-.13.63-.13h.06s0,0,0,0c1.09.02,2.18.02,3.29.02s2.25,0,3.43,0c-.15.16-.28.31-.41.46-.39.44-.64.95-.64,1.49,0,.46.18.92.52,1.32.38.47.93.73,1.5.73.51,0,1.02-.21,1.44-.61,1.19-1.13,2.36-2.29,3.43-3.54.48-.55.72-1.21.71-1.87,0-.78-.32-1.55-.91-2.19-1.01-1.1-2.07-2.16-3.14-3.19Zm-17,8.45h-.03c-.85,0-1.62-.35-2.19-.91-.57-.56-.92-1.33-.92-2.15v-.07c.05-1.71,1.4-3.03,3.11-3.04h.01s.01,0,.01,0c1.7.01,3.06,1.39,3.06,3.09,0,1.7-1.36,3.07-3.07,3.09Zm-88.66-33.63c-.57-.58-.93-1.35-.93-2.12v-.07c.02-.79.4-1.56.97-2.13.57-.57,1.34-.93,2.09-.93h.1s0,0,0,0c.78.03,1.54.41,2.11.99.57.58.92,1.35.92,2.11,0,.78-.37,1.56-.95,2.14-.58.58-1.36.95-2.13.95h-.04c-.78-.01-1.56-.38-2.13-.96Zm88.63-37.9h.02c1.71.01,3.07,1.38,3.08,3.08,0,1.71-1.36,3.08-3.06,3.1h-.03c-1.7,0-3.06-1.32-3.11-3.03h0s0-.09,0-.09c0-.83.35-1.59.91-2.15.56-.56,1.34-.91,2.19-.91Zm3.1,35.77v.02c0,1.67-1.44,3.1-3.08,3.09h-.01c-.8,0-1.58-.37-2.15-.94-.58-.58-.94-1.36-.95-2.17h0s0-.02,0-.02c0-.82.36-1.6.93-2.18.57-.57,1.35-.93,2.16-.93h.07c1.66.04,3.04,1.46,3.03,3.13Zm-10.53,34.44h0c-5.85,3.35-11.72,6.65-17.59,9.95.48-.77.95-1.55,1.43-2.32,2.24-3.62,4.49-7.23,6.71-10.87.11-.19.21-.3.28-.35.07-.05.12-.07.25-.07.09,0,.21.02.36.06,2.76.73,5.53,1.4,8.31,2.03.25.06.34.14.39.21.05.07.08.19.08.38v.14c-.02.18-.05.41-.1.59-.03.09-.06.17-.09.21l-.03.05Zm-26.84,9.06c-.08,0-.15,0-.21-.02l-.06-.02h-.01c-2.07-1.88-4.1-3.8-6.14-5.71,0-.14-.01-.29-.02-.43,2-1.84,4-3.69,6.01-5.51.09-.09.38-.21.51-.2h.04c1.34.43,2.5.66,3.57.66,1.19,0,2.26-.3,3.25-.92.93-.59,1.79-1.46,2.66-2.62,1.24.3,2.51.62,3.87.95-.08.16-.16.31-.24.43-2.55,4.13-5.11,8.25-7.64,12.39-.13.21-.24.34-.34.42-.1.07-.17.1-.32.1-.09,0-.2-.01-.33-.05-.46-.12-.91-.17-1.36-.17-1.04,0-2.04.28-3,.68h0s-.15.04-.25.04Zm-4.1,4.53c-3.26-.04-6.51,0-9.76-.05h0s-.16-.07-.27-.17c-.11-.1-.21-.25-.23-.32-.09-.24-.23-.41-.33-.57-.1-.15-.14-.26-.14-.32,0-.05,0-.11.16-.26,1.96-1.83,3.91-3.66,5.75-5.4,1.77,1.67,3.67,3.45,5.52,5.28,0,0,.05.06.07.16.03.09.04.21.04.31,0,.1-.02.19-.03.22-.14.35-.17.68-.27.86-.05.09-.09.14-.15.18-.06.04-.16.08-.35.08h-.02Zm-17.12,5.22c-1.69,0-3.15-1.48-3.15-3.16h0s0-.02,0-.02h0c0-1.7,1.47-3.16,3.16-3.15h0s.01,0,.01,0c1.69,0,3.14,1.47,3.13,3.17v.02c0,1.71-1.44,3.14-3.15,3.14h-.02Zm3.2-9.79c-.07,0-.13-.01-.15-.02-1.01-.39-2.05-.64-3.12-.64-.47,0-.96.05-1.45.15h0s-.06,0-.06,0c-.08,0-.21-.02-.31-.06l-.12-.06-.03-.02h0c-2.72-4.33-5.4-8.69-8.15-13.14,1.32-.33,2.59-.65,3.88-.97.14.2.29.39.43.59,1.42,1.93,3.59,3.02,5.84,3.02.95,0,1.91-.19,2.84-.59.23-.1.39-.13.51-.13.11,0,.18.02.29.08.1.06.22.16.37.32,1.78,1.88,3.61,3.72,5.41,5.58-1.06,1.09-2.14,2.2-3.22,3.31-.81.83-1.58,1.68-2.41,2.42-.06.06-.35.17-.54.16Zm-27.04-9.55c.08-.39.16-.65.27-.8.11-.15.27-.26.69-.35,2.69-.56,5.34-1.3,7.99-1.9h0s.1,0,.1,0c.11,0,.26.03.38.07l.14.07.03.02h0c2.79,4.44,5.54,8.9,8.29,13.36-5.39-3.03-10.68-6-15.97-8.97-.41-.23-.8-.41-1.12-.64-.26-.18-.52-.26-.66-.35-.07-.04-.11-.08-.13-.12-.02-.04-.04-.08-.04-.18,0-.05,0-.11.02-.19Zm26.81-77.38c.08-.02.19-.03.29-.03s.21.01.28.03c.08.02.12.05.12.05,1.94,1.75,3.85,3.54,5.85,5.4-2.19,2.3-4.07,4.29-5.98,6.25h0s-.22.1-.34.09h-.11c-1.25-.41-2.36-.63-3.38-.63-1.19,0-2.27.3-3.27.93-.95.59-1.82,1.47-2.72,2.63-.68-.17-1.38-.33-2.08-.51-.58-.14-1.18-.3-1.81-.46,1.64-2.65,3.22-5.22,4.8-7.78.69-1.12,1.48-2.22,2.1-3.44.32-.64.65-1.19,1.02-1.55.38-.36.78-.56,1.4-.56.25,0,.54.04.87.12h0c.15.04.31.05.46.05.45,0,.89-.13,1.3-.27.42-.14.82-.28,1.17-.34h0Zm14.85-3.3c-1.87,2-3.76,3.97-5.49,5.79-1.97-1.84-3.88-3.62-5.75-5.43v-.02s-.05-.15-.05-.25v-.15s.03-.05.03-.05h0c.2-.38.22-.73.3-.94.04-.1.08-.15.12-.18.04-.03.1-.06.28-.07h0c.11,0,.23,0,.35,0,1.64,0,3.28,0,4.92,0s3.15,0,4.73.02c.04,0,.1.02.17.06.11.07.23.22.32.4.09.18.14.38.14.54,0,.14-.04.23-.08.27Zm2.95,2.9c1.21.64,2.46,1.04,3.79,1.04.54,0,1.1-.06,1.66-.2,0,0,.11.02.2.08.09.05.17.13.18.15,2.69,4.31,5.36,8.63,8.12,13.09-1.38.34-2.65.65-3.88.96-.91-1.16-1.8-2.04-2.76-2.63-1.01-.63-2.1-.94-3.28-.94-1.12,0-2.33.28-3.69.79-.05-.04-.1-.07-.13-.1-2.08-1.93-4.16-3.86-6.28-5.84,2.2-2.31,4.13-4.34,6.08-6.39Zm3.74-9.39h0c.83,0,1.61.36,2.18.93.57.58.93,1.36.93,2.19v.03c-.01,1.65-1.46,3.09-3.1,3.1h-.02c-.82,0-1.61-.36-2.19-.94-.58-.58-.94-1.36-.94-2.18v-.03s0,0,0,0c.01-1.64,1.48-3.1,3.11-3.1h.02Zm13.64,64.61c-2.46-2.59-4.91-5.17-7.32-7.7,0,0,0,0,0-.01v-.05c.16-.72.41-1.06.77-1.28.36-.22.89-.31,1.58-.3.07,0,.15,0,.23,0,2.19.05,4.38.07,6.57.07,2.56,0,5.11-.02,7.67-.05h.01s0,0,0,0h.02c.43,0,.7.07.82.18.07.06.12.12.16.24.03.08.05.2.07.34-3.47,2.81-6.98,5.65-10.59,8.57Zm-54.6,3c-.64.67-1.26,1.32-1.94,2.03-1.51-2.44-2.99-4.83-4.47-7.21,2.12,1.71,4.24,3.43,6.41,5.18Zm53.53,11.44l-.11.06-.18.04h-.03s0,0,0,0c-1.58-.35-3.15-.73-4.71-1.15h0c-.06-.03-.22-.27-.3-.45-.23-.5-.32-.92-.32-1.28,0-.46.14-.84.42-1.22.28-.38.71-.75,1.27-1.12,1.68-1.1,3.14-2.47,4.67-3.7.94.99,1.91,2,2.91,3.05-1.21,1.96-2.39,3.89-3.6,5.79Zm-24.79,8.34c-1.82-1.7-3.8-3.54-5.75-5.42,0-.02-.01-.06-.01-.13,0-.12.02-.27.05-.37.09-.34.26-.7.43-1.09h10.47c.33.71.5,1.13.49,1.35,0,.14-.04.25-.19.46-.16.21-.43.48-.83.86-1.58,1.52-3.2,2.99-4.66,4.34Zm-19.57-9.62s-.05.08-.12.14l-.19.11c-1.5.4-2.99.78-4.5,1.09h-.04c-.07,0-.21-.02-.32-.08-.11-.05-.2-.13-.2-.13-1.13-1.73-2.22-3.48-3.26-5.26,0,0-.04-.11-.04-.23,0-.19.08-.42.1-.43.8-.94,1.69-1.84,2.58-2.76.04.02.08.05.1.07,2.13,1.72,4.25,3.43,6.38,5.16-.16.8-.31,1.58-.51,2.33Zm-16.82-22c.03-.07.13-.2.26-.29.12-.1.27-.15.29-.14,2.71-.02,5.42-.03,8.13-.03s5.32.01,7.98.03c.03,0,.16.04.29.14.13.1.27.23.36.35.19.24.32.62.51,1.08-2.44,2.57-4.85,5.12-7.32,7.72-1.91-1.54-3.77-3.04-5.63-4.54-1.56-1.26-3.13-2.49-4.64-3.78-.03-.02-.1-.12-.14-.22-.05-.11-.08-.23-.07-.28h0Zm.11-5.51h0c3.8-3.12,7.63-6.2,11.54-9.36,2.42,2.55,4.74,5,6.98,7.36-.49.92-.91,1.77-1.38,2.55-.03.06-.14.17-.24.24-.11.07-.22.11-.24.1-2.63.01-5.26.02-7.88.02-2.82,0-5.64,0-8.46-.03h0s-.15-.07-.24-.17c-.09-.09-.17-.21-.2-.27v-.06c0-.07.01-.18.04-.26l.05-.1.02-.03Zm35.86-31.54c2.07,1.93,4.09,3.81,6.06,5.71,0,.01.03.11.03.22,0,.12-.02.26-.04.36-.08.33-.25.67-.42,1.06-3.5,0-6.99,0-10.47,0-.32-.73-.48-1.17-.47-1.41,0-.17.05-.31.22-.55.17-.24.47-.56.9-1.01,1.45-1.53,2.91-3.04,4.19-4.38Zm5.9,13.36c-.16.21-.43.48-.83.87-1.57,1.53-3.18,3.01-4.65,4.39-1.84-1.74-3.81-3.59-5.76-5.47,0-.02-.01-.07-.01-.13,0-.12.02-.27.05-.37.09-.34.26-.7.43-1.09h10.47c.33.71.5,1.14.49,1.35,0,.14-.04.25-.19.46Zm-11.26-.24h0s0,0,0,0Zm-6.46-.53h-.03c-1.68,0-3.16-1.44-3.18-3.11h0s0-.04,0-.04c0-1.68,1.42-3.11,3.14-3.12h.02s0,0,0,0h0c1.73,0,3.13,1.38,3.15,3.1v.03c0,1.74-1.38,3.13-3.11,3.15Zm0,25.08h-.03c-1.69,0-3.15-1.44-3.17-3.13h0s0-.04,0-.04c0-1.67,1.45-3.15,3.13-3.16h.02s0,0,0,0h0c1.68,0,3.15,1.44,3.16,3.13v.03c0,1.72-1.41,3.15-3.11,3.17Zm-.08,25.03c-1.69,0-3.13-1.46-3.13-3.13v-.03s0,0,0,0c.01-1.68,1.49-3.12,3.17-3.11h.02s.01,0,.01,0c1.7.01,3.12,1.45,3.12,3.12v.05c-.03,1.73-1.43,3.11-3.17,3.11h-.02Zm3.63-9.78s-.2.09-.32.08h-.08s-.03-.01-.03-.01c-1.06-.47-2.12-.7-3.17-.7-1.41,0-2.79.44-4.14,1.27-2.1-1.7-4.16-3.37-6.27-5.08,2.41-2.54,4.75-5,7.11-7.49,1.1.51,2.21.79,3.34.79,1.06,0,2.12-.24,3.18-.73h0s0,0,0,0h.1s.17.01.17.01l.05.02h0c1.94,1.95,3.86,3.92,5.84,5.95-1.96,2.01-3.86,3.96-5.78,5.88Zm8.68-27.53c1.78,1.67,3.68,3.45,5.54,5.27,0,0,.04.06.07.15.03.09.04.21.04.31,0,.1-.02.19-.03.22h0c-.15.35-.18.69-.27.89-.04.1-.08.15-.14.18-.06.04-.15.08-.35.08h-.02c-3.27-.04-6.53,0-9.78-.04h0s-.17-.06-.27-.15l-.13-.13-.03-.05v-.02c-.09-.3-.25-.5-.36-.68-.12-.18-.17-.31-.17-.37,0-.05,0-.11.16-.25,1.95-1.84,3.91-3.67,5.73-5.39Zm-.01,18.23c-1.81-1.7-3.74-3.49-5.64-5.33h0s-.04-.07-.06-.14c-.02-.08-.04-.17-.04-.23v-.07s0,0,0,0h0c.21-.38.23-.75.31-.97.04-.11.08-.17.13-.21.04-.03.11-.07.3-.07,1.49,0,2.99,0,4.48,0,1.83,0,3.65.01,5.48.07l.02.02c.08.06.22.23.34.44.13.21.25.45.35.65,0,0,.04.12.04.23,0,.08-.01.16-.03.21l-.02.06h0c-1.92,1.86-3.87,3.68-5.67,5.37Zm5.67,12.27v.04c0,.11-.04.34-.11.56-.07.23-.15.47-.22.67,0,.02-.08.14-.18.21l-.14.09-.05.02h0c-2.09.02-4.18.03-6.26.03-1.31,0-2.61,0-3.91,0-.32-.72-.49-1.15-.48-1.38,0-.16.04-.28.2-.5.16-.22.45-.51.86-.91,1.54-1.51,3.11-2.98,4.53-4.32,1.88,1.76,3.87,3.58,5.76,5.49Zm-14.39-27.96s-.1.03-.19.03c-.1,0-.22-.02-.25-.04-1.01-.43-2.06-.68-3.14-.68-.47,0-.94.05-1.42.15h0s-.1,0-.1,0c-.07,0-.16-.01-.23-.03l-.08-.03h-.02s0-.01,0-.01c-2.44-2.53-4.86-5.09-7.34-7.71,1.74-1.41,3.41-2.76,5.09-4.12,1.34.82,2.73,1.27,4.16,1.27,1.07,0,2.16-.25,3.25-.75h.02s.19.04.19.04l.13.07c1.92,1.93,3.82,3.88,5.78,5.89-1.97,2.02-3.89,4-5.83,5.93Zm20.93,3.46h.05s0-.39,0-.39v.39c1.67.02,3.1,1.47,3.09,3.13v.09c-.04,1.63-1.5,3.05-3.1,3.04h-.06s0,0,0,0c-.77-.02-1.55-.38-2.12-.93-.58-.55-.93-1.27-.93-1.96v-.03c.01-.94.37-1.77.93-2.37.56-.6,1.31-.96,2.14-.96Zm-3.03,9.75c.92.44,1.92.69,2.95.68,1.11,0,2.26-.28,3.42-.82,2.35,2.48,4.69,4.95,7.11,7.5-2.1,1.7-4.17,3.37-6.26,5.06-1.34-.83-2.73-1.27-4.16-1.27-1.07,0-2.15.25-3.24.74h0s-.13-.02-.22-.05c-.09-.03-.17-.09-.21-.12-1.99-1.79-3.96-3.61-6.01-5.49,2.39-2.24,4.47-4.2,6.63-6.23Zm-.05,18.63c.04-1.87,1.37-3.26,3.03-3.28h.02s0,0,0,0h0c.86,0,1.65.35,2.23.91.57.56.93,1.33.93,2.17,0,1.67-1.38,3.06-3.07,3.07h-.03c-.82,0-1.6-.34-2.18-.87-.58-.53-.94-1.24-.94-1.96v-.04Zm15.21-43.17c-1.74-1.41-3.45-2.77-5.11-4.16l-.03-.04c-.06-.1-.1-.34-.1-.52v-.04s0,0,0,0c.03-.91.28-1.51.7-1.91.42-.4,1.07-.65,1.99-.71.5-.04.99-.2,1.44-.34.45-.14.86-.26,1.16-.26.12,0,.23.02.32.05.23.08.5.4.75.85.25.45.49,1,.79,1.47.44.7.87,1.41,1.34,2.17-1.08,1.15-2.15,2.28-3.25,3.44Zm-12.21-10.21h0s0,0,0,0h.05c1.75,0,3.14,1.35,3.15,3.05,0,1.67-1.4,3.08-3.08,3.1h-.03c-1.7,0-3.08-1.33-3.13-3.01h0s0-.08,0-.08c0-1.62,1.37-3.02,3.03-3.05Zm-3.05,9.65h0c1.06.46,2.11.7,3.15.7,1.41,0,2.79-.44,4.14-1.27,1.67,1.35,3.36,2.71,5.12,4.12-2.2,2.32-4.37,4.57-6.48,6.87-.29.32-.55.53-.82.67-.27.14-.57.21-.97.21-.11,0-.22,0-.33-.01h0c-.16-.02-.32-.02-.48-.02-1.2,0-2.36.33-3.29.49-2.09-1.95-4.14-3.86-6.22-5.8,1.94-1.99,3.8-3.93,5.7-5.82h0s.08-.06.16-.09c.09-.03.19-.05.26-.05h.06s.01,0,.01,0Zm27.34,15.89c-.11.13-.26.27-.41.37-.15.1-.3.15-.35.15-2.63.02-5.26.03-7.89.03-2.67,0-5.33-.01-8-.03-.05,0-.21-.05-.36-.15-.15-.1-.29-.24-.36-.35-.46-.69-.85-1.48-1.34-2.38,2.28-2.4,4.6-4.85,6.99-7.36.43.33.83.65,1.23.97,3.37,2.72,6.74,5.45,10.11,8.18.15.12.3.22.38.31l.08.1v.02s.01.04-.08.15Zm-8.87-12.74c.76-.8,1.51-1.59,2.29-2.41,1.79,2.89,3.53,5.71,5.27,8.51-2.49-2.01-4.99-4.04-7.55-6.11Zm1.38-11.71c1.82-.45,3.56-.88,5.28-1.3-1.19,1.26-2.41,2.53-3.69,3.89-.55-.89-1.06-1.71-1.59-2.58Zm-53.75,1.19s.2-.07.3-.07h.07c.63.1,1.31.38,2.08.46,1.01.1,1.84.33,2.39.75.54.43.87,1.04.88,2.13,0,.13-.01.27-.02.42-1.61,1.3-3.39,2.74-5.23,4.23-1.11-1.17-2.16-2.28-3.25-3.43.92-1.51,1.84-3.01,2.79-4.49Zm60.88-7.89c-.06.33-.14.53-.23.64-.09.11-.24.2-.58.28-2.72.6-5.4,1.32-8.1,1.94h-.12c-.11.01-.26-.02-.38-.06l-.14-.06-.03-.02h0c-2.8-4.44-5.55-8.91-8.31-13.38,1.54.86,3.07,1.73,4.61,2.59,4.23,2.38,8.45,4.76,12.69,7.12.23.13.4.24.49.34.08.1.12.17.13.36,0,.07,0,.15-.03.24Zm-63.64,18.41c-2.55,2.06-5.06,4.09-7.56,6.12,1.73-2.8,3.48-5.62,5.28-8.54.76.81,1.51,1.59,2.28,2.42Zm-1.38-11.71c-.53.86-1.06,1.71-1.6,2.59-1.26-1.33-2.48-2.61-3.69-3.89,1.72.42,3.46.85,5.29,1.31Zm57.66,41.41c2.16-1.75,4.28-3.46,6.39-5.16-1.46,2.37-2.94,4.75-4.45,7.2-.66-.7-1.29-1.36-1.93-2.04Zm-64.38-47.35s-.16-.2-.23-.41c-.08-.21-.14-.47-.17-.65,0-.02.06-.16.15-.27.1-.12.23-.23.31-.28,4.73-2.69,9.47-5.35,14.21-8.01,1.06-.59,2.12-1.19,3.18-1.78-2.81,4.54-5.62,9.09-8.45,13.66-3.05-.74-6.05-1.44-9-2.25Zm4.3,56.09c.82,1.33,1.6,2.59,2.42,3.91-2.71.66-5.32,1.3-7.91,1.93,1.8-1.92,3.61-3.84,5.49-5.85Zm62.7,0c1.86,1.96,3.67,3.88,5.48,5.79-2.58-.49-5.15-1.24-7.89-1.88.83-1.35,1.61-2.61,2.41-3.91Zm-74.57-52.75h0c-.83,0-1.61-.35-2.17-.92-.57-.56-.92-1.33-.92-2.15,0-1.66,1.39-3.01,3.1-3.01h.02s0,0,0,0c1.66.01,3.03,1.37,3.05,2.99v.04c0,.81-.35,1.57-.92,2.13-.57.56-1.34.91-2.16.92Zm-3.1,62.31v-.07c.04-1.66,1.45-3.02,3.11-3.01h.05c1.61.02,3.02,1.44,3.03,3.05v.03c0,.81-.35,1.56-.91,2.11-.56.55-1.34.89-2.19.89h-.01c-1.67,0-3.08-1.4-3.07-2.99Z"/>
        </g>
      </g>
    </mask>
  </defs>
  <g>
    <g>
      <path class="cls-3" d="m720.3,926.99v-75.31h14.38v63.57h36.07v11.74h-50.45Z"/>
      <path class="cls-3" d="m770.12,889.33c0-22.95,13.43-38.71,37.34-38.71s37.44,15.76,37.44,38.71-13.43,38.71-37.44,38.71-37.34-15.76-37.34-38.71Zm60.39,0c0-17.35-7.83-26.97-23.06-26.97s-22.95,9.63-22.95,26.97,7.83,26.97,22.95,26.97,23.06-9.62,23.06-26.97Z"/>
      <path class="cls-3" d="m902.53,926.99l-35.33-54.89v54.89h-13.64v-75.31h15.44l35.22,54.89v-54.89h13.75v75.31h-15.44Z"/>
      <path class="cls-3" d="m959.53,926.99h-29.93v-75.31h29.93c24.86,0,37.44,14.07,37.44,37.65s-12.59,37.65-37.44,37.65Zm.74-63.99h-16.29v52.67h16.29c14.91,0,22.32-8.88,22.32-26.34s-7.4-26.34-22.32-26.34Z"/>
      <path class="cls-3" d="m1002.68,889.33c0-22.95,13.43-38.71,37.34-38.71s37.44,15.76,37.44,38.71-13.43,38.71-37.44,38.71-37.34-15.76-37.34-38.71Zm60.39,0c0-17.35-7.83-26.97-23.06-26.97s-22.95,9.63-22.95,26.97,7.83,26.97,22.95,26.97,23.06-9.62,23.06-26.97Z"/>
      <path class="cls-3" d="m1135.1,926.99l-35.33-54.89v54.89h-13.64v-75.31h15.44l35.22,54.89v-54.89h13.75v75.31h-15.44Z"/>
    </g>
    <g>
      <g>
        <path class="cls-3" d="m789.79,1037.65v-62.3l-21.79,62.3h-12.16l-21.89-62.3v62.3h-13.64v-75.31h22.53l19.04,53.62,19.04-53.62h22.64v75.31h-13.75Z"/>
        <path class="cls-3" d="m869.11,1037.65l-5.71-15.65h-32.79l-5.71,15.65h-14.81l28.03-75.31h17.77l28.03,75.31h-14.81Zm-22.11-62.19l-12.9,35.43h25.7l-12.8-35.43Z"/>
        <path class="cls-3" d="m898.4,1037.65v-63.57h-22.85v-11.74h60.18v11.74h-22.95v63.57h-14.38Z"/>
        <path class="cls-3" d="m993.17,1037.65v-32.26h-35.64v32.26h-14.38v-75.31h14.38v30.78h35.64v-30.78h14.38v75.31h-14.38Z"/>
        <path class="cls-3" d="m1016.22,1013.43h13.96c1.16,9.94,5.71,14.49,17.45,14.49s16.39-4.87,16.39-11.85c0-5.18-2.86-8.57-14.38-10.26l-9.63-1.37c-15.76-2.22-21.89-7.72-21.89-19.99,0-13.54,9.63-23.16,29.19-23.16s29.19,9.52,29.19,24.22h-13.64c-.95-8.88-5.82-13.43-15.86-13.43s-14.49,4.65-14.49,11.53c0,5.18,2.43,7.83,12.48,9.2l9.63,1.38c15.34,2.22,23.8,8.04,23.8,21.05,0,14.07-10.15,23.48-31.1,23.48s-31.09-9.2-31.09-25.28Z"/>
        <path class="cls-3" d="m1160.05,1031.73c-6.56,4.65-14.28,6.98-22.63,6.98-17.98,0-26.87-9.52-26.87-20.62,0-9.52,4.23-15.97,15.86-20.73-5.18-5.71-7.3-10.79-7.3-17.03,0-10.37,7.93-19.04,22-19.04s22.11,8.67,22.11,19.04c0,8.99-5.61,14.17-19.14,19.14l16.18,16.5c2.43-3.81,4.34-8.78,5.39-14.81h12.27c-1.69,9.2-5.08,16.92-9.84,22.85l13.43,13.64h-15.65l-5.82-5.92Zm-7.51-7.62l-19.88-20.41c-6.03,2.96-8.46,7.09-8.46,13.01,0,6.98,6.24,11.64,14.17,11.64,4.97,0,9.84-1.27,14.17-4.23Zm-14.49-30.99c8.36-3.28,12.16-7.83,12.16-13.12,0-5.71-3.59-8.99-9.1-8.99s-8.99,3.28-8.99,8.99c0,4.13,1.06,7.72,5.92,13.12Z"/>
      </g>
      <g>
        <path class="cls-3" d="m1213.67,1013.43h13.96c1.16,9.94,5.71,14.49,17.45,14.49s16.39-4.87,16.39-11.85c0-5.18-2.86-8.57-14.38-10.26l-9.63-1.37c-15.76-2.22-21.89-7.72-21.89-19.99,0-13.54,9.63-23.16,29.19-23.16s29.19,9.52,29.19,24.22h-13.64c-.95-8.88-5.82-13.43-15.86-13.43s-14.49,4.65-14.49,11.53c0,5.18,2.43,7.83,12.48,9.2l9.63,1.37c15.34,2.22,23.8,8.04,23.8,21.05,0,14.07-10.15,23.48-31.1,23.48s-31.09-9.2-31.09-25.28Z"/>
        <path class="cls-3" d="m1281.57,1000c0-22.95,13.43-38.71,37.34-38.71,20.73,0,34.8,12.27,34.8,28.56h-13.64c-1.27-9.63-8.04-16.82-21.15-16.82-15.12,0-22.95,9.62-22.95,26.97s7.83,26.97,22.95,26.97c12.9,0,19.88-6.77,21.15-17.45h13.64c0,16.61-13.64,29.19-34.8,29.19-23.9,0-37.34-15.76-37.34-38.71Z"/>
        <path class="cls-3" d="m1362.37,1037.65v-75.31h14.38v75.31h-14.38Z"/>
        <path class="cls-3" d="m1388.39,1037.65v-75.31h54.89v11.74h-40.51v19.67h37.12v11h-37.12v21.15h40.51v11.74h-54.89Z"/>
        <path class="cls-3" d="m1501.13,1037.65l-35.33-54.89v54.89h-13.64v-75.31h15.44l35.22,54.89v-54.89h13.75v75.31h-15.44Z"/>
        <path class="cls-3" d="m1525.24,1000c0-22.95,13.43-38.71,37.34-38.71,20.73,0,34.8,12.27,34.8,28.56h-13.64c-1.27-9.63-8.04-16.82-21.15-16.82-15.12,0-22.95,9.62-22.95,26.97s7.83,26.97,22.95,26.97c12.9,0,19.88-6.77,21.15-17.45h13.64c0,16.61-13.64,29.19-34.8,29.19-23.9,0-37.34-15.76-37.34-38.71Z"/>
        <path class="cls-3" d="m1606.04,1037.65v-75.31h54.89v11.74h-40.51v19.67h37.12v11h-37.12v21.15h40.51v11.74h-54.89Z"/>
      </g>
    </g>
    <g>
      <path class="cls-3" d="m720.3,1110.67c0-22.95,13.43-38.71,37.34-38.71,20.73,0,34.8,12.27,34.8,28.56h-13.64c-1.27-9.63-8.04-16.82-21.15-16.82-15.12,0-22.95,9.62-22.95,26.97s7.83,26.97,22.95,26.97c12.9,0,19.88-6.77,21.15-17.45h13.64c0,16.61-13.64,29.19-34.8,29.19-23.9,0-37.34-15.76-37.34-38.71Z"/>
      <path class="cls-3" d="m798.14,1110.67c0-22.95,13.43-38.71,37.34-38.71s37.44,15.76,37.44,38.71-13.43,38.71-37.44,38.71-37.34-15.76-37.34-38.71Zm60.39,0c0-17.35-7.83-26.97-23.06-26.97s-22.95,9.62-22.95,26.97,7.83,26.97,22.95,26.97,23.06-9.63,23.06-26.97Z"/>
      <path class="cls-3" d="m881.58,1148.32v-75.31h14.38v63.57h36.07v11.74h-50.45Z"/>
      <path class="cls-3" d="m939.44,1148.32v-75.31h14.38v63.57h36.07v11.74h-50.45Z"/>
      <path class="cls-3" d="m997.29,1148.32v-75.31h54.89v11.74h-40.51v19.67h37.12v11h-37.12v21.15h40.51v11.74h-54.89Z"/>
      <path class="cls-3" d="m1058.1,1110.67c0-22.95,13.43-38.71,37.34-38.71,22.11,0,33.95,12.8,33.95,26.34h-12.9c-1.9-8.14-8.88-14.6-21.05-14.6-15.12,0-22.95,9.62-22.95,26.97s7.83,26.97,22.95,26.97c14.07,0,20.2-7.93,21.05-20.52h-19.04v-9.84h32.68v41.04h-10.47l-1.27-12.69c-3.28,8.78-10.79,13.75-24.33,13.75-23.27,0-35.96-15.76-35.96-38.71Z"/>
      <path class="cls-3" d="m1140.7,1148.32v-75.31h54.89v11.74h-40.51v19.67h37.12v11h-37.12v21.15h40.51v11.74h-54.89Z"/>
    </g>
  </g>
  <g class="cls-2">
    <path class="cls-3" d="m668.55,854.48h-.32c-4.53,0-8.77-.91-12.65-2.55-3.87-1.64-7.37-4.01-10.33-6.97-2.96-2.96-5.33-6.46-6.97-10.33-1.64-3.87-2.54-8.11-2.55-12.64h0s0-15.96,0-15.96h-248.23v15.96h0c0,4.52-.91,8.76-2.55,12.64-1.64,3.87-4.01,7.37-6.97,10.33-2.96,2.95-6.46,5.33-10.33,6.97-3.87,1.64-8.11,2.54-12.64,2.55h-15.96v166.91s0,.01,0,.02c0,23.79,4.83,46.51,13.57,67.17,8.74,20.66,21.37,39.24,36.97,54.85h0c15.6,15.6,34.19,28.24,54.85,36.97,20.65,8.74,43.38,13.57,67.17,13.57,23.79,0,46.52-4.83,67.17-13.57,20.66-8.74,39.25-21.37,54.85-36.97h0c15.6-15.6,28.24-34.19,36.97-54.84,8.59-20.3,13.39-42.6,13.55-65.94l.02-.08v-168.09h-15.64Z"/>
  </g>
</svg>